<svg xmlns="http://www.w3.org/2000/svg" xmlns:xlink="http://www.w3.org/1999/xlink" width="500" zoomAndPan="magnify" viewBox="0 0 375 374.999991" height="500" preserveAspectRatio="xMidYMid meet" version="1.0"><defs><g/><clipPath id="d2ac089e2c"><path d="M 81.035156 37.5 L 293.964844 37.5 L 293.964844 250.433594 L 81.035156 250.433594 Z M 81.035156 37.5 " clip-rule="nonzero"/></clipPath><clipPath id="f64efdd5d4"><path d="M 223.675781 37.5 L 151.324219 37.5 C 150.332031 37.5 149.375 37.894531 148.671875 38.597656 C 147.96875 39.300781 147.574219 40.253906 147.574219 41.25 L 147.574219 100.292969 C 147.574219 101.285156 147.179688 102.238281 146.476562 102.941406 C 145.773438 103.644531 144.820312 104.042969 143.824219 104.042969 L 84.785156 104.042969 C 83.789062 104.042969 82.835938 104.4375 82.132812 105.140625 C 81.429688 105.84375 81.035156 106.796875 81.035156 107.792969 L 81.035156 180.140625 C 81.035156 181.136719 81.429688 182.089844 82.132812 182.792969 C 82.835938 183.496094 83.789062 183.890625 84.785156 183.890625 L 143.824219 183.890625 C 144.820312 183.890625 145.773438 184.285156 146.476562 184.988281 C 147.179688 185.691406 147.574219 186.644531 147.574219 187.640625 L 147.574219 246.683594 C 147.574219 247.675781 147.96875 248.628906 148.671875 249.332031 C 149.375 250.039062 150.332031 250.433594 151.324219 250.433594 L 223.675781 250.433594 C 224.667969 250.433594 225.625 250.039062 226.328125 249.332031 C 227.03125 248.628906 227.425781 247.675781 227.425781 246.683594 L 227.425781 187.640625 C 227.425781 186.644531 227.820312 185.691406 228.523438 184.988281 C 229.226562 184.285156 230.179688 183.890625 231.175781 183.890625 L 290.214844 183.890625 C 291.210938 183.890625 292.164062 183.496094 292.867188 182.792969 C 293.570312 182.089844 293.964844 181.136719 293.964844 180.140625 L 293.964844 107.792969 C 293.964844 106.796875 293.570312 105.84375 292.867188 105.140625 C 292.164062 104.4375 291.210938 104.042969 290.214844 104.042969 L 231.175781 104.042969 C 230.179688 104.042969 229.226562 103.644531 228.523438 102.941406 C 227.820312 102.238281 227.425781 101.285156 227.425781 100.292969 L 227.425781 41.25 C 227.425781 40.253906 227.03125 39.300781 226.328125 38.597656 C 225.625 37.894531 224.667969 37.5 223.675781 37.5 Z M 223.675781 37.5 " clip-rule="nonzero"/></clipPath><clipPath id="176b74b40c"><path d="M 0.0351562 0.5 L 212.964844 0.5 L 212.964844 213.433594 L 0.0351562 213.433594 Z M 0.0351562 0.5 " clip-rule="nonzero"/></clipPath><clipPath id="253aae7a03"><path d="M 142.675781 0.5 L 70.324219 0.5 C 69.332031 0.5 68.375 0.894531 67.671875 1.597656 C 66.96875 2.300781 66.574219 3.253906 66.574219 4.25 L 66.574219 63.292969 C 66.574219 64.285156 66.179688 65.238281 65.476562 65.941406 C 64.773438 66.644531 63.820312 67.042969 62.824219 67.042969 L 3.785156 67.042969 C 2.789062 67.042969 1.835938 67.4375 1.132812 68.140625 C 0.429688 68.84375 0.0351562 69.796875 0.0351562 70.792969 L 0.0351562 143.140625 C 0.0351562 144.136719 0.429688 145.089844 1.132812 145.792969 C 1.835938 146.496094 2.789062 146.890625 3.785156 146.890625 L 62.824219 146.890625 C 63.820312 146.890625 64.773438 147.285156 65.476562 147.988281 C 66.179688 148.691406 66.574219 149.644531 66.574219 150.640625 L 66.574219 209.683594 C 66.574219 210.675781 66.96875 211.628906 67.671875 212.332031 C 68.375 213.039062 69.332031 213.433594 70.324219 213.433594 L 142.675781 213.433594 C 143.667969 213.433594 144.625 213.039062 145.328125 212.332031 C 146.03125 211.628906 146.425781 210.675781 146.425781 209.683594 L 146.425781 150.640625 C 146.425781 149.644531 146.820312 148.691406 147.523438 147.988281 C 148.226562 147.285156 149.179688 146.890625 150.175781 146.890625 L 209.214844 146.890625 C 210.210938 146.890625 211.164062 146.496094 211.867188 145.792969 C 212.570312 145.089844 212.964844 144.136719 212.964844 143.140625 L 212.964844 70.792969 C 212.964844 69.796875 212.570312 68.84375 211.867188 68.140625 C 211.164062 67.4375 210.210938 67.042969 209.214844 67.042969 L 150.175781 67.042969 C 149.179688 67.042969 148.226562 66.644531 147.523438 65.941406 C 146.820312 65.238281 146.425781 64.285156 146.425781 63.292969 L 146.425781 4.25 C 146.425781 3.253906 146.03125 2.300781 145.328125 1.597656 C 144.625 0.894531 143.667969 0.5 142.675781 0.5 Z M 142.675781 0.5 " clip-rule="nonzero"/></clipPath><clipPath id="17c4f72ff0"><rect x="0" width="213" y="0" height="214"/></clipPath><clipPath id="3b7210c7eb"><path d="M 241.308594 49.980469 L 279.011719 49.980469 L 279.011719 87.683594 L 241.308594 87.683594 Z M 241.308594 49.980469 " clip-rule="nonzero"/></clipPath><clipPath id="4ff4504b96"><path d="M 265.730469 49.980469 L 254.589844 49.980469 C 253.761719 49.980469 253.089844 50.652344 253.089844 51.480469 L 253.089844 60.261719 C 253.089844 61.089844 252.421875 61.761719 251.589844 61.761719 L 242.808594 61.761719 C 241.980469 61.761719 241.308594 62.433594 241.308594 63.261719 L 241.308594 74.402344 C 241.308594 75.230469 241.980469 75.902344 242.808594 75.902344 L 251.589844 75.902344 C 252.421875 75.902344 253.089844 76.570312 253.089844 77.402344 L 253.089844 86.183594 C 253.089844 87.011719 253.761719 87.683594 254.589844 87.683594 L 265.730469 87.683594 C 266.558594 87.683594 267.230469 87.011719 267.230469 86.183594 L 267.230469 77.402344 C 267.230469 76.570312 267.902344 75.902344 268.730469 75.902344 L 277.511719 75.902344 C 278.339844 75.902344 279.011719 75.230469 279.011719 74.402344 L 279.011719 63.261719 C 279.011719 62.433594 278.339844 61.761719 277.511719 61.761719 L 268.730469 61.761719 C 267.902344 61.761719 267.230469 61.089844 267.230469 60.261719 L 267.230469 51.480469 C 267.230469 50.652344 266.558594 49.980469 265.730469 49.980469 Z M 265.730469 49.980469 " clip-rule="nonzero"/></clipPath><clipPath id="3a146a9563"><path d="M 0.308594 0.980469 L 38.011719 0.980469 L 38.011719 38.683594 L 0.308594 38.683594 Z M 0.308594 0.980469 " clip-rule="nonzero"/></clipPath><clipPath id="5a8b11ef8c"><path d="M 24.730469 0.980469 L 13.589844 0.980469 C 12.761719 0.980469 12.089844 1.652344 12.089844 2.480469 L 12.089844 11.261719 C 12.089844 12.089844 11.421875 12.761719 10.589844 12.761719 L 1.808594 12.761719 C 0.980469 12.761719 0.308594 13.433594 0.308594 14.261719 L 0.308594 25.402344 C 0.308594 26.230469 0.980469 26.902344 1.808594 26.902344 L 10.589844 26.902344 C 11.421875 26.902344 12.089844 27.570312 12.089844 28.402344 L 12.089844 37.183594 C 12.089844 38.011719 12.761719 38.683594 13.589844 38.683594 L 24.730469 38.683594 C 25.558594 38.683594 26.230469 38.011719 26.230469 37.183594 L 26.230469 28.402344 C 26.230469 27.570312 26.902344 26.902344 27.730469 26.902344 L 36.511719 26.902344 C 37.339844 26.902344 38.011719 26.230469 38.011719 25.402344 L 38.011719 14.261719 C 38.011719 13.433594 37.339844 12.761719 36.511719 12.761719 L 27.730469 12.761719 C 26.902344 12.761719 26.230469 12.089844 26.230469 11.261719 L 26.230469 2.480469 C 26.230469 1.652344 25.558594 0.980469 24.730469 0.980469 Z M 24.730469 0.980469 " clip-rule="nonzero"/></clipPath><clipPath id="90f4994974"><rect x="0" width="39" y="0" height="39"/></clipPath><clipPath id="d2d3dca882"><path d="M 110 99 L 195 99 L 195 219 L 110 219 Z M 110 99 " clip-rule="nonzero"/></clipPath><clipPath id="3c127acfba"><path d="M 148.25 87.683594 L 203.886719 108.058594 L 160.554688 226.375 L 104.917969 205.996094 Z M 148.25 87.683594 " clip-rule="nonzero"/></clipPath><clipPath id="dae0911650"><path d="M 148.25 87.683594 L 203.886719 108.058594 L 160.554688 226.375 L 104.917969 205.996094 Z M 148.25 87.683594 " clip-rule="nonzero"/></clipPath><clipPath id="d1d204a69e"><path d="M 148.25 87.683594 L 203.886719 108.058594 L 160.554688 226.375 L 104.917969 205.996094 Z M 148.25 87.683594 " clip-rule="nonzero"/></clipPath><clipPath id="9b7cc72933"><path d="M 170 133 L 270 133 L 270 268 L 170 268 Z M 170 133 " clip-rule="nonzero"/></clipPath><clipPath id="9e71d8da3f"><path d="M 170.765625 155.679688 L 223.320312 133.609375 L 270.078125 244.9375 L 217.523438 267.011719 Z M 170.765625 155.679688 " clip-rule="nonzero"/></clipPath><clipPath id="2a231579f2"><path d="M 10 13 L 95 13 L 95 126 L 10 126 Z M 10 13 " clip-rule="nonzero"/></clipPath><clipPath id="80b15d3914"><path d="M 0.765625 22.679688 L 53.320312 0.609375 L 100.078125 111.9375 L 47.523438 134.011719 Z M 0.765625 22.679688 " clip-rule="nonzero"/></clipPath><clipPath id="d74d4b694a"><path d="M 53.027344 0.730469 L 0.472656 22.804688 L 47.230469 134.132812 L 99.785156 112.0625 Z M 53.027344 0.730469 " clip-rule="nonzero"/></clipPath><clipPath id="c1de801e50"><path d="M 53.027344 0.730469 L 0.472656 22.804688 L 47.230469 134.132812 L 99.785156 112.0625 Z M 53.027344 0.730469 " clip-rule="nonzero"/></clipPath><clipPath id="6df27f8fd2"><rect x="0" width="100" y="0" height="135"/></clipPath><clipPath id="a29d44e582"><rect x="0" width="143" y="0" height="83"/></clipPath><clipPath id="e5841eadcc"><rect x="0" width="160" y="0" height="83"/></clipPath></defs><g clip-path="url(#d2ac089e2c)"><g clip-path="url(#f64efdd5d4)"><g transform="matrix(1, 0, 0, 1, 81, 37)"><g clip-path="url(#17c4f72ff0)"><g clip-path="url(#176b74b40c)"><g clip-path="url(#253aae7a03)"><path fill="#ffffff" d="M 0.0351562 0.5 L 212.964844 0.5 L 212.964844 213.433594 L 0.0351562 213.433594 Z M 0.0351562 0.5 " fill-opacity="1" fill-rule="nonzero"/></g></g></g></g></g></g><g clip-path="url(#3b7210c7eb)"><g clip-path="url(#4ff4504b96)"><g transform="matrix(1, 0, 0, 1, 241, 49)"><g clip-path="url(#90f4994974)"><g clip-path="url(#3a146a9563)"><g clip-path="url(#5a8b11ef8c)"><path fill="#ffffff" d="M 0.308594 0.980469 L 38.011719 0.980469 L 38.011719 38.683594 L 0.308594 38.683594 Z M 0.308594 0.980469 " fill-opacity="1" fill-rule="nonzero"/></g></g></g></g></g></g><g clip-path="url(#d2d3dca882)"><g clip-path="url(#3c127acfba)"><g clip-path="url(#dae0911650)"><g clip-path="url(#d1d204a69e)"><path fill="#000000" d="M 110.410156 207.417969 C 116.304688 199.695312 120.320312 190.785156 125.71875 182.734375 C 130.351562 174.875 135.242188 166.988281 138.09375 158.28125 C 139.816406 150.59375 138.074219 142.492188 140.726562 134.957031 C 141.332031 130.5625 143.34375 126.015625 142.183594 121.597656 C 139.390625 119.074219 138.90625 113.402344 144.054688 115.167969 C 148.644531 115.582031 149.210938 123.921875 150.964844 124.21875 C 153.804688 118.140625 156.519531 111.78125 161.550781 107.136719 C 164.460938 104.484375 166.773438 98.789062 171.386719 99.582031 C 176.320312 102.261719 170.683594 107.53125 168.921875 110.601562 C 167.28125 113.710938 162.03125 118.179688 163.269531 120.84375 C 168.175781 114.863281 174.199219 109.761719 180.367188 105.070312 C 184.960938 101.140625 189.070312 108.550781 184.003906 111.167969 C 179.101562 116.222656 173.585938 120.769531 169.820312 126.792969 C 167.496094 128.972656 169.039062 130.484375 170.9375 127.691406 C 175.210938 122.882812 180.28125 118.894531 184.78125 114.308594 C 187.984375 109.113281 193.953125 115.886719 189.109375 119.085938 C 185.390625 123.398438 181.113281 127.183594 177.382812 131.46875 C 176.125 133.261719 170.664062 140.28125 176.0625 137.414062 C 181.136719 134.542969 185.546875 130.722656 189.894531 126.886719 C 195.34375 123.660156 195.195312 131.675781 191.261719 133.585938 C 186.917969 138.507812 182.011719 142.898438 177.101562 147.222656 C 171.882812 154.445312 168.351562 163.050781 161.359375 168.882812 C 157.265625 171.300781 155.675781 175.746094 154.207031 180.027344 C 149.488281 192.886719 145.03125 205.835938 140.460938 218.746094 C 130.449219 214.964844 120.234375 211.636719 110.410156 207.414062 Z M 110.410156 207.417969 " fill-opacity="1" fill-rule="nonzero"/></g></g></g></g><g clip-path="url(#9b7cc72933)"><g clip-path="url(#9e71d8da3f)"><g transform="matrix(1, 0, 0, 1, 170, 133)"><g clip-path="url(#6df27f8fd2)"><g clip-path="url(#2a231579f2)"><g clip-path="url(#80b15d3914)"><g clip-path="url(#d74d4b694a)"><g clip-path="url(#c1de801e50)"><path fill="#000000" d="M 94.574219 113.671875 C 88.578125 106.546875 84.332031 98.195312 78.796875 90.734375 C 74.007812 83.421875 68.96875 76.089844 65.851562 67.882812 C 63.863281 60.597656 65.183594 52.757812 62.308594 45.664062 C 61.535156 41.480469 59.40625 37.21875 60.328125 32.933594 C 62.902344 30.390625 63.121094 24.9375 58.253906 26.863281 C 53.863281 27.46875 53.683594 35.484375 52.011719 35.847656 C 49.015625 30.15625 46.132812 24.191406 41.101562 19.972656 C 38.1875 17.566406 35.722656 12.21875 31.324219 13.191406 C 26.703125 15.984375 32.34375 20.773438 34.167969 23.632812 C 35.878906 26.535156 41.117188 30.574219 40.039062 33.179688 C 35.070312 27.679688 29.0625 23.070312 22.933594 18.859375 C 18.351562 15.308594 14.722656 22.59375 19.703125 24.871094 C 24.632812 29.484375 30.128906 33.585938 34.007812 39.183594 C 36.335938 41.164062 34.917969 42.679688 32.972656 40.09375 C 28.65625 35.683594 23.617188 32.097656 19.09375 27.910156 C 15.789062 23.082031 10.351562 29.847656 15.144531 32.6875 C 18.902344 36.644531 23.175781 40.074219 26.945312 44.003906 C 28.234375 45.664062 33.785156 52.136719 28.472656 49.640625 C 23.472656 47.125 19.070312 43.667969 14.726562 40.191406 C 9.355469 37.351562 9.84375 45.023438 13.703125 46.671875 C 18.09375 51.1875 22.996094 55.167969 27.898438 59.085938 C 33.226562 65.761719 36.988281 73.839844 43.960938 79.105469 C 48 81.234375 49.714844 85.417969 51.316406 89.453125 C 56.40625 101.550781 61.25 113.75 66.199219 125.90625 C 75.652344 121.820312 85.320312 118.164062 94.574219 113.667969 Z M 94.574219 113.671875 " fill-opacity="1" fill-rule="nonzero"/></g></g></g></g></g></g></g></g><g transform="matrix(1, 0, 0, 1, 37, 260)"><g clip-path="url(#a29d44e582)"><g fill="#ffffff" fill-opacity="1"><g transform="translate(0.500002, 61.173484)"><g><path d="M 18.996094 2.707031 C 17.152344 2.707031 15.308594 2.574219 13.464844 2.300781 C 11.59375 2.023438 9.824219 1.597656 8.152344 1.019531 C 6.449219 0.429688 4.914062 -0.308594 3.542969 -1.191406 C 2.457031 -1.917969 1.691406 -2.8125 1.25 -3.886719 C 0.824219 -4.917969 0.691406 -5.957031 0.847656 -6.996094 C 1.007812 -8.039062 1.421875 -8.960938 2.089844 -9.761719 C 2.832031 -10.640625 3.765625 -11.1875 4.894531 -11.398438 C 6.070312 -11.621094 7.269531 -11.34375 8.492188 -10.574219 L 7.363281 -8.785156 L 8.4375 -10.609375 C 10 -9.683594 11.648438 -9.011719 13.386719 -8.585938 C 15.160156 -8.152344 17.03125 -7.933594 18.996094 -7.933594 C 21.660156 -7.933594 23.519531 -8.320312 24.570312 -9.09375 C 25.421875 -9.722656 25.847656 -10.507812 25.847656 -11.457031 C 25.847656 -12.15625 25.613281 -12.691406 25.144531 -13.058594 C 24.394531 -13.648438 22.953125 -14.164062 20.820312 -14.613281 L 14.289062 -15.976562 C 10.109375 -16.859375 6.949219 -18.390625 4.8125 -20.574219 C 2.570312 -22.867188 1.445312 -25.84375 1.445312 -29.507812 C 1.445312 -31.777344 1.917969 -33.855469 2.859375 -35.734375 C 3.789062 -37.597656 5.097656 -39.199219 6.789062 -40.542969 C 8.441406 -41.855469 10.394531 -42.859375 12.648438 -43.550781 C 14.847656 -44.226562 17.261719 -44.5625 19.886719 -44.5625 C 22.457031 -44.5625 24.898438 -44.242188 27.222656 -43.597656 C 29.582031 -42.941406 31.707031 -41.976562 33.597656 -40.699219 C 34.625 -39.992188 35.324219 -39.105469 35.691406 -38.03125 C 36.03125 -37.039062 36.105469 -36.054688 35.917969 -35.070312 C 35.714844 -34.035156 35.246094 -33.144531 34.503906 -32.402344 C 33.726562 -31.625 32.765625 -31.164062 31.632812 -31.027344 C 30.515625 -30.894531 29.335938 -31.179688 28.101562 -31.886719 C 26.816406 -32.613281 25.519531 -33.132812 24.210938 -33.445312 C 22.867188 -33.761719 21.40625 -33.921875 19.828125 -33.921875 C 18.277344 -33.921875 16.972656 -33.714844 15.914062 -33.296875 C 14.980469 -32.929688 14.289062 -32.441406 13.835938 -31.835938 C 13.421875 -31.28125 13.21875 -30.601562 13.21875 -29.804688 C 13.21875 -29.007812 13.457031 -28.394531 13.9375 -27.964844 C 14.605469 -27.367188 15.898438 -26.871094 17.824219 -26.472656 L 24.304688 -25.105469 C 28.605469 -24.191406 31.855469 -22.714844 34.0625 -20.667969 C 36.433594 -18.46875 37.617188 -15.574219 37.617188 -11.992188 C 37.617188 -9.761719 37.15625 -7.722656 36.238281 -5.882812 C 35.320312 -4.046875 34.011719 -2.476562 32.308594 -1.171875 C 30.65625 0.0976562 28.691406 1.0625 26.421875 1.730469 C 24.207031 2.382812 21.734375 2.707031 18.996094 2.707031 Z M 18.996094 -1.519531 C 21.328125 -1.519531 23.40625 -1.789062 25.230469 -2.324219 C 26.996094 -2.84375 28.496094 -3.578125 29.734375 -4.527344 C 30.917969 -5.4375 31.828125 -6.519531 32.453125 -7.773438 C 33.074219 -9.019531 33.386719 -10.425781 33.386719 -11.992188 C 33.386719 -14.347656 32.652344 -16.203125 31.183594 -17.566406 C 29.550781 -19.082031 26.964844 -20.214844 23.429688 -20.964844 L 16.964844 -22.328125 C 14.300781 -22.882812 12.347656 -23.710938 11.117188 -24.8125 C 9.695312 -26.085938 8.988281 -27.75 8.988281 -29.804688 C 8.988281 -31.535156 9.472656 -33.054688 10.445312 -34.363281 C 11.378906 -35.613281 12.683594 -36.570312 14.363281 -37.234375 C 15.917969 -37.84375 17.742188 -38.152344 19.828125 -38.152344 C 21.734375 -38.152344 23.519531 -37.953125 25.183594 -37.5625 C 26.886719 -37.15625 28.554688 -36.492188 30.199219 -35.558594 C 30.625 -35.316406 30.933594 -35.203125 31.121094 -35.226562 C 31.292969 -35.25 31.421875 -35.304688 31.511719 -35.394531 C 31.644531 -35.523438 31.726562 -35.683594 31.765625 -35.875 C 31.8125 -36.117188 31.785156 -36.378906 31.691406 -36.65625 C 31.625 -36.847656 31.472656 -37.027344 31.234375 -37.191406 C 29.722656 -38.210938 28.007812 -38.988281 26.089844 -39.519531 C 24.136719 -40.0625 22.070312 -40.332031 19.886719 -40.332031 C 17.6875 -40.332031 15.6875 -40.058594 13.890625 -39.507812 C 12.144531 -38.972656 10.65625 -38.210938 9.417969 -37.230469 C 8.21875 -36.277344 7.292969 -35.148438 6.640625 -33.84375 C 6 -32.558594 5.675781 -31.113281 5.675781 -29.507812 C 5.675781 -26.996094 6.394531 -25.003906 7.835938 -23.535156 C 9.375 -21.960938 11.816406 -20.820312 15.15625 -20.117188 L 21.6875 -18.753906 C 24.464844 -18.171875 26.484375 -17.382812 27.753906 -16.386719 C 29.304688 -15.171875 30.078125 -13.53125 30.078125 -11.457031 C 30.078125 -9.082031 29.078125 -7.160156 27.078125 -5.6875 C 25.28125 -4.363281 22.585938 -3.703125 18.996094 -3.703125 C 16.691406 -3.703125 14.484375 -3.960938 12.378906 -4.476562 C 10.238281 -5 8.207031 -5.832031 6.285156 -6.964844 L 6.257812 -6.980469 L 6.230469 -7 C 6.042969 -7.117188 5.882812 -7.195312 5.75 -7.226562 C 5.707031 -7.238281 5.683594 -7.242188 5.671875 -7.242188 C 5.535156 -7.214844 5.421875 -7.148438 5.328125 -7.039062 C 5.167969 -6.847656 5.070312 -6.625 5.03125 -6.363281 C 4.988281 -6.09375 5.035156 -5.808594 5.160156 -5.496094 C 5.273438 -5.21875 5.5 -4.96875 5.835938 -4.746094 C 6.921875 -4.046875 8.15625 -3.457031 9.539062 -2.976562 C 10.957031 -2.488281 12.472656 -2.121094 14.082031 -1.882812 C 15.722656 -1.640625 17.359375 -1.519531 18.996094 -1.519531 Z M 18.996094 -1.519531 "/></g></g></g><g fill="#ffffff" fill-opacity="1"><g transform="translate(37.961758, 61.173484)"><g><path d="M 18.167969 2.707031 C 14.539062 2.707031 11.386719 2.015625 8.707031 0.632812 C 5.960938 -0.785156 3.839844 -2.804688 2.347656 -5.421875 C 0.875 -8.003906 0.140625 -11.023438 0.140625 -14.484375 C 0.140625 -17.859375 0.851562 -20.832031 2.273438 -23.40625 C 3.710938 -26 5.691406 -28.039062 8.222656 -29.519531 C 10.75 -31 13.609375 -31.738281 16.800781 -31.738281 C 19.136719 -31.738281 21.253906 -31.351562 23.152344 -30.574219 C 25.085938 -29.78125 26.742188 -28.636719 28.121094 -27.140625 C 29.492188 -25.65625 30.53125 -23.871094 31.242188 -21.789062 C 31.929688 -19.765625 32.273438 -17.511719 32.273438 -15.019531 C 32.273438 -13.609375 31.75 -12.503906 30.695312 -11.703125 C 29.824219 -11.039062 28.695312 -10.707031 27.308594 -10.707031 L 6.136719 -10.707031 L 6.136719 -19.214844 L 30.285156 -19.214844 L 21.871094 -11.324219 L 21.871094 -16.207031 C 21.871094 -17.734375 21.660156 -18.976562 21.246094 -19.933594 C 20.878906 -20.773438 20.371094 -21.402344 19.71875 -21.824219 C 19.058594 -22.25 18.1875 -22.464844 17.097656 -22.464844 C 15.859375 -22.464844 14.832031 -22.195312 14.019531 -21.65625 C 13.199219 -21.113281 12.566406 -20.332031 12.121094 -19.308594 C 11.625 -18.175781 11.375 -16.785156 11.375 -15.140625 L 11.375 -14.722656 C 11.375 -12.042969 11.945312 -10.101562 13.082031 -8.90625 C 14.1875 -7.742188 15.921875 -7.160156 18.285156 -7.160156 C 19.175781 -7.160156 20.195312 -7.277344 21.34375 -7.507812 C 22.417969 -7.722656 23.429688 -8.09375 24.386719 -8.621094 C 25.589844 -9.304688 26.726562 -9.597656 27.804688 -9.496094 C 28.964844 -9.386719 29.914062 -8.945312 30.652344 -8.164062 C 31.34375 -7.441406 31.757812 -6.566406 31.898438 -5.542969 C 32.039062 -4.535156 31.859375 -3.542969 31.367188 -2.558594 C 30.890625 -1.601562 30.125 -0.800781 29.066406 -0.15625 C 27.492188 0.832031 25.691406 1.5625 23.660156 2.03125 C 21.703125 2.484375 19.871094 2.707031 18.167969 2.707031 Z M 18.167969 -1.519531 C 19.550781 -1.519531 21.0625 -1.710938 22.707031 -2.089844 C 24.277344 -2.453125 25.660156 -3.011719 26.859375 -3.765625 C 27.226562 -3.988281 27.46875 -4.214844 27.585938 -4.449219 C 27.6875 -4.652344 27.726562 -4.824219 27.707031 -4.964844 C 27.691406 -5.089844 27.652344 -5.183594 27.585938 -5.253906 L 27.589844 -5.25 C 27.550781 -5.265625 27.492188 -5.277344 27.410156 -5.285156 C 27.21875 -5.304688 26.894531 -5.179688 26.429688 -4.917969 C 25.09375 -4.175781 23.671875 -3.660156 22.171875 -3.359375 C 20.75 -3.074219 19.453125 -2.929688 18.285156 -2.929688 C 14.710938 -2.929688 11.953125 -3.953125 10.015625 -5.992188 C 8.101562 -8.003906 7.148438 -10.914062 7.148438 -14.722656 L 7.148438 -15.140625 C 7.148438 -17.371094 7.511719 -19.328125 8.242188 -21.003906 C 9.023438 -22.789062 10.171875 -24.183594 11.6875 -25.183594 C 13.207031 -26.191406 15.011719 -26.695312 17.097656 -26.695312 C 19.019531 -26.695312 20.660156 -26.253906 22.015625 -25.375 C 23.382812 -24.492188 24.417969 -23.242188 25.121094 -21.625 C 25.773438 -20.128906 26.101562 -18.320312 26.101562 -16.207031 L 23.984375 -16.207031 L 22.539062 -17.75 L 23.488281 -18.640625 L 24.933594 -17.097656 L 24.933594 -14.984375 L 8.253906 -14.984375 L 8.253906 -17.097656 L 10.367188 -17.097656 L 10.367188 -12.824219 L 8.253906 -12.824219 L 8.253906 -14.9375 L 27.308594 -14.9375 C 27.746094 -14.9375 28.019531 -14.984375 28.136719 -15.070312 C 28.101562 -15.042969 28.070312 -15.003906 28.046875 -14.953125 C 28.042969 -14.9375 28.039062 -14.929688 28.039062 -14.925781 C 28.042969 -14.949219 28.042969 -14.980469 28.042969 -15.019531 C 28.042969 -17.042969 27.773438 -18.84375 27.238281 -20.421875 C 26.71875 -21.941406 25.976562 -23.226562 25.011719 -24.273438 C 24.058594 -25.308594 22.902344 -26.105469 21.550781 -26.660156 C 20.164062 -27.226562 18.582031 -27.511719 16.800781 -27.511719 C 14.375 -27.511719 12.226562 -26.964844 10.359375 -25.871094 C 8.496094 -24.78125 7.035156 -23.277344 5.976562 -21.359375 C 4.90625 -19.421875 4.371094 -17.128906 4.371094 -14.484375 C 4.371094 -11.773438 4.921875 -9.449219 6.023438 -7.519531 C 7.101562 -5.625 8.644531 -4.160156 10.648438 -3.125 C 12.71875 -2.054688 15.222656 -1.519531 18.167969 -1.519531 Z M 18.167969 -1.519531 "/></g></g></g><g fill="#ffffff" fill-opacity="1"><g transform="translate(70.139674, 61.173484)"><g><path d="M 7.660156 2.589844 C 5.847656 2.589844 4.410156 2.058594 3.34375 0.992188 C 2.277344 -0.0742188 1.742188 -1.511719 1.742188 -3.324219 L 1.742188 -25.765625 C 1.742188 -27.578125 2.265625 -29.003906 3.3125 -30.050781 C 4.359375 -31.097656 5.75 -31.621094 7.480469 -31.621094 C 9.210938 -31.621094 10.601562 -31.097656 11.648438 -30.050781 C 12.695312 -29.003906 13.21875 -27.578125 13.21875 -25.765625 L 13.21875 -19.910156 L 7.84375 -19.910156 L 8.449219 -22.507812 C 9.117188 -25.378906 10.46875 -27.582031 12.496094 -29.117188 C 14.445312 -30.585938 16.964844 -31.457031 20.058594 -31.730469 C 21.542969 -31.875 22.765625 -31.460938 23.730469 -30.496094 C 24.59375 -29.632812 25.085938 -28.425781 25.203125 -26.878906 C 25.328125 -25.300781 24.929688 -23.984375 24.007812 -22.921875 C 23.109375 -21.894531 21.855469 -21.289062 20.242188 -21.109375 L 18.894531 -20.988281 C 16.996094 -20.800781 15.617188 -20.265625 14.746094 -19.382812 C 13.925781 -18.550781 13.515625 -17.292969 13.515625 -15.613281 L 13.515625 -3.324219 C 13.515625 -1.527344 13 -0.09375 11.96875 0.96875 C 10.917969 2.050781 9.480469 2.589844 7.660156 2.589844 Z M 7.660156 -1.640625 C 8.289062 -1.640625 8.710938 -1.753906 8.929688 -1.976562 C 9.167969 -2.21875 9.285156 -2.667969 9.285156 -3.324219 L 9.285156 -15.613281 C 9.285156 -18.449219 10.101562 -20.695312 11.730469 -22.351562 C 13.316406 -23.960938 15.578125 -24.914062 18.507812 -25.199219 L 19.773438 -25.316406 C 20.296875 -25.375 20.644531 -25.5 20.816406 -25.699219 C 20.960938 -25.867188 21.019531 -26.152344 20.984375 -26.554688 C 20.945312 -27.0625 20.863281 -27.378906 20.738281 -27.507812 C 20.714844 -27.53125 20.609375 -27.535156 20.429688 -27.519531 C 18.144531 -27.316406 16.347656 -26.722656 15.050781 -25.742188 C 13.832031 -24.820312 13.007812 -23.421875 12.566406 -21.546875 L 10.507812 -22.027344 L 10.507812 -24.140625 L 11.101562 -24.140625 L 11.101562 -22.027344 L 8.988281 -22.027344 L 8.988281 -25.765625 C 8.988281 -26.410156 8.875 -26.839844 8.65625 -27.0625 C 8.4375 -27.28125 8.042969 -27.390625 7.480469 -27.390625 C 6.917969 -27.390625 6.523438 -27.28125 6.304688 -27.0625 C 6.085938 -26.839844 5.972656 -26.410156 5.972656 -25.765625 L 5.972656 -3.324219 C 5.972656 -2.683594 6.09375 -2.242188 6.335938 -2 C 6.574219 -1.761719 7.015625 -1.640625 7.660156 -1.640625 Z M 7.660156 -1.640625 "/></g></g></g><g fill="#ffffff" fill-opacity="1"><g transform="translate(95.193326, 61.173484)"><g><path d="M 15.613281 2.589844 C 14.179688 2.589844 12.914062 2.203125 11.816406 1.433594 C 10.765625 0.695312 9.921875 -0.386719 9.289062 -1.8125 L -0.160156 -23.742188 C -0.667969 -24.984375 -0.847656 -26.164062 -0.703125 -27.289062 C -0.523438 -28.632812 0.109375 -29.710938 1.203125 -30.523438 C 2.191406 -31.253906 3.453125 -31.621094 4.988281 -31.621094 C 6.367188 -31.621094 7.523438 -31.273438 8.453125 -30.574219 C 9.335938 -29.914062 10.066406 -28.816406 10.644531 -27.289062 L 19.808594 -4.414062 L 11.746094 -4.414062 L 21.199219 -27.402344 C 21.777344 -28.875 22.519531 -29.9375 23.425781 -30.597656 C 24.371094 -31.28125 25.566406 -31.621094 27.011719 -31.621094 C 28.417969 -31.621094 29.578125 -31.21875 30.492188 -30.40625 C 31.382812 -29.617188 31.929688 -28.609375 32.128906 -27.382812 C 32.316406 -26.226562 32.121094 -25.023438 31.550781 -23.761719 L 21.945312 -1.824219 L 20.007812 -2.671875 L 21.964844 -1.875 C 21.375 -0.421875 20.542969 0.679688 19.472656 1.433594 C 18.375 2.203125 17.089844 2.589844 15.613281 2.589844 Z M 15.613281 -1.640625 C 16.195312 -1.640625 16.671875 -1.769531 17.039062 -2.027344 C 17.433594 -2.304688 17.769531 -2.785156 18.046875 -3.46875 L 18.058594 -3.496094 L 27.699219 -25.511719 C 27.917969 -25.996094 28.003906 -26.394531 27.953125 -26.703125 C 27.914062 -26.9375 27.828125 -27.117188 27.6875 -27.238281 C 27.574219 -27.339844 27.347656 -27.390625 27.011719 -27.390625 C 26.480469 -27.390625 26.113281 -27.316406 25.910156 -27.167969 C 25.667969 -26.996094 25.402344 -26.539062 25.109375 -25.792969 L 16.859375 -5.726562 L 14.902344 -6.53125 L 14.902344 -8.644531 L 16.683594 -8.644531 L 16.683594 -6.53125 L 14.71875 -5.742188 L 6.691406 -25.789062 C 6.398438 -26.554688 6.140625 -27.019531 5.914062 -27.191406 C 5.738281 -27.324219 5.425781 -27.390625 4.988281 -27.390625 C 4.382812 -27.390625 3.964844 -27.300781 3.722656 -27.125 C 3.589844 -27.027344 3.511719 -26.898438 3.492188 -26.738281 C 3.441406 -26.355469 3.519531 -25.914062 3.722656 -25.414062 L 13.152344 -3.53125 C 13.46875 -2.820312 13.835938 -2.316406 14.246094 -2.027344 C 14.613281 -1.769531 15.070312 -1.640625 15.613281 -1.640625 Z M 15.613281 -1.640625 "/></g></g></g><g fill="#ffffff" fill-opacity="1"><g transform="translate(126.480713, 61.173484)"><g><path d="M 7.539062 2.53125 C 5.71875 2.53125 4.28125 1.9375 3.226562 0.753906 C 2.238281 -0.359375 1.742188 -1.820312 1.742188 -3.621094 L 1.742188 -25.410156 C 1.742188 -27.261719 2.246094 -28.738281 3.246094 -29.835938 C 4.300781 -30.988281 5.730469 -31.5625 7.539062 -31.5625 C 9.335938 -31.5625 10.769531 -30.996094 11.839844 -29.859375 C 12.875 -28.757812 13.394531 -27.277344 13.394531 -25.410156 L 13.394531 -3.621094 C 13.394531 -1.820312 12.898438 -0.359375 11.910156 0.753906 C 10.855469 1.9375 9.398438 2.53125 7.539062 2.53125 Z M 7.539062 -1.699219 C 8.132812 -1.699219 8.535156 -1.820312 8.75 -2.058594 C 9.027344 -2.371094 9.164062 -2.890625 9.164062 -3.621094 L 9.164062 -25.410156 C 9.164062 -26.15625 9.03125 -26.671875 8.761719 -26.957031 C 8.527344 -27.207031 8.117188 -27.332031 7.539062 -27.332031 C 6.972656 -27.332031 6.582031 -27.214844 6.371094 -26.980469 C 6.105469 -26.691406 5.972656 -26.167969 5.972656 -25.410156 L 5.972656 -3.621094 C 5.972656 -2.890625 6.113281 -2.371094 6.390625 -2.058594 C 6.601562 -1.820312 6.984375 -1.699219 7.539062 -1.699219 Z M 7.539062 -32.851562 C 5.613281 -32.851562 4.066406 -33.378906 2.890625 -34.433594 C 1.652344 -35.546875 1.03125 -37.03125 1.03125 -38.886719 C 1.03125 -40.792969 1.660156 -42.296875 2.914062 -43.390625 C 4.085938 -44.410156 5.625 -44.921875 7.539062 -44.921875 C 9.503906 -44.921875 11.0625 -44.402344 12.214844 -43.371094 C 13.4375 -42.277344 14.046875 -40.785156 14.046875 -38.886719 C 14.046875 -37.042969 13.445312 -35.5625 12.238281 -34.453125 C 11.082031 -33.386719 9.515625 -32.851562 7.539062 -32.851562 Z M 7.539062 -37.082031 C 8.414062 -37.082031 9.023438 -37.242188 9.371094 -37.5625 C 9.667969 -37.835938 9.816406 -38.277344 9.816406 -38.886719 C 9.816406 -39.523438 9.675781 -39.96875 9.394531 -40.21875 C 9.042969 -40.53125 8.425781 -40.691406 7.539062 -40.691406 C 6.683594 -40.691406 6.066406 -40.527344 5.695312 -40.203125 C 5.40625 -39.949219 5.261719 -39.511719 5.261719 -38.886719 C 5.261719 -38.289062 5.414062 -37.855469 5.71875 -37.582031 C 6.085938 -37.25 6.695312 -37.082031 7.539062 -37.082031 Z M 7.539062 -37.082031 "/></g></g></g><g fill="#000000" fill-opacity="1"><g transform="translate(0.500002, 61.173484)"><g><path d="M 19 0.59375 C 17.257812 0.59375 15.515625 0.460938 13.765625 0.203125 C 12.023438 -0.046875 10.382812 -0.4375 8.84375 -0.96875 C 7.300781 -1.507812 5.914062 -2.175781 4.6875 -2.96875 C 3.976562 -3.445312 3.484375 -4.019531 3.203125 -4.6875 C 2.929688 -5.363281 2.84375 -6.023438 2.9375 -6.671875 C 3.039062 -7.328125 3.296875 -7.898438 3.703125 -8.390625 C 4.117188 -8.890625 4.644531 -9.195312 5.28125 -9.3125 C 5.914062 -9.4375 6.609375 -9.257812 7.359375 -8.78125 C 9.097656 -7.757812 10.9375 -7.007812 12.875 -6.53125 C 14.820312 -6.050781 16.863281 -5.8125 19 -5.8125 C 22.125 -5.8125 24.398438 -6.335938 25.828125 -7.390625 C 27.253906 -8.441406 27.96875 -9.796875 27.96875 -11.453125 C 27.96875 -12.835938 27.460938 -13.925781 26.453125 -14.71875 C 25.441406 -15.507812 23.707031 -16.164062 21.25 -16.6875 L 14.71875 -18.046875 C 10.957031 -18.835938 8.15625 -20.171875 6.3125 -22.046875 C 4.476562 -23.929688 3.5625 -26.421875 3.5625 -29.515625 C 3.5625 -31.453125 3.957031 -33.210938 4.75 -34.796875 C 5.539062 -36.378906 6.65625 -37.742188 8.09375 -38.890625 C 9.539062 -40.035156 11.265625 -40.914062 13.265625 -41.53125 C 15.265625 -42.144531 17.472656 -42.453125 19.890625 -42.453125 C 22.265625 -42.453125 24.519531 -42.15625 26.65625 -41.5625 C 28.789062 -40.96875 30.710938 -40.097656 32.421875 -38.953125 C 33.054688 -38.515625 33.476562 -37.976562 33.6875 -37.34375 C 33.90625 -36.707031 33.957031 -36.082031 33.84375 -35.46875 C 33.726562 -34.863281 33.453125 -34.34375 33.015625 -33.90625 C 32.578125 -33.46875 32.03125 -33.207031 31.375 -33.125 C 30.726562 -33.050781 29.988281 -33.25 29.15625 -33.71875 C 27.6875 -34.550781 26.195312 -35.144531 24.6875 -35.5 C 23.1875 -35.863281 21.566406 -36.046875 19.828125 -36.046875 C 18.003906 -36.046875 16.441406 -35.785156 15.140625 -35.265625 C 13.835938 -34.753906 12.835938 -34.03125 12.140625 -33.09375 C 11.453125 -32.164062 11.109375 -31.070312 11.109375 -29.8125 C 11.109375 -28.382812 11.582031 -27.242188 12.53125 -26.390625 C 13.476562 -25.535156 15.097656 -24.875 17.390625 -24.40625 L 23.875 -23.03125 C 27.789062 -22.207031 30.707031 -20.90625 32.625 -19.125 C 34.539062 -17.34375 35.5 -14.96875 35.5 -12 C 35.5 -10.09375 35.113281 -8.367188 34.34375 -6.828125 C 33.570312 -5.285156 32.460938 -3.957031 31.015625 -2.84375 C 29.578125 -1.738281 27.847656 -0.890625 25.828125 -0.296875 C 23.804688 0.296875 21.53125 0.59375 19 0.59375 Z M 19 0.59375 "/></g></g></g><g fill="#000000" fill-opacity="1"><g transform="translate(37.961758, 61.173484)"><g><path d="M 18.171875 0.59375 C 14.878906 0.59375 12.046875 -0.0195312 9.671875 -1.25 C 7.296875 -2.476562 5.460938 -4.21875 4.171875 -6.46875 C 2.890625 -8.726562 2.25 -11.398438 2.25 -14.484375 C 2.25 -17.492188 2.875 -20.125 4.125 -22.375 C 5.375 -24.632812 7.097656 -26.40625 9.296875 -27.6875 C 11.492188 -28.976562 13.992188 -29.625 16.796875 -29.625 C 18.859375 -29.625 20.707031 -29.285156 22.34375 -28.609375 C 23.988281 -27.941406 25.394531 -26.972656 26.5625 -25.703125 C 27.738281 -24.441406 28.628906 -22.910156 29.234375 -21.109375 C 29.847656 -19.304688 30.15625 -17.273438 30.15625 -15.015625 C 30.15625 -14.304688 29.90625 -13.765625 29.40625 -13.390625 C 28.914062 -13.015625 28.21875 -12.828125 27.3125 -12.828125 L 8.25 -12.828125 L 8.25 -17.09375 L 24.9375 -17.09375 L 23.984375 -16.203125 C 23.984375 -18.023438 23.71875 -19.550781 23.1875 -20.78125 C 22.65625 -22.007812 21.882812 -22.945312 20.875 -23.59375 C 19.863281 -24.25 18.601562 -24.578125 17.09375 -24.578125 C 15.4375 -24.578125 14.023438 -24.191406 12.859375 -23.421875 C 11.691406 -22.648438 10.800781 -21.5625 10.1875 -20.15625 C 9.570312 -18.75 9.265625 -17.078125 9.265625 -15.140625 L 9.265625 -14.71875 C 9.265625 -11.476562 10.023438 -9.054688 11.546875 -7.453125 C 13.066406 -5.847656 15.3125 -5.046875 18.28125 -5.046875 C 19.3125 -5.046875 20.46875 -5.171875 21.75 -5.421875 C 23.039062 -5.679688 24.257812 -6.128906 25.40625 -6.765625 C 26.238281 -7.242188 26.972656 -7.453125 27.609375 -7.390625 C 28.242188 -7.328125 28.75 -7.097656 29.125 -6.703125 C 29.5 -6.304688 29.722656 -5.820312 29.796875 -5.25 C 29.878906 -4.675781 29.769531 -4.09375 29.46875 -3.5 C 29.175781 -2.90625 28.675781 -2.390625 27.96875 -1.953125 C 26.582031 -1.085938 24.988281 -0.445312 23.1875 -0.03125 C 21.382812 0.382812 19.710938 0.59375 18.171875 0.59375 Z M 18.171875 0.59375 "/></g></g></g><g fill="#000000" fill-opacity="1"><g transform="translate(70.139674, 61.173484)"><g><path d="M 7.65625 0.46875 C 6.425781 0.46875 5.484375 0.144531 4.828125 -0.5 C 4.179688 -1.15625 3.859375 -2.097656 3.859375 -3.328125 L 3.859375 -25.765625 C 3.859375 -26.992188 4.175781 -27.925781 4.8125 -28.5625 C 5.445312 -29.195312 6.335938 -29.515625 7.484375 -29.515625 C 8.628906 -29.515625 9.519531 -29.195312 10.15625 -28.5625 C 10.789062 -27.925781 11.109375 -26.992188 11.109375 -25.765625 L 11.109375 -22.03125 L 10.515625 -22.03125 C 11.066406 -24.40625 12.148438 -26.203125 13.765625 -27.421875 C 15.390625 -28.648438 17.550781 -29.382812 20.25 -29.625 C 21.082031 -29.707031 21.742188 -29.5 22.234375 -29 C 22.734375 -28.507812 23.019531 -27.75 23.09375 -26.71875 C 23.175781 -25.726562 22.945312 -24.925781 22.40625 -24.3125 C 21.875 -23.695312 21.078125 -23.332031 20.015625 -23.21875 L 18.703125 -23.09375 C 16.285156 -22.851562 14.460938 -22.109375 13.234375 -20.859375 C 12.015625 -19.617188 11.40625 -17.867188 11.40625 -15.609375 L 11.40625 -3.328125 C 11.40625 -2.097656 11.085938 -1.15625 10.453125 -0.5 C 9.816406 0.144531 8.882812 0.46875 7.65625 0.46875 Z M 7.65625 0.46875 "/></g></g></g><g fill="#000000" fill-opacity="1"><g transform="translate(95.193326, 61.173484)"><g><path d="M 15.609375 0.46875 C 14.617188 0.46875 13.757812 0.210938 13.03125 -0.296875 C 12.300781 -0.804688 11.695312 -1.597656 11.21875 -2.671875 L 1.78125 -24.578125 C 1.425781 -25.453125 1.296875 -26.265625 1.390625 -27.015625 C 1.492188 -27.765625 1.851562 -28.367188 2.46875 -28.828125 C 3.082031 -29.285156 3.921875 -29.515625 4.984375 -29.515625 C 5.898438 -29.515625 6.632812 -29.304688 7.1875 -28.890625 C 7.738281 -28.472656 8.234375 -27.691406 8.671875 -26.546875 L 16.6875 -6.53125 L 14.90625 -6.53125 L 23.15625 -26.59375 C 23.59375 -27.707031 24.097656 -28.472656 24.671875 -28.890625 C 25.242188 -29.304688 26.023438 -29.515625 27.015625 -29.515625 C 27.890625 -29.515625 28.582031 -29.285156 29.09375 -28.828125 C 29.601562 -28.367188 29.914062 -27.773438 30.03125 -27.046875 C 30.15625 -26.316406 30.019531 -25.515625 29.625 -24.640625 L 20.015625 -2.671875 C 19.578125 -1.597656 18.988281 -0.804688 18.25 -0.296875 C 17.519531 0.210938 16.640625 0.46875 15.609375 0.46875 Z M 15.609375 0.46875 "/></g></g></g><g fill="#000000" fill-opacity="1"><g transform="translate(126.480713, 61.173484)"><g><path d="M 7.546875 0.421875 C 6.359375 0.421875 5.445312 0.0664062 4.8125 -0.640625 C 4.175781 -1.359375 3.859375 -2.351562 3.859375 -3.625 L 3.859375 -25.40625 C 3.859375 -26.71875 4.175781 -27.71875 4.8125 -28.40625 C 5.445312 -29.101562 6.359375 -29.453125 7.546875 -29.453125 C 8.734375 -29.453125 9.648438 -29.101562 10.296875 -28.40625 C 10.953125 -27.71875 11.28125 -26.71875 11.28125 -25.40625 L 11.28125 -3.625 C 11.28125 -2.351562 10.960938 -1.359375 10.328125 -0.640625 C 9.691406 0.0664062 8.765625 0.421875 7.546875 0.421875 Z M 7.546875 -34.96875 C 6.160156 -34.96875 5.078125 -35.3125 4.296875 -36 C 3.523438 -36.695312 3.140625 -37.660156 3.140625 -38.890625 C 3.140625 -40.160156 3.523438 -41.128906 4.296875 -41.796875 C 5.078125 -42.472656 6.160156 -42.8125 7.546875 -42.8125 C 8.960938 -42.8125 10.046875 -42.472656 10.796875 -41.796875 C 11.554688 -41.128906 11.9375 -40.160156 11.9375 -38.890625 C 11.9375 -37.660156 11.554688 -36.695312 10.796875 -36 C 10.046875 -35.3125 8.960938 -34.96875 7.546875 -34.96875 Z M 7.546875 -34.96875 "/></g></g></g></g></g><g transform="matrix(1, 0, 0, 1, 178, 260)"><g clip-path="url(#e5841eadcc)"><g fill="#ffffff" fill-opacity="1"><g transform="translate(0.62531, 61.173484)"><g><path d="M 19 0.59375 C 17.257812 0.59375 15.515625 0.460938 13.765625 0.203125 C 12.023438 -0.046875 10.382812 -0.4375 8.84375 -0.96875 C 7.300781 -1.507812 5.914062 -2.175781 4.6875 -2.96875 C 3.976562 -3.445312 3.484375 -4.019531 3.203125 -4.6875 C 2.929688 -5.363281 2.84375 -6.023438 2.9375 -6.671875 C 3.039062 -7.328125 3.296875 -7.898438 3.703125 -8.390625 C 4.117188 -8.890625 4.644531 -9.195312 5.28125 -9.3125 C 5.914062 -9.4375 6.609375 -9.257812 7.359375 -8.78125 C 9.097656 -7.757812 10.9375 -7.007812 12.875 -6.53125 C 14.820312 -6.050781 16.863281 -5.8125 19 -5.8125 C 22.125 -5.8125 24.398438 -6.335938 25.828125 -7.390625 C 27.253906 -8.441406 27.96875 -9.796875 27.96875 -11.453125 C 27.96875 -12.835938 27.460938 -13.925781 26.453125 -14.71875 C 25.441406 -15.507812 23.707031 -16.164062 21.25 -16.6875 L 14.71875 -18.046875 C 10.957031 -18.835938 8.15625 -20.171875 6.3125 -22.046875 C 4.476562 -23.929688 3.5625 -26.421875 3.5625 -29.515625 C 3.5625 -31.453125 3.957031 -33.210938 4.75 -34.796875 C 5.539062 -36.378906 6.65625 -37.742188 8.09375 -38.890625 C 9.539062 -40.035156 11.265625 -40.914062 13.265625 -41.53125 C 15.265625 -42.144531 17.472656 -42.453125 19.890625 -42.453125 C 22.265625 -42.453125 24.519531 -42.15625 26.65625 -41.5625 C 28.789062 -40.96875 30.710938 -40.097656 32.421875 -38.953125 C 33.054688 -38.515625 33.476562 -37.976562 33.6875 -37.34375 C 33.90625 -36.707031 33.957031 -36.082031 33.84375 -35.46875 C 33.726562 -34.863281 33.453125 -34.34375 33.015625 -33.90625 C 32.578125 -33.46875 32.03125 -33.207031 31.375 -33.125 C 30.726562 -33.050781 29.988281 -33.25 29.15625 -33.71875 C 27.6875 -34.550781 26.195312 -35.144531 24.6875 -35.5 C 23.1875 -35.863281 21.566406 -36.046875 19.828125 -36.046875 C 18.003906 -36.046875 16.441406 -35.785156 15.140625 -35.265625 C 13.835938 -34.753906 12.835938 -34.03125 12.140625 -33.09375 C 11.453125 -32.164062 11.109375 -31.070312 11.109375 -29.8125 C 11.109375 -28.382812 11.582031 -27.242188 12.53125 -26.390625 C 13.476562 -25.535156 15.097656 -24.875 17.390625 -24.40625 L 23.875 -23.03125 C 27.789062 -22.207031 30.707031 -20.90625 32.625 -19.125 C 34.539062 -17.34375 35.5 -14.96875 35.5 -12 C 35.5 -10.09375 35.113281 -8.367188 34.34375 -6.828125 C 33.570312 -5.285156 32.460938 -3.957031 31.015625 -2.84375 C 29.578125 -1.738281 27.847656 -0.890625 25.828125 -0.296875 C 23.804688 0.296875 21.53125 0.59375 19 0.59375 Z M 19 0.59375 "/></g></g></g><g fill="#ffffff" fill-opacity="1"><g transform="translate(38.087066, 61.173484)"><g><path d="M 13.421875 0.59375 C 11.316406 0.59375 9.441406 0.1875 7.796875 -0.625 C 6.160156 -1.4375 4.875 -2.535156 3.9375 -3.921875 C 3.007812 -5.304688 2.546875 -6.867188 2.546875 -8.609375 C 2.546875 -10.742188 3.097656 -12.4375 4.203125 -13.6875 C 5.316406 -14.9375 7.117188 -15.835938 9.609375 -16.390625 C 12.109375 -16.941406 15.457031 -17.21875 19.65625 -17.21875 L 22.625 -17.21875 L 22.625 -12.9375 L 19.71875 -12.9375 C 17.257812 -12.9375 15.296875 -12.816406 13.828125 -12.578125 C 12.367188 -12.347656 11.332031 -11.945312 10.71875 -11.375 C 10.101562 -10.800781 9.796875 -10 9.796875 -8.96875 C 9.796875 -7.65625 10.25 -6.582031 11.15625 -5.75 C 12.070312 -4.925781 13.34375 -4.515625 14.96875 -4.515625 C 16.269531 -4.515625 17.425781 -4.820312 18.4375 -5.4375 C 19.445312 -6.050781 20.25 -6.890625 20.84375 -7.953125 C 21.4375 -9.023438 21.734375 -10.253906 21.734375 -11.640625 L 21.734375 -18.46875 C 21.734375 -20.445312 21.296875 -21.867188 20.421875 -22.734375 C 19.554688 -23.609375 18.09375 -24.046875 16.03125 -24.046875 C 14.882812 -24.046875 13.644531 -23.90625 12.3125 -23.625 C 10.988281 -23.351562 9.597656 -22.878906 8.140625 -22.203125 C 7.378906 -21.847656 6.710938 -21.75 6.140625 -21.90625 C 5.566406 -22.0625 5.117188 -22.382812 4.796875 -22.875 C 4.484375 -23.375 4.328125 -23.921875 4.328125 -24.515625 C 4.328125 -25.109375 4.484375 -25.691406 4.796875 -26.265625 C 5.117188 -26.847656 5.65625 -27.273438 6.40625 -27.546875 C 8.226562 -28.296875 9.976562 -28.828125 11.65625 -29.140625 C 13.34375 -29.460938 14.878906 -29.625 16.265625 -29.625 C 19.117188 -29.625 21.460938 -29.1875 23.296875 -28.3125 C 25.140625 -27.445312 26.515625 -26.132812 27.421875 -24.375 C 28.335938 -22.613281 28.796875 -20.347656 28.796875 -17.578125 L 28.796875 -3.328125 C 28.796875 -2.097656 28.5 -1.15625 27.90625 -0.5 C 27.3125 0.144531 26.460938 0.46875 25.359375 0.46875 C 24.242188 0.46875 23.378906 0.144531 22.765625 -0.5 C 22.148438 -1.15625 21.84375 -2.097656 21.84375 -3.328125 L 21.84375 -6.171875 L 22.328125 -6.171875 C 22.046875 -4.785156 21.5 -3.585938 20.6875 -2.578125 C 19.875 -1.566406 18.851562 -0.785156 17.625 -0.234375 C 16.40625 0.316406 15.003906 0.59375 13.421875 0.59375 Z M 13.421875 0.59375 "/></g></g></g><g fill="#ffffff" fill-opacity="1"><g transform="translate(70.561842, 61.173484)"><g><path d="M 13.78125 0.59375 C 10.488281 0.59375 8.007812 -0.34375 6.34375 -2.21875 C 4.6875 -4.101562 3.859375 -6.867188 3.859375 -10.515625 L 3.859375 -38.59375 C 3.859375 -39.820312 4.175781 -40.75 4.8125 -41.375 C 5.445312 -42.007812 6.359375 -42.328125 7.546875 -42.328125 C 8.734375 -42.328125 9.648438 -42.007812 10.296875 -41.375 C 10.953125 -40.75 11.28125 -39.820312 11.28125 -38.59375 L 11.28125 -10.859375 C 11.28125 -9.046875 11.664062 -7.703125 12.4375 -6.828125 C 13.207031 -5.953125 14.304688 -5.515625 15.734375 -5.515625 C 16.046875 -5.515625 16.34375 -5.523438 16.625 -5.546875 C 16.90625 -5.566406 17.179688 -5.597656 17.453125 -5.640625 C 18.003906 -5.722656 18.378906 -5.570312 18.578125 -5.1875 C 18.773438 -4.8125 18.875 -4.050781 18.875 -2.90625 C 18.875 -1.914062 18.675781 -1.144531 18.28125 -0.59375 C 17.882812 -0.0390625 17.234375 0.296875 16.328125 0.421875 C 15.929688 0.453125 15.515625 0.488281 15.078125 0.53125 C 14.640625 0.570312 14.207031 0.59375 13.78125 0.59375 Z M 13.78125 0.59375 "/></g></g></g><g fill="#ffffff" fill-opacity="1"><g transform="translate(89.500509, 61.173484)"><g><path d="M 14.375 0.59375 C 11.957031 0.59375 9.957031 0.148438 8.375 -0.734375 C 6.789062 -1.628906 5.613281 -2.96875 4.84375 -4.75 C 4.070312 -6.53125 3.6875 -8.75 3.6875 -11.40625 L 3.6875 -25.765625 C 3.6875 -27.035156 4 -27.976562 4.625 -28.59375 C 5.257812 -29.207031 6.171875 -29.515625 7.359375 -29.515625 C 8.546875 -29.515625 9.46875 -29.207031 10.125 -28.59375 C 10.78125 -27.976562 11.109375 -27.035156 11.109375 -25.765625 L 11.109375 -11.28125 C 11.109375 -9.21875 11.519531 -7.691406 12.34375 -6.703125 C 13.175781 -5.710938 14.503906 -5.21875 16.328125 -5.21875 C 18.304688 -5.21875 19.925781 -5.898438 21.1875 -7.265625 C 22.457031 -8.640625 23.09375 -10.453125 23.09375 -12.703125 L 23.09375 -25.765625 C 23.09375 -27.035156 23.410156 -27.976562 24.046875 -28.59375 C 24.679688 -29.207031 25.59375 -29.515625 26.78125 -29.515625 C 27.96875 -29.515625 28.882812 -29.207031 29.53125 -28.59375 C 30.1875 -27.976562 30.515625 -27.035156 30.515625 -25.765625 L 30.515625 -3.328125 C 30.515625 -0.796875 29.304688 0.46875 26.890625 0.46875 C 25.742188 0.46875 24.851562 0.144531 24.21875 -0.5 C 23.59375 -1.15625 23.28125 -2.097656 23.28125 -3.328125 L 23.28125 -7.84375 L 24.109375 -6.0625 C 23.273438 -3.914062 22.015625 -2.269531 20.328125 -1.125 C 18.648438 0.0195312 16.664062 0.59375 14.375 0.59375 Z M 14.375 0.59375 "/></g></g></g><g fill="#ffffff" fill-opacity="1"><g transform="translate(123.87508, 61.173484)"><g><path d="M 15.015625 0.59375 C 12.484375 0.59375 10.257812 -0.0195312 8.34375 -1.25 C 6.425781 -2.476562 4.929688 -4.226562 3.859375 -6.5 C 2.785156 -8.78125 2.25 -11.460938 2.25 -14.546875 C 2.25 -17.671875 2.785156 -20.351562 3.859375 -22.59375 C 4.929688 -24.832031 6.425781 -26.5625 8.34375 -27.78125 C 10.257812 -29.007812 12.484375 -29.625 15.015625 -29.625 C 17.429688 -29.625 19.539062 -29.03125 21.34375 -27.84375 C 23.144531 -26.65625 24.363281 -25.09375 25 -23.15625 L 24.34375 -23.15625 L 24.34375 -38.59375 C 24.34375 -39.820312 24.660156 -40.75 25.296875 -41.375 C 25.929688 -42.007812 26.84375 -42.328125 28.03125 -42.328125 C 29.21875 -42.328125 30.132812 -42.007812 30.78125 -41.375 C 31.4375 -40.75 31.765625 -39.820312 31.765625 -38.59375 L 31.765625 -3.328125 C 31.765625 -2.097656 31.445312 -1.15625 30.8125 -0.5 C 30.175781 0.144531 29.265625 0.46875 28.078125 0.46875 C 26.890625 0.46875 25.976562 0.144531 25.34375 -0.5 C 24.71875 -1.15625 24.40625 -2.097656 24.40625 -3.328125 L 24.40625 -7.953125 L 25.0625 -6.171875 C 24.46875 -4.117188 23.257812 -2.476562 21.4375 -1.25 C 19.613281 -0.0195312 17.472656 0.59375 15.015625 0.59375 Z M 17.09375 -5.046875 C 18.5625 -5.046875 19.847656 -5.398438 20.953125 -6.109375 C 22.066406 -6.828125 22.929688 -7.890625 23.546875 -9.296875 C 24.160156 -10.703125 24.46875 -12.453125 24.46875 -14.546875 C 24.46875 -17.710938 23.789062 -20.078125 22.4375 -21.640625 C 21.09375 -23.203125 19.3125 -23.984375 17.09375 -23.984375 C 15.632812 -23.984375 14.347656 -23.632812 13.234375 -22.9375 C 12.128906 -22.25 11.269531 -21.203125 10.65625 -19.796875 C 10.039062 -18.390625 9.734375 -16.640625 9.734375 -14.546875 C 9.734375 -11.421875 10.40625 -9.054688 11.75 -7.453125 C 13.101562 -5.847656 14.882812 -5.046875 17.09375 -5.046875 Z M 17.09375 -5.046875 "/></g></g></g></g></g></svg>