<svg xmlns="http://www.w3.org/2000/svg" xmlns:xlink="http://www.w3.org/1999/xlink" width="500" zoomAndPan="magnify" viewBox="0 0 375 374.999991" height="500" preserveAspectRatio="xMidYMid meet" version="1.0"><defs><g/><clipPath id="b0f61d5f40"><path d="M 81.035156 37.5 L 293.964844 37.5 L 293.964844 250.433594 L 81.035156 250.433594 Z M 81.035156 37.5 " clip-rule="nonzero"/></clipPath><clipPath id="52dac4b975"><path d="M 223.675781 37.5 L 151.324219 37.5 C 150.332031 37.5 149.375 37.894531 148.671875 38.597656 C 147.96875 39.300781 147.574219 40.253906 147.574219 41.25 L 147.574219 100.292969 C 147.574219 101.285156 147.179688 102.238281 146.476562 102.941406 C 145.773438 103.644531 144.820312 104.042969 143.824219 104.042969 L 84.785156 104.042969 C 83.789062 104.042969 82.835938 104.4375 82.132812 105.140625 C 81.429688 105.84375 81.035156 106.796875 81.035156 107.792969 L 81.035156 180.140625 C 81.035156 181.136719 81.429688 182.089844 82.132812 182.792969 C 82.835938 183.496094 83.789062 183.890625 84.785156 183.890625 L 143.824219 183.890625 C 144.820312 183.890625 145.773438 184.285156 146.476562 184.988281 C 147.179688 185.691406 147.574219 186.644531 147.574219 187.640625 L 147.574219 246.683594 C 147.574219 247.675781 147.96875 248.628906 148.671875 249.332031 C 149.375 250.039062 150.332031 250.433594 151.324219 250.433594 L 223.675781 250.433594 C 224.667969 250.433594 225.625 250.039062 226.328125 249.332031 C 227.03125 248.628906 227.425781 247.675781 227.425781 246.683594 L 227.425781 187.640625 C 227.425781 186.644531 227.820312 185.691406 228.523438 184.988281 C 229.226562 184.285156 230.179688 183.890625 231.175781 183.890625 L 290.214844 183.890625 C 291.210938 183.890625 292.164062 183.496094 292.867188 182.792969 C 293.570312 182.089844 293.964844 181.136719 293.964844 180.140625 L 293.964844 107.792969 C 293.964844 106.796875 293.570312 105.84375 292.867188 105.140625 C 292.164062 104.4375 291.210938 104.042969 290.214844 104.042969 L 231.175781 104.042969 C 230.179688 104.042969 229.226562 103.644531 228.523438 102.941406 C 227.820312 102.238281 227.425781 101.285156 227.425781 100.292969 L 227.425781 41.25 C 227.425781 40.253906 227.03125 39.300781 226.328125 38.597656 C 225.625 37.894531 224.667969 37.5 223.675781 37.5 Z M 223.675781 37.5 " clip-rule="nonzero"/></clipPath><clipPath id="63f198eac3"><path d="M 0.0351562 0.5 L 212.964844 0.5 L 212.964844 213.433594 L 0.0351562 213.433594 Z M 0.0351562 0.5 " clip-rule="nonzero"/></clipPath><clipPath id="49689c4a9d"><path d="M 142.675781 0.5 L 70.324219 0.5 C 69.332031 0.5 68.375 0.894531 67.671875 1.597656 C 66.96875 2.300781 66.574219 3.253906 66.574219 4.25 L 66.574219 63.292969 C 66.574219 64.285156 66.179688 65.238281 65.476562 65.941406 C 64.773438 66.644531 63.820312 67.042969 62.824219 67.042969 L 3.785156 67.042969 C 2.789062 67.042969 1.835938 67.4375 1.132812 68.140625 C 0.429688 68.84375 0.0351562 69.796875 0.0351562 70.792969 L 0.0351562 143.140625 C 0.0351562 144.136719 0.429688 145.089844 1.132812 145.792969 C 1.835938 146.496094 2.789062 146.890625 3.785156 146.890625 L 62.824219 146.890625 C 63.820312 146.890625 64.773438 147.285156 65.476562 147.988281 C 66.179688 148.691406 66.574219 149.644531 66.574219 150.640625 L 66.574219 209.683594 C 66.574219 210.675781 66.96875 211.628906 67.671875 212.332031 C 68.375 213.039062 69.332031 213.433594 70.324219 213.433594 L 142.675781 213.433594 C 143.667969 213.433594 144.625 213.039062 145.328125 212.332031 C 146.03125 211.628906 146.425781 210.675781 146.425781 209.683594 L 146.425781 150.640625 C 146.425781 149.644531 146.820312 148.691406 147.523438 147.988281 C 148.226562 147.285156 149.179688 146.890625 150.175781 146.890625 L 209.214844 146.890625 C 210.210938 146.890625 211.164062 146.496094 211.867188 145.792969 C 212.570312 145.089844 212.964844 144.136719 212.964844 143.140625 L 212.964844 70.792969 C 212.964844 69.796875 212.570312 68.84375 211.867188 68.140625 C 211.164062 67.4375 210.210938 67.042969 209.214844 67.042969 L 150.175781 67.042969 C 149.179688 67.042969 148.226562 66.644531 147.523438 65.941406 C 146.820312 65.238281 146.425781 64.285156 146.425781 63.292969 L 146.425781 4.25 C 146.425781 3.253906 146.03125 2.300781 145.328125 1.597656 C 144.625 0.894531 143.667969 0.5 142.675781 0.5 Z M 142.675781 0.5 " clip-rule="nonzero"/></clipPath><clipPath id="970de6fdc6"><rect x="0" width="213" y="0" height="214"/></clipPath><clipPath id="b8493990ae"><path d="M 241.308594 49.980469 L 279.011719 49.980469 L 279.011719 87.683594 L 241.308594 87.683594 Z M 241.308594 49.980469 " clip-rule="nonzero"/></clipPath><clipPath id="28614556c5"><path d="M 265.730469 49.980469 L 254.589844 49.980469 C 253.761719 49.980469 253.089844 50.652344 253.089844 51.480469 L 253.089844 60.261719 C 253.089844 61.089844 252.421875 61.761719 251.589844 61.761719 L 242.808594 61.761719 C 241.980469 61.761719 241.308594 62.433594 241.308594 63.261719 L 241.308594 74.402344 C 241.308594 75.230469 241.980469 75.902344 242.808594 75.902344 L 251.589844 75.902344 C 252.421875 75.902344 253.089844 76.570312 253.089844 77.402344 L 253.089844 86.183594 C 253.089844 87.011719 253.761719 87.683594 254.589844 87.683594 L 265.730469 87.683594 C 266.558594 87.683594 267.230469 87.011719 267.230469 86.183594 L 267.230469 77.402344 C 267.230469 76.570312 267.902344 75.902344 268.730469 75.902344 L 277.511719 75.902344 C 278.339844 75.902344 279.011719 75.230469 279.011719 74.402344 L 279.011719 63.261719 C 279.011719 62.433594 278.339844 61.761719 277.511719 61.761719 L 268.730469 61.761719 C 267.902344 61.761719 267.230469 61.089844 267.230469 60.261719 L 267.230469 51.480469 C 267.230469 50.652344 266.558594 49.980469 265.730469 49.980469 Z M 265.730469 49.980469 " clip-rule="nonzero"/></clipPath><clipPath id="b6f0200b83"><path d="M 0.308594 0.980469 L 38.011719 0.980469 L 38.011719 38.683594 L 0.308594 38.683594 Z M 0.308594 0.980469 " clip-rule="nonzero"/></clipPath><clipPath id="08a3bb53f8"><path d="M 24.730469 0.980469 L 13.589844 0.980469 C 12.761719 0.980469 12.089844 1.652344 12.089844 2.480469 L 12.089844 11.261719 C 12.089844 12.089844 11.421875 12.761719 10.589844 12.761719 L 1.808594 12.761719 C 0.980469 12.761719 0.308594 13.433594 0.308594 14.261719 L 0.308594 25.402344 C 0.308594 26.230469 0.980469 26.902344 1.808594 26.902344 L 10.589844 26.902344 C 11.421875 26.902344 12.089844 27.570312 12.089844 28.402344 L 12.089844 37.183594 C 12.089844 38.011719 12.761719 38.683594 13.589844 38.683594 L 24.730469 38.683594 C 25.558594 38.683594 26.230469 38.011719 26.230469 37.183594 L 26.230469 28.402344 C 26.230469 27.570312 26.902344 26.902344 27.730469 26.902344 L 36.511719 26.902344 C 37.339844 26.902344 38.011719 26.230469 38.011719 25.402344 L 38.011719 14.261719 C 38.011719 13.433594 37.339844 12.761719 36.511719 12.761719 L 27.730469 12.761719 C 26.902344 12.761719 26.230469 12.089844 26.230469 11.261719 L 26.230469 2.480469 C 26.230469 1.652344 25.558594 0.980469 24.730469 0.980469 Z M 24.730469 0.980469 " clip-rule="nonzero"/></clipPath><clipPath id="d55b18775f"><rect x="0" width="39" y="0" height="39"/></clipPath><clipPath id="c1619d1d91"><path d="M 110 99 L 195 99 L 195 220 L 110 220 Z M 110 99 " clip-rule="nonzero"/></clipPath><clipPath id="4e7b3437be"><path d="M 148.25 87.683594 L 203.886719 108.058594 L 160.554688 226.375 L 104.917969 205.996094 Z M 148.25 87.683594 " clip-rule="nonzero"/></clipPath><clipPath id="fe66ec9502"><path d="M 148.25 87.683594 L 203.886719 108.058594 L 160.554688 226.375 L 104.917969 205.996094 Z M 148.25 87.683594 " clip-rule="nonzero"/></clipPath><clipPath id="2d19cf892a"><path d="M 173 137 L 268 137 L 268 267 L 173 267 Z M 173 137 " clip-rule="nonzero"/></clipPath><clipPath id="3d9d7a4a79"><path d="M 170.765625 155.679688 L 223.320312 133.609375 L 270.078125 244.9375 L 217.523438 267.011719 Z M 170.765625 155.679688 " clip-rule="nonzero"/></clipPath><clipPath id="279d38fad7"><path d="M 8 9 L 92 9 L 92 122 L 8 122 Z M 8 9 " clip-rule="nonzero"/></clipPath><clipPath id="36b0118e81"><path d="M -2.234375 18.679688 L 50.320312 -3.390625 L 97.078125 107.9375 L 44.523438 130.011719 Z M -2.234375 18.679688 " clip-rule="nonzero"/></clipPath><clipPath id="539cd18419"><path d="M 50.027344 -3.269531 L -2.527344 18.804688 L 44.230469 130.132812 L 96.785156 108.0625 Z M 50.027344 -3.269531 " clip-rule="nonzero"/></clipPath><clipPath id="505f2e5ba1"><rect x="0" width="95" y="0" height="130"/></clipPath><clipPath id="3c5d27dfad"><rect x="0" width="160" y="0" height="83"/></clipPath></defs><g clip-path="url(#b0f61d5f40)"><g clip-path="url(#52dac4b975)"><g transform="matrix(1, 0, 0, 1, 81, 37)"><g clip-path="url(#970de6fdc6)"><g clip-path="url(#63f198eac3)"><g clip-path="url(#49689c4a9d)"><path fill="#b10000" d="M 0.0351562 0.5 L 212.964844 0.5 L 212.964844 213.433594 L 0.0351562 213.433594 Z M 0.0351562 0.5 " fill-opacity="1" fill-rule="nonzero"/></g></g></g></g></g></g><g clip-path="url(#b8493990ae)"><g clip-path="url(#28614556c5)"><g transform="matrix(1, 0, 0, 1, 241, 49)"><g clip-path="url(#d55b18775f)"><g clip-path="url(#b6f0200b83)"><g clip-path="url(#08a3bb53f8)"><path fill="#b10000" d="M 0.308594 0.980469 L 38.011719 0.980469 L 38.011719 38.683594 L 0.308594 38.683594 Z M 0.308594 0.980469 " fill-opacity="1" fill-rule="nonzero"/></g></g></g></g></g></g><g clip-path="url(#c1619d1d91)"><g clip-path="url(#4e7b3437be)"><g clip-path="url(#fe66ec9502)"><path fill="#d5d5d5" d="M 110.328125 207.699219 C 116.242188 199.960938 120.269531 191.027344 125.683594 182.960938 C 130.328125 175.085938 135.230469 167.179688 138.089844 158.453125 C 139.8125 150.746094 138.0625 142.625 140.722656 135.074219 C 141.328125 130.664062 143.34375 126.105469 142.179688 121.679688 C 139.375 119.148438 138.886719 113.464844 144.054688 115.234375 C 148.660156 115.652344 149.230469 124.011719 150.988281 124.3125 C 153.839844 118.21875 156.5625 111.847656 161.605469 107.191406 C 164.527344 104.535156 166.84375 98.828125 171.476562 99.621094 C 176.425781 102.3125 170.773438 107.589844 169.003906 110.667969 C 167.363281 113.785156 162.09375 118.261719 163.339844 120.933594 C 168.257812 114.941406 174.300781 109.828125 180.492188 105.128906 C 185.097656 101.191406 189.226562 108.621094 184.144531 111.246094 C 179.226562 116.308594 173.691406 120.863281 169.917969 126.902344 C 167.585938 129.085938 169.132812 130.601562 171.035156 127.800781 C 175.324219 122.984375 180.410156 118.988281 184.925781 114.390625 C 188.140625 109.183594 194.132812 115.980469 189.269531 119.183594 C 185.542969 123.503906 181.25 127.296875 177.507812 131.589844 C 176.246094 133.386719 170.765625 140.421875 176.1875 137.550781 C 181.277344 134.675781 185.699219 130.847656 190.0625 127.003906 C 195.53125 123.769531 195.382812 131.804688 191.4375 133.71875 C 187.078125 138.652344 182.160156 143.050781 177.234375 147.386719 C 171.996094 154.625 168.460938 163.25 161.441406 169.089844 C 157.335938 171.515625 155.746094 175.96875 154.269531 180.261719 C 149.542969 193.148438 145.074219 206.128906 140.492188 219.070312 C 130.445312 215.273438 120.191406 211.933594 110.328125 207.695312 Z M 110.328125 207.699219 " fill-opacity="1" fill-rule="nonzero"/></g></g></g><g clip-path="url(#2d19cf892a)"><g clip-path="url(#3d9d7a4a79)"><g transform="matrix(1, 0, 0, 1, 173, 137)"><g clip-path="url(#505f2e5ba1)"><g clip-path="url(#279d38fad7)"><g clip-path="url(#36b0118e81)"><g clip-path="url(#539cd18419)"><path fill="#d5d5d5" d="M 91.464844 109.324219 C 85.488281 102.21875 81.257812 93.894531 75.746094 86.453125 C 70.976562 79.160156 65.953125 71.847656 62.847656 63.667969 C 60.863281 56.40625 62.167969 48.59375 59.300781 41.519531 C 58.527344 37.351562 56.40625 33.101562 57.320312 28.832031 C 59.878906 26.296875 60.089844 20.863281 55.25 22.777344 C 50.882812 23.378906 50.710938 31.367188 49.046875 31.730469 C 46.0625 26.050781 43.191406 20.105469 38.179688 15.894531 C 35.28125 13.496094 32.820312 8.164062 28.445312 9.128906 C 23.851562 11.910156 29.46875 16.683594 31.289062 19.535156 C 32.992188 22.429688 38.207031 26.460938 37.136719 29.058594 C 32.1875 23.574219 26.207031 18.972656 20.105469 14.773438 C 15.542969 11.226562 11.941406 18.484375 16.898438 20.757812 C 21.808594 25.363281 27.277344 29.453125 31.140625 35.035156 C 33.457031 37.011719 32.050781 38.523438 30.113281 35.941406 C 25.816406 31.542969 20.796875 27.964844 16.296875 23.789062 C 13.003906 18.972656 7.597656 25.710938 12.367188 28.542969 C 16.109375 32.492188 20.367188 35.914062 24.117188 39.835938 C 25.402344 41.492188 30.929688 47.945312 25.644531 45.453125 C 20.667969 42.941406 16.285156 39.492188 11.960938 36.023438 C 6.613281 33.191406 7.105469 40.835938 10.949219 42.480469 C 15.320312 46.984375 20.199219 50.953125 25.082031 54.863281 C 30.386719 61.523438 34.140625 69.578125 41.082031 74.832031 C 45.097656 76.957031 46.8125 81.128906 48.40625 85.148438 C 53.476562 97.210938 58.308594 109.375 63.246094 121.492188 C 72.644531 117.433594 82.257812 113.796875 91.464844 109.324219 Z M 91.464844 109.324219 " fill-opacity="1" fill-rule="nonzero"/></g></g></g></g></g></g></g><g fill="#b10000" fill-opacity="1"><g transform="translate(37.511721, 321.494511)"><g><path d="M 18.996094 2.707031 C 17.152344 2.707031 15.308594 2.574219 13.464844 2.300781 C 11.589844 2.023438 9.820312 1.597656 8.152344 1.019531 C 6.449219 0.429688 4.914062 -0.308594 3.542969 -1.191406 C 2.453125 -1.914062 1.691406 -2.8125 1.25 -3.882812 C 0.824219 -4.917969 0.691406 -5.957031 0.847656 -6.996094 C 1.003906 -8.039062 1.421875 -8.960938 2.089844 -9.761719 C 2.832031 -10.640625 3.765625 -11.1875 4.894531 -11.398438 C 6.070312 -11.621094 7.269531 -11.34375 8.492188 -10.574219 L 7.359375 -8.785156 L 8.4375 -10.605469 C 10 -9.683594 11.648438 -9.007812 13.382812 -8.585938 C 15.160156 -8.148438 17.027344 -7.933594 18.996094 -7.933594 C 21.660156 -7.933594 23.515625 -8.320312 24.570312 -9.09375 C 25.417969 -9.71875 25.84375 -10.507812 25.84375 -11.457031 C 25.84375 -12.15625 25.609375 -12.691406 25.140625 -13.058594 C 24.390625 -13.644531 22.949219 -14.164062 20.816406 -14.609375 L 14.289062 -15.976562 C 10.109375 -16.855469 6.949219 -18.386719 4.8125 -20.574219 C 2.566406 -22.863281 1.445312 -25.839844 1.445312 -29.503906 C 1.445312 -31.773438 1.917969 -33.851562 2.855469 -35.730469 C 3.789062 -37.59375 5.097656 -39.195312 6.789062 -40.539062 C 8.441406 -41.851562 10.394531 -42.855469 12.648438 -43.546875 C 14.847656 -44.222656 17.261719 -44.558594 19.886719 -44.558594 C 22.453125 -44.558594 24.898438 -44.238281 27.21875 -43.589844 C 29.578125 -42.9375 31.703125 -41.972656 33.59375 -40.695312 C 34.621094 -39.988281 35.320312 -39.101562 35.6875 -38.027344 C 36.027344 -37.035156 36.101562 -36.050781 35.914062 -35.066406 C 35.710938 -34.03125 35.242188 -33.140625 34.5 -32.402344 C 33.722656 -31.621094 32.765625 -31.164062 31.628906 -31.023438 C 30.511719 -30.890625 29.335938 -31.175781 28.097656 -31.882812 C 26.8125 -32.609375 25.515625 -33.132812 24.207031 -33.441406 C 22.863281 -33.757812 21.402344 -33.917969 19.828125 -33.917969 C 18.273438 -33.917969 16.96875 -33.710938 15.914062 -33.292969 C 14.980469 -32.925781 14.289062 -32.4375 13.835938 -31.832031 C 13.421875 -31.277344 13.214844 -30.597656 13.214844 -29.800781 C 13.214844 -29.003906 13.457031 -28.390625 13.9375 -27.960938 C 14.601562 -27.363281 15.898438 -26.867188 17.820312 -26.46875 L 24.300781 -25.101562 C 28.601562 -24.191406 31.851562 -22.710938 34.058594 -20.664062 C 36.429688 -18.464844 37.613281 -15.574219 37.613281 -11.992188 C 37.613281 -9.757812 37.152344 -7.722656 36.234375 -5.878906 C 35.316406 -4.046875 34.007812 -2.476562 32.304688 -1.171875 C 30.652344 0.0976562 28.691406 1.066406 26.417969 1.730469 C 24.207031 2.382812 21.730469 2.707031 18.996094 2.707031 Z M 18.996094 -1.519531 C 21.324219 -1.519531 23.402344 -1.789062 25.226562 -2.324219 C 26.992188 -2.84375 28.492188 -3.578125 29.730469 -4.527344 C 30.917969 -5.4375 31.824219 -6.519531 32.449219 -7.773438 C 33.074219 -9.019531 33.382812 -10.425781 33.382812 -11.992188 C 33.382812 -14.34375 32.648438 -16.203125 31.179688 -17.5625 C 29.546875 -19.082031 26.960938 -20.214844 23.425781 -20.964844 L 16.964844 -22.328125 C 14.296875 -22.878906 12.347656 -23.707031 11.113281 -24.8125 C 9.695312 -26.082031 8.984375 -27.746094 8.984375 -29.800781 C 8.984375 -31.535156 9.472656 -33.054688 10.441406 -34.359375 C 11.375 -35.609375 12.683594 -36.566406 14.363281 -37.230469 C 15.917969 -37.839844 17.738281 -38.148438 19.828125 -38.148438 C 21.734375 -38.148438 23.519531 -37.949219 25.183594 -37.558594 C 26.882812 -37.152344 28.554688 -36.488281 30.195312 -35.554688 C 30.621094 -35.3125 30.929688 -35.199219 31.117188 -35.222656 C 31.289062 -35.246094 31.417969 -35.300781 31.511719 -35.390625 C 31.640625 -35.523438 31.722656 -35.679688 31.761719 -35.871094 C 31.808594 -36.113281 31.785156 -36.375 31.6875 -36.652344 C 31.621094 -36.84375 31.46875 -37.023438 31.230469 -37.1875 C 29.71875 -38.207031 28.003906 -38.984375 26.085938 -39.515625 C 24.136719 -40.058594 22.070312 -40.328125 19.886719 -40.328125 C 17.683594 -40.328125 15.683594 -40.054688 13.886719 -39.503906 C 12.144531 -38.96875 10.65625 -38.207031 9.417969 -37.226562 C 8.21875 -36.273438 7.292969 -35.144531 6.640625 -33.839844 C 6 -32.554688 5.675781 -31.109375 5.675781 -29.503906 C 5.675781 -26.992188 6.394531 -25 7.832031 -23.53125 C 9.375 -21.957031 11.816406 -20.820312 15.15625 -20.117188 L 21.6875 -18.75 C 24.460938 -18.167969 26.484375 -17.378906 27.75 -16.386719 C 29.300781 -15.171875 30.074219 -13.527344 30.074219 -11.457031 C 30.074219 -9.082031 29.074219 -7.160156 27.078125 -5.6875 C 25.277344 -4.363281 22.585938 -3.703125 18.996094 -3.703125 C 16.6875 -3.703125 14.484375 -3.960938 12.378906 -4.476562 C 10.238281 -5 8.207031 -5.828125 6.285156 -6.964844 L 6.230469 -6.996094 C 6.042969 -7.117188 5.882812 -7.191406 5.75 -7.226562 C 5.707031 -7.238281 5.683594 -7.242188 5.671875 -7.242188 C 5.535156 -7.214844 5.421875 -7.148438 5.328125 -7.039062 C 5.167969 -6.847656 5.070312 -6.621094 5.03125 -6.363281 C 4.988281 -6.09375 5.03125 -5.804688 5.160156 -5.496094 C 5.273438 -5.21875 5.5 -4.96875 5.835938 -4.746094 C 6.921875 -4.046875 8.152344 -3.457031 9.535156 -2.976562 C 10.957031 -2.488281 12.46875 -2.121094 14.082031 -1.882812 C 15.71875 -1.640625 17.359375 -1.519531 18.996094 -1.519531 Z M 18.996094 -1.519531 "/></g></g></g><g fill="#b10000" fill-opacity="1"><g transform="translate(74.965038, 321.494511)"><g><path d="M 18.164062 2.707031 C 14.539062 2.707031 11.382812 2.015625 8.707031 0.632812 C 5.960938 -0.785156 3.839844 -2.804688 2.347656 -5.421875 C 0.875 -8.003906 0.140625 -11.023438 0.140625 -14.484375 C 0.140625 -17.855469 0.851562 -20.828125 2.273438 -23.402344 C 3.707031 -25.996094 5.691406 -28.035156 8.222656 -29.519531 C 10.746094 -30.996094 13.605469 -31.738281 16.800781 -31.738281 C 19.136719 -31.738281 21.253906 -31.347656 23.152344 -30.570312 C 25.082031 -29.777344 26.738281 -28.632812 28.121094 -27.136719 C 29.488281 -25.652344 30.527344 -23.867188 31.238281 -21.785156 C 31.925781 -19.761719 32.269531 -17.507812 32.269531 -15.019531 C 32.269531 -13.605469 31.746094 -12.5 30.695312 -11.703125 C 29.820312 -11.039062 28.691406 -10.707031 27.308594 -10.707031 L 6.136719 -10.707031 L 6.136719 -19.210938 L 30.28125 -19.210938 L 21.867188 -11.324219 L 21.867188 -16.207031 C 21.867188 -17.734375 21.660156 -18.976562 21.242188 -19.933594 C 20.878906 -20.769531 20.367188 -21.398438 19.71875 -21.820312 C 19.058594 -22.246094 18.183594 -22.460938 17.097656 -22.460938 C 15.859375 -22.460938 14.832031 -22.191406 14.019531 -21.652344 C 13.199219 -21.113281 12.566406 -20.328125 12.117188 -19.308594 C 11.625 -18.171875 11.375 -16.78125 11.375 -15.136719 L 11.375 -14.722656 C 11.375 -12.039062 11.941406 -10.101562 13.078125 -8.90625 C 14.1875 -7.742188 15.921875 -7.160156 18.285156 -7.160156 C 19.171875 -7.160156 20.191406 -7.277344 21.339844 -7.503906 C 22.414062 -7.71875 23.429688 -8.089844 24.386719 -8.621094 C 25.585938 -9.304688 26.722656 -9.597656 27.800781 -9.496094 C 28.960938 -9.386719 29.910156 -8.945312 30.652344 -8.164062 C 31.339844 -7.441406 31.753906 -6.566406 31.894531 -5.542969 C 32.035156 -4.535156 31.855469 -3.539062 31.363281 -2.554688 C 30.886719 -1.601562 30.121094 -0.800781 29.0625 -0.152344 C 27.492188 0.832031 25.6875 1.5625 23.65625 2.03125 C 21.699219 2.484375 19.867188 2.707031 18.164062 2.707031 Z M 18.164062 -1.519531 C 19.546875 -1.519531 21.0625 -1.710938 22.707031 -2.089844 C 24.273438 -2.453125 25.65625 -3.011719 26.855469 -3.761719 C 27.222656 -3.988281 27.464844 -4.214844 27.582031 -4.449219 C 27.683594 -4.652344 27.722656 -4.824219 27.703125 -4.964844 C 27.6875 -5.089844 27.648438 -5.183594 27.582031 -5.25 L 27.585938 -5.246094 C 27.550781 -5.265625 27.488281 -5.277344 27.40625 -5.285156 C 27.21875 -5.300781 26.890625 -5.179688 26.429688 -4.914062 C 25.089844 -4.175781 23.671875 -3.65625 22.171875 -3.359375 C 20.75 -3.074219 19.453125 -2.929688 18.285156 -2.929688 C 14.710938 -2.929688 11.953125 -3.953125 10.011719 -5.992188 C 8.101562 -8.003906 7.144531 -10.914062 7.144531 -14.722656 L 7.144531 -15.136719 C 7.144531 -17.371094 7.511719 -19.324219 8.242188 -21 C 9.023438 -22.785156 10.171875 -24.179688 11.6875 -25.183594 C 13.207031 -26.1875 15.011719 -26.691406 17.097656 -26.691406 C 19.015625 -26.691406 20.65625 -26.25 22.015625 -25.371094 C 23.382812 -24.488281 24.417969 -23.238281 25.121094 -21.621094 C 25.773438 -20.125 26.097656 -18.320312 26.097656 -16.207031 L 23.984375 -16.207031 L 22.535156 -17.75 L 23.484375 -18.640625 L 24.933594 -17.097656 L 24.933594 -14.980469 L 8.25 -14.980469 L 8.25 -17.097656 L 10.367188 -17.097656 L 10.367188 -12.824219 L 8.25 -12.824219 L 8.25 -14.9375 L 27.308594 -14.9375 C 27.742188 -14.9375 28.019531 -14.980469 28.132812 -15.070312 C 28.097656 -15.042969 28.070312 -15.003906 28.046875 -14.953125 C 28.039062 -14.9375 28.035156 -14.929688 28.035156 -14.925781 C 28.039062 -14.945312 28.042969 -14.976562 28.042969 -15.019531 C 28.042969 -17.039062 27.773438 -18.839844 27.234375 -20.421875 C 26.714844 -21.941406 25.976562 -23.222656 25.007812 -24.269531 C 24.054688 -25.304688 22.902344 -26.101562 21.546875 -26.65625 C 20.164062 -27.222656 18.578125 -27.507812 16.800781 -27.507812 C 14.371094 -27.507812 12.226562 -26.960938 10.359375 -25.867188 C 8.496094 -24.777344 7.035156 -23.273438 5.976562 -21.355469 C 4.90625 -19.417969 4.371094 -17.128906 4.371094 -14.484375 C 4.371094 -11.769531 4.921875 -9.449219 6.023438 -7.519531 C 7.101562 -5.625 8.644531 -4.160156 10.648438 -3.125 C 12.71875 -2.054688 15.222656 -1.519531 18.164062 -1.519531 Z M 18.164062 -1.519531 "/></g></g></g><g fill="#b10000" fill-opacity="1"><g transform="translate(107.135716, 321.494511)"><g><path d="M 7.65625 2.589844 C 5.847656 2.589844 4.410156 2.058594 3.34375 0.992188 C 2.277344 -0.0742188 1.742188 -1.511719 1.742188 -3.324219 L 1.742188 -25.761719 C 1.742188 -27.574219 2.265625 -29.003906 3.3125 -30.050781 C 4.359375 -31.09375 5.746094 -31.617188 7.480469 -31.617188 C 9.210938 -31.617188 10.601562 -31.09375 11.648438 -30.050781 C 12.691406 -29.003906 13.214844 -27.574219 13.214844 -25.761719 L 13.214844 -19.910156 L 7.84375 -19.910156 L 8.449219 -22.503906 C 9.117188 -25.375 10.46875 -27.578125 12.496094 -29.113281 C 14.441406 -30.582031 16.960938 -31.457031 20.058594 -31.730469 C 21.539062 -31.871094 22.761719 -31.457031 23.726562 -30.492188 C 24.589844 -29.628906 25.082031 -28.425781 25.199219 -26.875 C 25.328125 -25.300781 24.929688 -23.980469 24.003906 -22.917969 C 23.109375 -21.890625 21.855469 -21.289062 20.238281 -21.109375 L 18.890625 -20.984375 C 16.996094 -20.800781 15.613281 -20.265625 14.746094 -19.382812 C 13.921875 -18.546875 13.511719 -17.289062 13.511719 -15.613281 L 13.511719 -3.324219 C 13.511719 -1.527344 12.996094 -0.09375 11.964844 0.96875 C 10.917969 2.050781 9.480469 2.589844 7.65625 2.589844 Z M 7.65625 -1.640625 C 8.289062 -1.640625 8.710938 -1.753906 8.929688 -1.976562 C 9.164062 -2.21875 9.28125 -2.667969 9.28125 -3.324219 L 9.28125 -15.613281 C 9.28125 -18.445312 10.097656 -20.691406 11.730469 -22.347656 C 13.316406 -23.960938 15.574219 -24.910156 18.507812 -25.199219 L 19.773438 -25.3125 C 20.292969 -25.371094 20.640625 -25.5 20.8125 -25.699219 C 20.960938 -25.863281 21.015625 -26.148438 20.984375 -26.550781 C 20.945312 -27.058594 20.863281 -27.378906 20.734375 -27.503906 C 20.710938 -27.527344 20.609375 -27.53125 20.429688 -27.515625 C 18.140625 -27.3125 16.347656 -26.722656 15.046875 -25.738281 C 13.832031 -24.820312 13.003906 -23.421875 12.566406 -21.542969 L 10.507812 -22.023438 L 10.507812 -24.136719 L 11.101562 -24.136719 L 11.101562 -22.023438 L 8.984375 -22.023438 L 8.984375 -25.761719 C 8.984375 -26.40625 8.875 -26.835938 8.65625 -27.058594 C 8.433594 -27.277344 8.042969 -27.386719 7.480469 -27.386719 C 6.917969 -27.386719 6.523438 -27.277344 6.304688 -27.058594 C 6.082031 -26.835938 5.972656 -26.40625 5.972656 -25.761719 L 5.972656 -3.324219 C 5.972656 -2.679688 6.09375 -2.238281 6.332031 -2 C 6.574219 -1.761719 7.015625 -1.640625 7.65625 -1.640625 Z M 7.65625 -1.640625 "/></g></g></g><g fill="#b10000" fill-opacity="1"><g transform="translate(132.183948, 321.494511)"><g><path d="M 15.613281 2.589844 C 14.175781 2.589844 12.910156 2.203125 11.8125 1.433594 C 10.761719 0.695312 9.921875 -0.386719 9.285156 -1.8125 L -0.160156 -23.738281 C -0.667969 -24.980469 -0.851562 -26.164062 -0.703125 -27.285156 C -0.523438 -28.628906 0.109375 -29.707031 1.203125 -30.519531 C 2.191406 -31.25 3.453125 -31.617188 4.988281 -31.617188 C 6.367188 -31.617188 7.523438 -31.269531 8.453125 -30.570312 C 9.332031 -29.910156 10.0625 -28.816406 10.644531 -27.285156 L 19.804688 -4.414062 L 11.742188 -4.414062 L 21.195312 -27.398438 C 21.773438 -28.871094 22.515625 -29.933594 23.425781 -30.59375 C 24.367188 -31.277344 25.5625 -31.617188 27.011719 -31.617188 C 28.414062 -31.617188 29.574219 -31.214844 30.488281 -30.40625 C 31.378906 -29.617188 31.925781 -28.605469 32.125 -27.378906 C 32.3125 -26.226562 32.121094 -25.019531 31.546875 -23.761719 L 21.941406 -1.824219 L 20.003906 -2.671875 L 21.964844 -1.875 C 21.371094 -0.421875 20.539062 0.679688 19.46875 1.433594 C 18.371094 2.203125 17.085938 2.589844 15.613281 2.589844 Z M 15.613281 -1.640625 C 16.195312 -1.640625 16.671875 -1.769531 17.039062 -2.027344 C 17.429688 -2.304688 17.765625 -2.785156 18.046875 -3.46875 L 18.058594 -3.496094 L 27.695312 -25.511719 C 27.914062 -25.992188 28 -26.390625 27.949219 -26.699219 C 27.910156 -26.9375 27.824219 -27.113281 27.6875 -27.238281 C 27.570312 -27.335938 27.347656 -27.386719 27.011719 -27.386719 C 26.476562 -27.386719 26.109375 -27.3125 25.90625 -27.167969 C 25.667969 -26.992188 25.398438 -26.535156 25.109375 -25.789062 L 16.855469 -5.726562 L 14.898438 -6.53125 L 14.898438 -8.644531 L 16.679688 -8.644531 L 16.679688 -6.53125 L 14.71875 -5.742188 L 6.6875 -25.785156 C 6.398438 -26.550781 6.140625 -27.019531 5.914062 -27.1875 C 5.734375 -27.320312 5.425781 -27.386719 4.988281 -27.386719 C 4.382812 -27.386719 3.964844 -27.300781 3.722656 -27.121094 C 3.589844 -27.023438 3.511719 -26.894531 3.492188 -26.734375 C 3.441406 -26.351562 3.519531 -25.914062 3.722656 -25.414062 L 13.152344 -3.53125 C 13.46875 -2.820312 13.832031 -2.316406 14.246094 -2.027344 C 14.613281 -1.769531 15.070312 -1.640625 15.613281 -1.640625 Z M 15.613281 -1.640625 "/></g></g></g><g fill="#b10000" fill-opacity="1"><g transform="translate(163.464288, 321.494511)"><g><path d="M 7.539062 2.53125 C 5.71875 2.53125 4.28125 1.9375 3.226562 0.753906 C 2.238281 -0.359375 1.742188 -1.820312 1.742188 -3.621094 L 1.742188 -25.40625 C 1.742188 -27.261719 2.246094 -28.734375 3.246094 -29.832031 C 4.300781 -30.984375 5.730469 -31.558594 7.539062 -31.558594 C 9.335938 -31.558594 10.769531 -30.992188 11.839844 -29.855469 C 12.875 -28.757812 13.394531 -27.273438 13.394531 -25.40625 L 13.394531 -3.621094 C 13.394531 -1.820312 12.898438 -0.359375 11.910156 0.753906 C 10.855469 1.9375 9.398438 2.53125 7.539062 2.53125 Z M 7.539062 -1.699219 C 8.132812 -1.699219 8.535156 -1.820312 8.75 -2.058594 C 9.023438 -2.371094 9.164062 -2.890625 9.164062 -3.621094 L 9.164062 -25.40625 C 9.164062 -26.152344 9.03125 -26.667969 8.761719 -26.953125 C 8.523438 -27.203125 8.117188 -27.328125 7.539062 -27.328125 C 6.972656 -27.328125 6.582031 -27.210938 6.371094 -26.976562 C 6.105469 -26.6875 5.972656 -26.164062 5.972656 -25.40625 L 5.972656 -3.621094 C 5.972656 -2.890625 6.113281 -2.371094 6.390625 -2.058594 C 6.601562 -1.820312 6.984375 -1.699219 7.539062 -1.699219 Z M 7.539062 -32.847656 C 5.613281 -32.847656 4.066406 -33.375 2.890625 -34.429688 C 1.652344 -35.542969 1.03125 -37.027344 1.03125 -38.882812 C 1.03125 -40.789062 1.660156 -42.292969 2.914062 -43.386719 C 4.082031 -44.40625 5.625 -44.914062 7.539062 -44.914062 C 9.503906 -44.914062 11.0625 -44.398438 12.214844 -43.367188 C 13.4375 -42.273438 14.046875 -40.777344 14.046875 -38.882812 C 14.046875 -37.039062 13.445312 -35.558594 12.238281 -34.449219 C 11.078125 -33.382812 9.515625 -32.847656 7.539062 -32.847656 Z M 7.539062 -37.078125 C 8.414062 -37.078125 9.023438 -37.238281 9.371094 -37.558594 C 9.667969 -37.832031 9.816406 -38.273438 9.816406 -38.882812 C 9.816406 -39.519531 9.675781 -39.960938 9.394531 -40.214844 C 9.042969 -40.527344 8.425781 -40.683594 7.539062 -40.683594 C 6.683594 -40.683594 6.066406 -40.523438 5.695312 -40.195312 C 5.40625 -39.945312 5.261719 -39.507812 5.261719 -38.882812 C 5.261719 -38.285156 5.414062 -37.851562 5.714844 -37.578125 C 6.085938 -37.246094 6.695312 -37.078125 7.539062 -37.078125 Z M 7.539062 -37.078125 "/></g></g></g><g fill="#d5d5d5" fill-opacity="1"><g transform="translate(37.511721, 321.494511)"><g><path d="M 19 0.59375 C 17.257812 0.59375 15.515625 0.460938 13.765625 0.203125 C 12.023438 -0.046875 10.382812 -0.4375 8.84375 -0.96875 C 7.300781 -1.507812 5.914062 -2.175781 4.6875 -2.96875 C 3.976562 -3.445312 3.484375 -4.019531 3.203125 -4.6875 C 2.929688 -5.363281 2.84375 -6.023438 2.9375 -6.671875 C 3.039062 -7.328125 3.296875 -7.898438 3.703125 -8.390625 C 4.117188 -8.890625 4.644531 -9.195312 5.28125 -9.3125 C 5.914062 -9.4375 6.609375 -9.257812 7.359375 -8.78125 C 9.097656 -7.75 10.9375 -6.992188 12.875 -6.515625 C 14.820312 -6.046875 16.863281 -5.8125 19 -5.8125 C 22.125 -5.8125 24.394531 -6.335938 25.8125 -7.390625 C 27.238281 -8.441406 27.953125 -9.796875 27.953125 -11.453125 C 27.953125 -12.835938 27.445312 -13.925781 26.4375 -14.71875 C 25.4375 -15.507812 23.707031 -16.164062 21.25 -16.6875 L 14.71875 -18.046875 C 10.957031 -18.835938 8.15625 -20.171875 6.3125 -22.046875 C 4.476562 -23.929688 3.5625 -26.414062 3.5625 -29.5 C 3.5625 -31.4375 3.957031 -33.195312 4.75 -34.78125 C 5.539062 -36.363281 6.65625 -37.726562 8.09375 -38.875 C 9.539062 -40.03125 11.265625 -40.910156 13.265625 -41.515625 C 15.265625 -42.128906 17.472656 -42.4375 19.890625 -42.4375 C 22.265625 -42.4375 24.519531 -42.140625 26.65625 -41.546875 C 28.789062 -40.953125 30.707031 -40.082031 32.40625 -38.9375 C 33.039062 -38.5 33.46875 -37.960938 33.6875 -37.328125 C 33.90625 -36.703125 33.953125 -36.082031 33.828125 -35.46875 C 33.710938 -34.851562 33.4375 -34.328125 33 -33.890625 C 32.5625 -33.453125 32.015625 -33.191406 31.359375 -33.109375 C 30.710938 -33.035156 29.972656 -33.238281 29.140625 -33.71875 C 27.679688 -34.550781 26.195312 -35.144531 24.6875 -35.5 C 23.1875 -35.851562 21.566406 -36.03125 19.828125 -36.03125 C 18.003906 -36.03125 16.4375 -35.769531 15.125 -35.25 C 13.820312 -34.738281 12.820312 -34.019531 12.125 -33.09375 C 11.4375 -32.164062 11.09375 -31.066406 11.09375 -29.796875 C 11.09375 -28.367188 11.566406 -27.226562 12.515625 -26.375 C 13.472656 -25.53125 15.097656 -24.867188 17.390625 -24.390625 L 23.859375 -23.03125 C 27.773438 -22.195312 30.691406 -20.890625 32.609375 -19.109375 C 34.535156 -17.328125 35.5 -14.953125 35.5 -11.984375 C 35.5 -10.085938 35.113281 -8.367188 34.34375 -6.828125 C 33.570312 -5.285156 32.460938 -3.957031 31.015625 -2.84375 C 29.566406 -1.738281 27.832031 -0.890625 25.8125 -0.296875 C 23.800781 0.296875 21.53125 0.59375 19 0.59375 Z M 19 0.59375 "/></g></g></g><g fill="#d5d5d5" fill-opacity="1"><g transform="translate(74.965038, 321.494511)"><g><path d="M 18.15625 0.59375 C 14.875 0.59375 12.046875 -0.0195312 9.671875 -1.25 C 7.296875 -2.476562 5.460938 -4.21875 4.171875 -6.46875 C 2.890625 -8.726562 2.25 -11.398438 2.25 -14.484375 C 2.25 -17.492188 2.875 -20.125 4.125 -22.375 C 5.375 -24.632812 7.09375 -26.40625 9.28125 -27.6875 C 11.476562 -28.976562 13.984375 -29.625 16.796875 -29.625 C 18.859375 -29.625 20.707031 -29.285156 22.34375 -28.609375 C 23.988281 -27.941406 25.394531 -26.972656 26.5625 -25.703125 C 27.726562 -24.429688 28.617188 -22.894531 29.234375 -21.09375 C 29.847656 -19.300781 30.15625 -17.273438 30.15625 -15.015625 C 30.15625 -14.304688 29.90625 -13.765625 29.40625 -13.390625 C 28.914062 -13.015625 28.21875 -12.828125 27.3125 -12.828125 L 8.25 -12.828125 L 8.25 -17.09375 L 24.9375 -17.09375 L 23.984375 -16.203125 C 23.984375 -18.023438 23.710938 -19.546875 23.171875 -20.765625 C 22.640625 -21.992188 21.867188 -22.9375 20.859375 -23.59375 C 19.847656 -24.25 18.59375 -24.578125 17.09375 -24.578125 C 15.4375 -24.578125 14.019531 -24.191406 12.84375 -23.421875 C 11.675781 -22.648438 10.785156 -21.5625 10.171875 -20.15625 C 9.566406 -18.75 9.265625 -17.078125 9.265625 -15.140625 L 9.265625 -14.71875 C 9.265625 -11.476562 10.023438 -9.054688 11.546875 -7.453125 C 13.066406 -5.847656 15.3125 -5.046875 18.28125 -5.046875 C 19.3125 -5.046875 20.46875 -5.171875 21.75 -5.421875 C 23.039062 -5.679688 24.257812 -6.128906 25.40625 -6.765625 C 26.238281 -7.242188 26.96875 -7.453125 27.59375 -7.390625 C 28.226562 -7.328125 28.734375 -7.097656 29.109375 -6.703125 C 29.484375 -6.304688 29.710938 -5.820312 29.796875 -5.25 C 29.878906 -4.675781 29.769531 -4.09375 29.46875 -3.5 C 29.175781 -2.90625 28.671875 -2.390625 27.953125 -1.953125 C 26.566406 -1.085938 24.972656 -0.445312 23.171875 -0.03125 C 21.378906 0.382812 19.707031 0.59375 18.15625 0.59375 Z M 18.15625 0.59375 "/></g></g></g><g fill="#d5d5d5" fill-opacity="1"><g transform="translate(107.135716, 321.494511)"><g><path d="M 7.65625 0.46875 C 6.425781 0.46875 5.484375 0.144531 4.828125 -0.5 C 4.179688 -1.15625 3.859375 -2.097656 3.859375 -3.328125 L 3.859375 -25.765625 C 3.859375 -26.992188 4.175781 -27.921875 4.8125 -28.546875 C 5.445312 -29.179688 6.335938 -29.5 7.484375 -29.5 C 8.628906 -29.5 9.515625 -29.179688 10.140625 -28.546875 C 10.773438 -27.921875 11.09375 -26.992188 11.09375 -25.765625 L 11.09375 -22.015625 L 10.5 -22.015625 C 11.0625 -24.390625 12.148438 -26.191406 13.765625 -27.421875 C 15.390625 -28.648438 17.546875 -29.382812 20.234375 -29.625 C 21.066406 -29.695312 21.726562 -29.484375 22.21875 -28.984375 C 22.71875 -28.492188 23.007812 -27.738281 23.09375 -26.71875 C 23.164062 -25.726562 22.9375 -24.925781 22.40625 -24.3125 C 21.875 -23.695312 21.070312 -23.328125 20 -23.203125 L 18.703125 -23.09375 C 16.285156 -22.851562 14.460938 -22.109375 13.234375 -20.859375 C 12.003906 -19.617188 11.390625 -17.867188 11.390625 -15.609375 L 11.390625 -3.328125 C 11.390625 -2.097656 11.070312 -1.15625 10.4375 -0.5 C 9.8125 0.144531 8.882812 0.46875 7.65625 0.46875 Z M 7.65625 0.46875 "/></g></g></g><g fill="#d5d5d5" fill-opacity="1"><g transform="translate(132.183948, 321.494511)"><g><path d="M 15.609375 0.46875 C 14.617188 0.46875 13.757812 0.210938 13.03125 -0.296875 C 12.300781 -0.804688 11.695312 -1.597656 11.21875 -2.671875 L 1.78125 -24.578125 C 1.425781 -25.441406 1.296875 -26.25 1.390625 -27 C 1.492188 -27.757812 1.851562 -28.363281 2.46875 -28.8125 C 3.082031 -29.269531 3.921875 -29.5 4.984375 -29.5 C 5.890625 -29.5 6.617188 -29.289062 7.171875 -28.875 C 7.734375 -28.457031 8.234375 -27.675781 8.671875 -26.53125 L 16.6875 -6.53125 L 14.90625 -6.53125 L 23.15625 -26.59375 C 23.582031 -27.695312 24.082031 -28.457031 24.65625 -28.875 C 25.238281 -29.289062 26.023438 -29.5 27.015625 -29.5 C 27.878906 -29.5 28.566406 -29.269531 29.078125 -28.8125 C 29.597656 -28.363281 29.914062 -27.769531 30.03125 -27.03125 C 30.15625 -26.300781 30.019531 -25.503906 29.625 -24.640625 L 20 -2.671875 C 19.5625 -1.597656 18.976562 -0.804688 18.25 -0.296875 C 17.519531 0.210938 16.640625 0.46875 15.609375 0.46875 Z M 15.609375 0.46875 "/></g></g></g><g fill="#d5d5d5" fill-opacity="1"><g transform="translate(163.464288, 321.494511)"><g><path d="M 7.53125 0.421875 C 6.351562 0.421875 5.445312 0.0664062 4.8125 -0.640625 C 4.175781 -1.359375 3.859375 -2.351562 3.859375 -3.625 L 3.859375 -25.40625 C 3.859375 -26.707031 4.175781 -27.703125 4.8125 -28.390625 C 5.445312 -29.085938 6.351562 -29.4375 7.53125 -29.4375 C 8.71875 -29.4375 9.640625 -29.085938 10.296875 -28.390625 C 10.953125 -27.703125 11.28125 -26.707031 11.28125 -25.40625 L 11.28125 -3.625 C 11.28125 -2.351562 10.960938 -1.359375 10.328125 -0.640625 C 9.691406 0.0664062 8.757812 0.421875 7.53125 0.421875 Z M 7.53125 -34.96875 C 6.15625 -34.96875 5.078125 -35.3125 4.296875 -36 C 3.523438 -36.695312 3.140625 -37.65625 3.140625 -38.875 C 3.140625 -40.144531 3.523438 -41.113281 4.296875 -41.78125 C 5.078125 -42.457031 6.15625 -42.796875 7.53125 -42.796875 C 8.957031 -42.796875 10.046875 -42.457031 10.796875 -41.78125 C 11.554688 -41.113281 11.9375 -40.144531 11.9375 -38.875 C 11.9375 -37.65625 11.554688 -36.695312 10.796875 -36 C 10.046875 -35.3125 8.957031 -34.96875 7.53125 -34.96875 Z M 7.53125 -34.96875 "/></g></g></g><g transform="matrix(1, 0, 0, 1, 178, 260)"><g clip-path="url(#3c5d27dfad)"><g fill="#b10000" fill-opacity="1"><g transform="translate(0.62531, 61.173542)"><g><path d="M 19 0.59375 C 17.257812 0.59375 15.515625 0.460938 13.765625 0.203125 C 12.023438 -0.046875 10.382812 -0.4375 8.84375 -0.96875 C 7.300781 -1.507812 5.914062 -2.175781 4.6875 -2.96875 C 3.976562 -3.445312 3.484375 -4.019531 3.203125 -4.6875 C 2.929688 -5.363281 2.84375 -6.023438 2.9375 -6.671875 C 3.039062 -7.328125 3.296875 -7.898438 3.703125 -8.390625 C 4.117188 -8.890625 4.644531 -9.195312 5.28125 -9.3125 C 5.914062 -9.4375 6.609375 -9.257812 7.359375 -8.78125 C 9.097656 -7.757812 10.9375 -7.007812 12.875 -6.53125 C 14.820312 -6.050781 16.863281 -5.8125 19 -5.8125 C 22.125 -5.8125 24.398438 -6.335938 25.828125 -7.390625 C 27.253906 -8.441406 27.96875 -9.796875 27.96875 -11.453125 C 27.96875 -12.835938 27.460938 -13.925781 26.453125 -14.71875 C 25.441406 -15.507812 23.707031 -16.164062 21.25 -16.6875 L 14.71875 -18.046875 C 10.957031 -18.835938 8.15625 -20.171875 6.3125 -22.046875 C 4.476562 -23.929688 3.5625 -26.421875 3.5625 -29.515625 C 3.5625 -31.453125 3.957031 -33.210938 4.75 -34.796875 C 5.539062 -36.378906 6.65625 -37.742188 8.09375 -38.890625 C 9.539062 -40.035156 11.265625 -40.914062 13.265625 -41.53125 C 15.265625 -42.144531 17.472656 -42.453125 19.890625 -42.453125 C 22.265625 -42.453125 24.519531 -42.15625 26.65625 -41.5625 C 28.789062 -40.96875 30.710938 -40.097656 32.421875 -38.953125 C 33.054688 -38.515625 33.476562 -37.976562 33.6875 -37.34375 C 33.90625 -36.707031 33.957031 -36.082031 33.84375 -35.46875 C 33.726562 -34.863281 33.453125 -34.34375 33.015625 -33.90625 C 32.578125 -33.46875 32.03125 -33.207031 31.375 -33.125 C 30.726562 -33.050781 29.988281 -33.25 29.15625 -33.71875 C 27.6875 -34.550781 26.195312 -35.144531 24.6875 -35.5 C 23.1875 -35.863281 21.566406 -36.046875 19.828125 -36.046875 C 18.003906 -36.046875 16.441406 -35.785156 15.140625 -35.265625 C 13.835938 -34.753906 12.835938 -34.03125 12.140625 -33.09375 C 11.453125 -32.164062 11.109375 -31.070312 11.109375 -29.8125 C 11.109375 -28.382812 11.582031 -27.242188 12.53125 -26.390625 C 13.476562 -25.535156 15.097656 -24.875 17.390625 -24.40625 L 23.875 -23.03125 C 27.789062 -22.207031 30.707031 -20.90625 32.625 -19.125 C 34.539062 -17.34375 35.5 -14.96875 35.5 -12 C 35.5 -10.09375 35.113281 -8.367188 34.34375 -6.828125 C 33.570312 -5.285156 32.460938 -3.957031 31.015625 -2.84375 C 29.578125 -1.738281 27.847656 -0.890625 25.828125 -0.296875 C 23.804688 0.296875 21.53125 0.59375 19 0.59375 Z M 19 0.59375 "/></g></g></g><g fill="#b10000" fill-opacity="1"><g transform="translate(38.087066, 61.173542)"><g><path d="M 13.421875 0.59375 C 11.316406 0.59375 9.441406 0.1875 7.796875 -0.625 C 6.160156 -1.4375 4.875 -2.535156 3.9375 -3.921875 C 3.007812 -5.304688 2.546875 -6.867188 2.546875 -8.609375 C 2.546875 -10.742188 3.097656 -12.4375 4.203125 -13.6875 C 5.316406 -14.9375 7.117188 -15.835938 9.609375 -16.390625 C 12.109375 -16.941406 15.457031 -17.21875 19.65625 -17.21875 L 22.625 -17.21875 L 22.625 -12.9375 L 19.71875 -12.9375 C 17.257812 -12.9375 15.296875 -12.816406 13.828125 -12.578125 C 12.367188 -12.347656 11.332031 -11.945312 10.71875 -11.375 C 10.101562 -10.800781 9.796875 -10 9.796875 -8.96875 C 9.796875 -7.65625 10.25 -6.582031 11.15625 -5.75 C 12.070312 -4.925781 13.34375 -4.515625 14.96875 -4.515625 C 16.269531 -4.515625 17.425781 -4.820312 18.4375 -5.4375 C 19.445312 -6.050781 20.25 -6.890625 20.84375 -7.953125 C 21.4375 -9.023438 21.734375 -10.253906 21.734375 -11.640625 L 21.734375 -18.46875 C 21.734375 -20.445312 21.296875 -21.867188 20.421875 -22.734375 C 19.554688 -23.609375 18.09375 -24.046875 16.03125 -24.046875 C 14.882812 -24.046875 13.644531 -23.90625 12.3125 -23.625 C 10.988281 -23.351562 9.597656 -22.878906 8.140625 -22.203125 C 7.378906 -21.847656 6.710938 -21.75 6.140625 -21.90625 C 5.566406 -22.0625 5.117188 -22.382812 4.796875 -22.875 C 4.484375 -23.375 4.328125 -23.921875 4.328125 -24.515625 C 4.328125 -25.109375 4.484375 -25.691406 4.796875 -26.265625 C 5.117188 -26.847656 5.65625 -27.273438 6.40625 -27.546875 C 8.226562 -28.296875 9.976562 -28.828125 11.65625 -29.140625 C 13.34375 -29.460938 14.878906 -29.625 16.265625 -29.625 C 19.117188 -29.625 21.460938 -29.1875 23.296875 -28.3125 C 25.140625 -27.445312 26.515625 -26.132812 27.421875 -24.375 C 28.335938 -22.613281 28.796875 -20.347656 28.796875 -17.578125 L 28.796875 -3.328125 C 28.796875 -2.097656 28.5 -1.15625 27.90625 -0.5 C 27.3125 0.144531 26.460938 0.46875 25.359375 0.46875 C 24.242188 0.46875 23.378906 0.144531 22.765625 -0.5 C 22.148438 -1.15625 21.84375 -2.097656 21.84375 -3.328125 L 21.84375 -6.171875 L 22.328125 -6.171875 C 22.046875 -4.785156 21.5 -3.585938 20.6875 -2.578125 C 19.875 -1.566406 18.851562 -0.785156 17.625 -0.234375 C 16.40625 0.316406 15.003906 0.59375 13.421875 0.59375 Z M 13.421875 0.59375 "/></g></g></g><g fill="#b10000" fill-opacity="1"><g transform="translate(70.561842, 61.173542)"><g><path d="M 13.78125 0.59375 C 10.488281 0.59375 8.007812 -0.34375 6.34375 -2.21875 C 4.6875 -4.101562 3.859375 -6.867188 3.859375 -10.515625 L 3.859375 -38.59375 C 3.859375 -39.820312 4.175781 -40.75 4.8125 -41.375 C 5.445312 -42.007812 6.359375 -42.328125 7.546875 -42.328125 C 8.734375 -42.328125 9.648438 -42.007812 10.296875 -41.375 C 10.953125 -40.75 11.28125 -39.820312 11.28125 -38.59375 L 11.28125 -10.859375 C 11.28125 -9.046875 11.664062 -7.703125 12.4375 -6.828125 C 13.207031 -5.953125 14.304688 -5.515625 15.734375 -5.515625 C 16.046875 -5.515625 16.34375 -5.523438 16.625 -5.546875 C 16.90625 -5.566406 17.179688 -5.597656 17.453125 -5.640625 C 18.003906 -5.722656 18.378906 -5.570312 18.578125 -5.1875 C 18.773438 -4.8125 18.875 -4.050781 18.875 -2.90625 C 18.875 -1.914062 18.675781 -1.144531 18.28125 -0.59375 C 17.882812 -0.0390625 17.234375 0.296875 16.328125 0.421875 C 15.929688 0.453125 15.515625 0.488281 15.078125 0.53125 C 14.640625 0.570312 14.207031 0.59375 13.78125 0.59375 Z M 13.78125 0.59375 "/></g></g></g><g fill="#b10000" fill-opacity="1"><g transform="translate(89.500509, 61.173542)"><g><path d="M 14.375 0.59375 C 11.957031 0.59375 9.957031 0.148438 8.375 -0.734375 C 6.789062 -1.628906 5.613281 -2.96875 4.84375 -4.75 C 4.070312 -6.53125 3.6875 -8.75 3.6875 -11.40625 L 3.6875 -25.765625 C 3.6875 -27.035156 4 -27.976562 4.625 -28.59375 C 5.257812 -29.207031 6.171875 -29.515625 7.359375 -29.515625 C 8.546875 -29.515625 9.46875 -29.207031 10.125 -28.59375 C 10.78125 -27.976562 11.109375 -27.035156 11.109375 -25.765625 L 11.109375 -11.28125 C 11.109375 -9.21875 11.519531 -7.691406 12.34375 -6.703125 C 13.175781 -5.710938 14.503906 -5.21875 16.328125 -5.21875 C 18.304688 -5.21875 19.925781 -5.898438 21.1875 -7.265625 C 22.457031 -8.640625 23.09375 -10.453125 23.09375 -12.703125 L 23.09375 -25.765625 C 23.09375 -27.035156 23.410156 -27.976562 24.046875 -28.59375 C 24.679688 -29.207031 25.59375 -29.515625 26.78125 -29.515625 C 27.96875 -29.515625 28.882812 -29.207031 29.53125 -28.59375 C 30.1875 -27.976562 30.515625 -27.035156 30.515625 -25.765625 L 30.515625 -3.328125 C 30.515625 -0.796875 29.304688 0.46875 26.890625 0.46875 C 25.742188 0.46875 24.851562 0.144531 24.21875 -0.5 C 23.59375 -1.15625 23.28125 -2.097656 23.28125 -3.328125 L 23.28125 -7.84375 L 24.109375 -6.0625 C 23.273438 -3.914062 22.015625 -2.269531 20.328125 -1.125 C 18.648438 0.0195312 16.664062 0.59375 14.375 0.59375 Z M 14.375 0.59375 "/></g></g></g><g fill="#b10000" fill-opacity="1"><g transform="translate(123.87508, 61.173542)"><g><path d="M 15.015625 0.59375 C 12.484375 0.59375 10.257812 -0.0195312 8.34375 -1.25 C 6.425781 -2.476562 4.929688 -4.226562 3.859375 -6.5 C 2.785156 -8.78125 2.25 -11.460938 2.25 -14.546875 C 2.25 -17.671875 2.785156 -20.351562 3.859375 -22.59375 C 4.929688 -24.832031 6.425781 -26.5625 8.34375 -27.78125 C 10.257812 -29.007812 12.484375 -29.625 15.015625 -29.625 C 17.429688 -29.625 19.539062 -29.03125 21.34375 -27.84375 C 23.144531 -26.65625 24.363281 -25.09375 25 -23.15625 L 24.34375 -23.15625 L 24.34375 -38.59375 C 24.34375 -39.820312 24.660156 -40.75 25.296875 -41.375 C 25.929688 -42.007812 26.84375 -42.328125 28.03125 -42.328125 C 29.21875 -42.328125 30.132812 -42.007812 30.78125 -41.375 C 31.4375 -40.75 31.765625 -39.820312 31.765625 -38.59375 L 31.765625 -3.328125 C 31.765625 -2.097656 31.445312 -1.15625 30.8125 -0.5 C 30.175781 0.144531 29.265625 0.46875 28.078125 0.46875 C 26.890625 0.46875 25.976562 0.144531 25.34375 -0.5 C 24.71875 -1.15625 24.40625 -2.097656 24.40625 -3.328125 L 24.40625 -7.953125 L 25.0625 -6.171875 C 24.46875 -4.117188 23.257812 -2.476562 21.4375 -1.25 C 19.613281 -0.0195312 17.472656 0.59375 15.015625 0.59375 Z M 17.09375 -5.046875 C 18.5625 -5.046875 19.847656 -5.398438 20.953125 -6.109375 C 22.066406 -6.828125 22.929688 -7.890625 23.546875 -9.296875 C 24.160156 -10.703125 24.46875 -12.453125 24.46875 -14.546875 C 24.46875 -17.710938 23.789062 -20.078125 22.4375 -21.640625 C 21.09375 -23.203125 19.3125 -23.984375 17.09375 -23.984375 C 15.632812 -23.984375 14.347656 -23.632812 13.234375 -22.9375 C 12.128906 -22.25 11.269531 -21.203125 10.65625 -19.796875 C 10.039062 -18.390625 9.734375 -16.640625 9.734375 -14.546875 C 9.734375 -11.421875 10.40625 -9.054688 11.75 -7.453125 C 13.101562 -5.847656 14.882812 -5.046875 17.09375 -5.046875 Z M 17.09375 -5.046875 "/></g></g></g></g></g></svg>