<svg xmlns="http://www.w3.org/2000/svg" xmlns:xlink="http://www.w3.org/1999/xlink" width="500" zoomAndPan="magnify" viewBox="0 0 375 374.999991" height="500" preserveAspectRatio="xMidYMid meet" version="1.0"><defs><clipPath id="8783e553f9"><path d="M 60.128906 139 L 77 139 L 77 157 L 60.128906 157 Z M 60.128906 139 " clip-rule="nonzero"/></clipPath><clipPath id="9f21eabfc5"><path d="M 60.128906 199 L 88 199 L 88 230 L 60.128906 230 Z M 60.128906 199 " clip-rule="nonzero"/></clipPath><clipPath id="95014ca344"><path d="M 167 108.457031 L 220 108.457031 L 220 184 L 167 184 Z M 167 108.457031 " clip-rule="nonzero"/></clipPath><clipPath id="9a5c7ca04d"><path d="M 297 200 L 314.890625 200 L 314.890625 229 L 297 229 Z M 297 200 " clip-rule="nonzero"/></clipPath><clipPath id="b53dfbb469"><path d="M 298 139 L 314.890625 139 L 314.890625 157 L 298 157 Z M 298 139 " clip-rule="nonzero"/></clipPath><clipPath id="9a1c3310a3"><path d="M 85 237 L 106 237 L 106 266.707031 L 85 266.707031 Z M 85 237 " clip-rule="nonzero"/></clipPath><clipPath id="c1407032d5"><path d="M 110 237 L 133 237 L 133 266.707031 L 110 266.707031 Z M 110 237 " clip-rule="nonzero"/></clipPath><clipPath id="fbb2235dfb"><path d="M 134 237 L 162 237 L 162 266.707031 L 134 266.707031 Z M 134 237 " clip-rule="nonzero"/></clipPath><clipPath id="84a3d65fef"><path d="M 164 237 L 191 237 L 191 266.707031 L 164 266.707031 Z M 164 237 " clip-rule="nonzero"/></clipPath><clipPath id="1f61034ebf"><path d="M 194 237 L 199 237 L 199 266.707031 L 194 266.707031 Z M 194 237 " clip-rule="nonzero"/></clipPath><clipPath id="5fd1e80892"><path d="M 205 237 L 228 237 L 228 266.707031 L 205 266.707031 Z M 205 237 " clip-rule="nonzero"/></clipPath><clipPath id="17fe765d93"><path d="M 233 237 L 256 237 L 256 266.707031 L 233 266.707031 Z M 233 237 " clip-rule="nonzero"/></clipPath><clipPath id="2bc7e59625"><path d="M 260 237 L 265 237 L 265 266.707031 L 260 266.707031 Z M 260 237 " clip-rule="nonzero"/></clipPath><clipPath id="5890f06ba4"><path d="M 268 237 L 295 237 L 295 266.707031 L 268 266.707031 Z M 268 237 " clip-rule="nonzero"/></clipPath></defs><g clip-path="url(#8783e553f9)"><path fill="#1d252c" d="M 76.34375 147.910156 C 76.34375 149.511719 75.867188 151.078125 74.976562 152.410156 C 74.085938 153.742188 72.820312 154.78125 71.339844 155.394531 C 69.859375 156.007812 68.230469 156.167969 66.65625 155.855469 C 65.085938 155.542969 63.640625 154.773438 62.507812 153.640625 C 61.371094 152.507812 60.601562 151.066406 60.285156 149.496094 C 59.972656 147.925781 60.132812 146.296875 60.746094 144.820312 C 61.359375 143.339844 62.398438 142.074219 63.730469 141.183594 C 65.0625 140.292969 66.628906 139.816406 68.234375 139.816406 C 70.382812 139.820312 72.441406 140.671875 73.964844 142.1875 C 75.484375 143.707031 76.339844 145.765625 76.34375 147.910156 Z M 76.34375 147.910156 " fill-opacity="1" fill-rule="nonzero"/></g><g clip-path="url(#9f21eabfc5)"><path fill="#1d252c" d="M 60.636719 214.53125 C 60.597656 212.335938 60.964844 210.152344 61.726562 208.09375 C 62.375 206.351562 63.382812 204.769531 64.683594 203.441406 C 65.914062 202.203125 67.398438 201.246094 69.035156 200.628906 C 70.722656 199.996094 72.507812 199.675781 74.308594 199.6875 C 76.085938 199.675781 77.847656 199.996094 79.507812 200.628906 C 81.121094 201.25 82.585938 202.207031 83.796875 203.441406 C 85.082031 204.777344 86.082031 206.359375 86.734375 208.09375 C 87.492188 210.152344 87.863281 212.335938 87.824219 214.53125 C 87.867188 216.726562 87.496094 218.910156 86.734375 220.96875 C 86.085938 222.707031 85.085938 224.289062 83.796875 225.621094 C 82.585938 226.855469 81.121094 227.8125 79.507812 228.433594 C 77.847656 229.066406 76.085938 229.386719 74.308594 229.375 C 72.507812 229.382812 70.722656 229.066406 69.035156 228.433594 C 67.398438 227.820312 65.914062 226.859375 64.683594 225.621094 C 63.382812 224.296875 62.375 222.710938 61.726562 220.96875 C 60.964844 218.910156 60.597656 216.726562 60.636719 214.53125 Z M 64.824219 214.53125 C 64.804688 216.121094 65.027344 217.703125 65.480469 219.226562 C 65.863281 220.53125 66.496094 221.75 67.347656 222.816406 C 68.140625 223.789062 69.152344 224.566406 70.300781 225.089844 C 71.535156 225.636719 72.875 225.910156 74.222656 225.890625 C 75.566406 225.910156 76.898438 225.636719 78.121094 225.089844 C 79.261719 224.566406 80.269531 223.789062 81.058594 222.816406 C 81.910156 221.75 82.542969 220.53125 82.925781 219.226562 C 83.800781 216.15625 83.800781 212.90625 82.925781 209.835938 C 82.542969 208.53125 81.90625 207.3125 81.058594 206.25 C 80.269531 205.277344 79.261719 204.5 78.121094 203.972656 C 76.898438 203.425781 75.566406 203.152344 74.222656 203.171875 C 72.875 203.152344 71.535156 203.425781 70.300781 203.972656 C 69.152344 204.496094 68.140625 205.273438 67.347656 206.25 C 66.496094 207.3125 65.863281 208.53125 65.480469 209.835938 C 65.023438 211.359375 64.804688 212.941406 64.824219 214.53125 Z M 64.824219 214.53125 " fill-opacity="1" fill-rule="nonzero"/></g><path fill="#1d252c" d="M 162.886719 146.023438 C 162.886719 152.066406 161.988281 157.378906 160.191406 161.960938 C 158.566406 166.273438 156.046875 170.191406 152.796875 173.464844 C 149.632812 176.578125 145.820312 178.957031 141.632812 180.4375 C 137.167969 182.023438 132.457031 182.816406 127.71875 182.78125 C 123.0625 182.820312 118.433594 182.027344 114.058594 180.4375 C 109.867188 178.9375 106.046875 176.558594 102.847656 173.464844 C 99.542969 170.207031 96.96875 166.285156 95.300781 161.960938 C 93.464844 157.375 92.546875 152.0625 92.546875 146.023438 C 92.546875 139.980469 93.496094 134.671875 95.398438 130.085938 C 97.140625 125.742188 99.761719 121.808594 103.097656 118.523438 C 106.296875 115.417969 110.117188 113.023438 114.308594 111.5 C 118.605469 109.933594 123.144531 109.140625 127.71875 109.160156 C 132.371094 109.144531 136.996094 109.933594 141.378906 111.5 C 145.574219 113.011719 149.398438 115.410156 152.589844 118.523438 C 155.886719 121.808594 158.457031 125.746094 160.132812 130.085938 C 161.96875 134.671875 162.886719 139.980469 162.886719 146.023438 Z M 108.953125 146.023438 C 108.914062 149.191406 109.34375 152.351562 110.226562 155.394531 C 110.984375 157.996094 112.230469 160.433594 113.898438 162.570312 C 115.464844 164.550781 117.472656 166.136719 119.761719 167.203125 C 122.257812 168.332031 124.972656 168.890625 127.710938 168.835938 C 130.433594 168.886719 133.132812 168.328125 135.613281 167.203125 C 137.921875 166.148438 139.949219 164.558594 141.523438 162.570312 C 143.191406 160.433594 144.4375 157.996094 145.195312 155.394531 C 146.082031 152.351562 146.511719 149.191406 146.46875 146.023438 C 146.507812 142.835938 146.078125 139.664062 145.195312 136.601562 C 144.445312 133.980469 143.199219 131.523438 141.523438 129.371094 C 139.945312 127.382812 137.917969 125.796875 135.613281 124.738281 C 133.128906 123.621094 130.433594 123.066406 127.710938 123.105469 C 124.96875 123.058594 122.25 123.632812 119.761719 124.785156 C 117.476562 125.882812 115.472656 127.484375 113.898438 129.46875 C 112.226562 131.621094 110.976562 134.078125 110.226562 136.699219 C 109.347656 139.726562 108.917969 142.863281 108.953125 146.015625 Z M 108.953125 146.023438 " fill-opacity="1" fill-rule="nonzero"/><path fill="#1d252c" d="M 101.402344 229.007812 C 100.828125 229.007812 100.203125 228.996094 99.535156 228.964844 C 98.867188 228.933594 98.195312 228.898438 97.523438 228.84375 C 96.847656 228.789062 96.1875 228.71875 95.535156 228.640625 C 94.925781 228.570312 94.324219 228.460938 93.726562 228.308594 L 93.726562 200.753906 C 94.324219 200.609375 94.925781 200.5 95.535156 200.421875 C 96.1875 200.34375 96.855469 200.269531 97.523438 200.214844 C 98.191406 200.160156 98.855469 200.117188 99.511719 200.09375 C 100.167969 200.066406 100.785156 200.050781 101.359375 200.050781 C 102.90625 200.042969 104.453125 200.164062 105.980469 200.417969 C 107.289062 200.617188 108.550781 201.039062 109.714844 201.667969 C 110.726562 202.21875 111.582031 203.015625 112.199219 203.988281 C 112.828125 205.054688 113.144531 206.277344 113.105469 207.515625 C 113.164062 208.878906 112.773438 210.222656 111.996094 211.347656 C 111.242188 212.355469 110.214844 213.128906 109.039062 213.585938 C 110.558594 213.984375 111.933594 214.792969 113.023438 215.917969 C 114.007812 216.984375 114.503906 218.488281 114.503906 220.429688 C 114.503906 223.273438 113.457031 225.414062 111.367188 226.851562 C 109.273438 228.285156 105.953125 229.003906 101.410156 229 Z M 97.667969 212.320312 L 101.855469 212.320312 C 102.789062 212.324219 103.722656 212.253906 104.644531 212.109375 C 105.441406 212 106.214844 211.75 106.921875 211.371094 C 107.539062 211.042969 108.0625 210.5625 108.441406 209.976562 C 108.832031 209.324219 109.023438 208.570312 108.996094 207.808594 C 109.023438 207.074219 108.820312 206.351562 108.421875 205.734375 C 108.019531 205.160156 107.476562 204.695312 106.84375 204.382812 C 106.097656 204.019531 105.300781 203.761719 104.480469 203.625 C 103.53125 203.457031 102.570312 203.375 101.605469 203.382812 C 100.589844 203.382812 99.800781 203.394531 99.222656 203.425781 C 98.648438 203.453125 98.128906 203.492188 97.664062 203.546875 L 97.664062 212.324219 Z M 97.667969 215.515625 L 97.667969 225.523438 C 97.96875 225.546875 98.324219 225.578125 98.734375 225.601562 C 99.089844 225.628906 99.503906 225.652344 99.988281 225.664062 C 100.472656 225.675781 101.023438 225.679688 101.652344 225.679688 C 102.773438 225.6875 103.890625 225.609375 105 225.457031 C 105.960938 225.332031 106.894531 225.0625 107.773438 224.65625 C 108.539062 224.296875 109.195312 223.742188 109.683594 223.054688 C 110.183594 222.285156 110.433594 221.382812 110.398438 220.46875 C 110.425781 219.648438 110.242188 218.835938 109.867188 218.109375 C 109.507812 217.460938 108.972656 216.925781 108.324219 216.566406 C 107.578125 216.15625 106.765625 215.882812 105.925781 215.75 C 104.894531 215.574219 103.851562 215.492188 102.804688 215.503906 L 97.667969 215.503906 Z M 97.667969 215.515625 " fill-opacity="1" fill-rule="nonzero"/><path fill="#1d252c" d="M 134.039062 216.867188 C 134.472656 217.417969 135.027344 218.132812 135.703125 219.019531 C 136.378906 219.90625 137.0625 220.890625 137.777344 221.972656 C 138.496094 223.054688 139.191406 224.175781 139.890625 225.351562 C 140.546875 226.453125 141.144531 227.589844 141.675781 228.757812 L 137.324219 228.757812 C 136.78125 227.71875 136.179688 226.667969 135.539062 225.597656 C 134.894531 224.527344 134.246094 223.511719 133.585938 222.539062 C 132.925781 221.566406 132.277344 220.664062 131.632812 219.8125 C 130.992188 218.964844 130.410156 218.230469 129.890625 217.601562 C 129.535156 217.632812 129.175781 217.644531 128.800781 217.644531 L 124.101562 217.644531 L 124.101562 228.757812 L 120.117188 228.757812 L 120.117188 200.746094 C 121.351562 200.457031 122.609375 200.269531 123.875 200.191406 C 125.257812 200.09375 126.523438 200.042969 127.675781 200.042969 C 131.671875 200.042969 134.714844 200.796875 136.8125 202.300781 C 138.90625 203.804688 139.953125 206.042969 139.953125 209.023438 C 140 210.757812 139.472656 212.460938 138.453125 213.863281 C 137.324219 215.292969 135.78125 216.339844 134.039062 216.859375 Z M 128.003906 203.539062 C 126.308594 203.539062 125.007812 203.582031 124.105469 203.664062 L 124.105469 214.367188 L 126.941406 214.367188 C 128.175781 214.375 129.410156 214.304688 130.636719 214.164062 C 131.597656 214.066406 132.539062 213.800781 133.410156 213.382812 C 134.136719 213.023438 134.742188 212.460938 135.152344 211.761719 C 135.601562 210.910156 135.816406 209.953125 135.769531 208.992188 C 135.804688 208.066406 135.59375 207.144531 135.152344 206.328125 C 134.753906 205.632812 134.179688 205.050781 133.488281 204.648438 C 132.726562 204.214844 131.890625 203.921875 131.023438 203.785156 C 130.027344 203.617188 129.015625 203.535156 128.003906 203.539062 Z M 128.003906 203.539062 " fill-opacity="1" fill-rule="nonzero"/><path fill="#1d252c" d="M 166.101562 228.757812 C 165.636719 227.527344 165.199219 226.316406 164.785156 225.125 C 164.375 223.933594 163.953125 222.730469 163.511719 221.496094 L 150.625 221.496094 L 148.035156 228.75 L 143.890625 228.75 C 144.988281 225.742188 146.015625 222.960938 146.972656 220.40625 C 147.925781 217.851562 148.863281 215.425781 149.78125 213.125 C 150.699219 210.828125 151.609375 208.636719 152.507812 206.542969 C 153.410156 204.445312 154.355469 202.378906 155.34375 200.332031 L 158.996094 200.332031 C 159.980469 202.378906 160.925781 204.449219 161.828125 206.542969 C 162.734375 208.632812 163.644531 210.828125 164.558594 213.125 C 165.476562 215.425781 166.414062 217.851562 167.367188 220.40625 C 168.324219 222.960938 169.347656 225.742188 170.445312 228.75 L 166.09375 228.75 Z M 162.367188 218.222656 C 161.492188 215.847656 160.625 213.542969 159.761719 211.316406 C 158.898438 209.089844 158.003906 206.949219 157.074219 204.898438 C 156.113281 206.945312 155.203125 209.085938 154.34375 211.316406 C 153.488281 213.546875 152.632812 215.851562 151.78125 218.222656 L 162.375 218.222656 Z M 162.367188 218.222656 " fill-opacity="1" fill-rule="nonzero"/><g clip-path="url(#95014ca344)"><path fill="#1d252c" d="M 191.261719 169.691406 C 193.164062 169.734375 195.0625 169.542969 196.921875 169.125 C 198.203125 168.835938 199.421875 168.304688 200.507812 167.566406 C 201.347656 166.984375 201.996094 166.171875 202.378906 165.230469 C 202.734375 164.265625 202.910156 163.246094 202.898438 162.222656 C 202.898438 159.867188 201.792969 157.914062 199.578125 156.359375 C 197.363281 154.804688 193.550781 153.128906 188.144531 151.328125 C 185.789062 150.496094 183.433594 149.546875 181.078125 148.472656 C 178.777344 147.4375 176.640625 146.074219 174.734375 144.425781 C 172.839844 142.773438 171.285156 140.761719 170.164062 138.507812 C 168.914062 135.867188 168.308594 132.96875 168.394531 130.046875 C 168.347656 126.953125 168.988281 123.886719 170.269531 121.066406 C 171.496094 118.429688 173.308594 116.105469 175.566406 114.269531 C 178.03125 112.308594 180.855469 110.847656 183.878906 109.960938 C 187.457031 108.914062 191.167969 108.40625 194.894531 108.457031 C 199.136719 108.378906 203.371094 108.902344 207.464844 110.015625 C 210.484375 110.851562 213.410156 112 216.191406 113.4375 L 211.515625 126.203125 C 209.363281 125.105469 207.121094 124.183594 204.816406 123.453125 C 201.933594 122.597656 198.933594 122.195312 195.929688 122.261719 C 192.050781 122.261719 189.261719 122.796875 187.5625 123.867188 C 186.734375 124.386719 186.058594 125.117188 185.609375 125.984375 C 185.164062 126.851562 184.957031 127.828125 185.015625 128.800781 C 184.976562 129.976562 185.304688 131.136719 185.953125 132.121094 C 186.667969 133.101562 187.566406 133.929688 188.605469 134.558594 C 189.855469 135.339844 191.175781 136.003906 192.550781 136.535156 C 194.039062 137.121094 195.683594 137.726562 197.492188 138.351562 C 201.230469 139.738281 204.484375 141.105469 207.257812 142.453125 C 209.800781 143.644531 212.132812 145.238281 214.164062 147.175781 C 215.988281 148.960938 217.390625 151.121094 218.273438 153.511719 C 219.242188 156.347656 219.699219 159.335938 219.625 162.332031 C 219.625 169.042969 217.269531 174.25 212.554688 177.949219 C 207.84375 181.652344 200.742188 183.5 191.253906 183.5 C 188.367188 183.523438 185.488281 183.332031 182.632812 182.933594 C 180.335938 182.609375 178.0625 182.140625 175.824219 181.53125 C 174.089844 181.0625 172.386719 180.472656 170.734375 179.765625 C 169.507812 179.238281 168.3125 178.648438 167.148438 178 L 171.71875 165.132812 C 174.25 166.464844 176.914062 167.523438 179.667969 168.296875 C 183.445312 169.3125 187.34375 169.78125 191.253906 169.699219 Z M 191.261719 169.691406 " fill-opacity="1" fill-rule="nonzero"/></g><path fill="#1d252c" d="M 188.617188 225.933594 C 192.777344 225.933594 194.859375 224.511719 194.859375 221.664062 C 194.882812 220.882812 194.6875 220.109375 194.300781 219.429688 C 193.917969 218.796875 193.40625 218.25 192.800781 217.828125 C 192.132812 217.351562 191.410156 216.960938 190.648438 216.660156 C 189.839844 216.328125 188.984375 216.003906 188.082031 215.675781 C 187.074219 215.332031 186.085938 214.929688 185.128906 214.464844 C 184.25 214.046875 183.433594 213.507812 182.703125 212.863281 C 182.019531 212.25 181.46875 211.5 181.082031 210.667969 C 180.46875 209.160156 180.328125 207.503906 180.675781 205.914062 C 181.023438 204.324219 181.847656 202.878906 183.035156 201.765625 C 184.730469 200.375 187.070312 199.675781 190.054688 199.675781 C 191.636719 199.660156 193.21875 199.84375 194.753906 200.234375 C 195.84375 200.472656 196.890625 200.878906 197.851562 201.445312 L 196.578125 204.683594 C 195.769531 204.230469 194.90625 203.878906 194.011719 203.636719 C 192.726562 203.273438 191.390625 203.101562 190.054688 203.125 C 189.335938 203.117188 188.617188 203.199219 187.917969 203.367188 C 187.304688 203.515625 186.722656 203.765625 186.191406 204.109375 C 185.707031 204.425781 185.308594 204.855469 185.023438 205.363281 C 184.726562 205.910156 184.578125 206.523438 184.59375 207.148438 C 184.574219 207.816406 184.730469 208.480469 185.046875 209.074219 C 185.367188 209.617188 185.804688 210.085938 186.320312 210.449219 C 186.917969 210.875 187.558594 211.238281 188.230469 211.535156 C 188.953125 211.867188 189.753906 212.191406 190.628906 212.519531 C 191.859375 213.007812 192.992188 213.503906 194.011719 214 C 194.980469 214.457031 195.878906 215.050781 196.683594 215.761719 C 197.429688 216.441406 198.023438 217.269531 198.425781 218.199219 C 198.863281 219.285156 199.074219 220.453125 199.042969 221.621094 C 199.101562 222.730469 198.878906 223.835938 198.402344 224.835938 C 197.925781 225.835938 197.210938 226.707031 196.3125 227.363281 C 194.496094 228.703125 191.929688 229.371094 188.617188 229.375 C 187.578125 229.382812 186.542969 229.304688 185.519531 229.148438 C 184.671875 229.015625 183.828125 228.835938 182.996094 228.617188 C 182.347656 228.441406 181.710938 228.222656 181.089844 227.960938 C 180.554688 227.730469 180.140625 227.527344 179.835938 227.367188 L 181.027344 224.085938 C 181.949219 224.566406 182.910156 224.964844 183.902344 225.277344 C 185.429688 225.75 187.023438 225.972656 188.621094 225.933594 Z M 188.617188 225.933594 " fill-opacity="1" fill-rule="nonzero"/><path fill="#1d252c" d="M 202.695312 214.53125 C 202.65625 212.335938 203.023438 210.152344 203.785156 208.09375 C 204.433594 206.351562 205.441406 204.769531 206.742188 203.441406 C 207.972656 202.203125 209.457031 201.246094 211.09375 200.628906 C 212.78125 199.996094 214.570312 199.675781 216.367188 199.6875 C 218.144531 199.675781 219.90625 199.996094 221.566406 200.628906 C 223.179688 201.25 224.644531 202.207031 225.855469 203.441406 C 227.140625 204.777344 228.140625 206.359375 228.792969 208.09375 C 230.246094 212.261719 230.246094 216.800781 228.792969 220.96875 C 228.144531 222.707031 227.144531 224.289062 225.855469 225.621094 C 224.644531 226.855469 223.179688 227.8125 221.566406 228.433594 C 219.90625 229.066406 218.144531 229.386719 216.367188 229.375 C 214.570312 229.382812 212.78125 229.066406 211.09375 228.433594 C 209.457031 227.820312 207.972656 226.859375 206.742188 225.621094 C 205.441406 224.296875 204.433594 222.710938 203.785156 220.96875 C 203.023438 218.910156 202.65625 216.726562 202.695312 214.53125 Z M 206.882812 214.53125 C 206.867188 216.121094 207.085938 217.703125 207.539062 219.226562 C 207.921875 220.53125 208.554688 221.75 209.40625 222.816406 C 210.199219 223.789062 211.214844 224.566406 212.359375 225.089844 C 213.59375 225.636719 214.933594 225.910156 216.285156 225.890625 C 217.625 225.910156 218.957031 225.636719 220.183594 225.089844 C 221.320312 224.566406 222.328125 223.789062 223.117188 222.816406 C 223.96875 221.75 224.601562 220.53125 224.988281 219.226562 C 225.859375 216.15625 225.859375 212.90625 224.988281 209.835938 C 224.601562 208.53125 223.96875 207.3125 223.117188 206.25 C 222.328125 205.277344 221.320312 204.5 220.183594 203.972656 C 218.957031 203.425781 217.625 203.152344 216.285156 203.171875 C 214.933594 203.152344 213.59375 203.425781 212.359375 203.972656 C 211.214844 204.496094 210.199219 205.273438 209.40625 206.25 C 208.554688 207.3125 207.921875 208.53125 207.539062 209.835938 C 207.082031 211.359375 206.863281 212.941406 206.882812 214.53125 Z M 206.882812 214.53125 " fill-opacity="1" fill-rule="nonzero"/><path fill="#1d252c" d="M 250.6875 109.28125 C 261.421875 109.28125 269.667969 111.167969 275.417969 114.9375 C 281.171875 118.707031 284.046875 124.882812 284.042969 133.464844 C 284.042969 142.046875 281.136719 148.355469 275.316406 152.203125 C 269.496094 156.046875 261.183594 157.960938 250.378906 157.960938 L 245.285156 157.960938 L 245.285156 182.039062 L 229.074219 182.039062 L 229.074219 111.152344 C 232.78125 110.441406 236.53125 109.953125 240.296875 109.699219 C 244.246094 109.421875 247.710938 109.285156 250.6875 109.28125 Z M 251.722656 123.085938 C 250.542969 123.085938 249.386719 123.121094 248.242188 123.191406 C 247.097656 123.257812 246.109375 123.332031 245.277344 123.398438 L 245.277344 144.15625 L 250.371094 144.15625 C 255.984375 144.15625 260.207031 143.394531 263.042969 141.871094 C 265.882812 140.347656 267.300781 137.511719 267.304688 133.363281 C 267.367188 131.636719 266.996094 129.921875 266.214844 128.378906 C 265.484375 127.0625 264.40625 125.96875 263.101562 125.214844 C 261.574219 124.359375 259.902344 123.792969 258.167969 123.550781 C 256.035156 123.226562 253.878906 123.070312 251.722656 123.085938 Z M 251.722656 123.085938 " fill-opacity="1" fill-rule="nonzero"/><path fill="#1d252c" d="M 246.296875 229.375 C 244.429688 229.398438 242.578125 229.0625 240.835938 228.390625 C 239.230469 227.757812 237.785156 226.777344 236.609375 225.515625 C 235.382812 224.175781 234.453125 222.589844 233.878906 220.863281 C 233.203125 218.824219 232.875 216.683594 232.910156 214.53125 C 232.871094 212.371094 233.242188 210.222656 234 208.199219 C 234.652344 206.464844 235.652344 204.878906 236.9375 203.546875 C 238.15625 202.296875 239.625 201.320312 241.246094 200.671875 C 242.917969 200.011719 244.703125 199.675781 246.503906 199.6875 C 247.570312 199.679688 248.632812 199.761719 249.6875 199.933594 C 250.519531 200.070312 251.34375 200.265625 252.152344 200.507812 C 252.734375 200.683594 253.304688 200.902344 253.851562 201.164062 C 254.289062 201.382812 254.59375 201.546875 254.757812 201.65625 L 253.609375 204.941406 C 253.273438 204.726562 252.914062 204.550781 252.542969 204.410156 C 252.078125 204.21875 251.550781 204.023438 250.964844 203.832031 C 250.335938 203.632812 249.691406 203.476562 249.039062 203.363281 C 248.339844 203.242188 247.632812 203.179688 246.925781 203.179688 C 245.53125 203.160156 244.152344 203.425781 242.863281 203.957031 C 241.675781 204.460938 240.621094 205.234375 239.785156 206.210938 C 238.898438 207.265625 238.234375 208.484375 237.832031 209.800781 C 237.359375 211.335938 237.128906 212.933594 237.152344 214.539062 C 237.128906 216.101562 237.332031 217.664062 237.746094 219.171875 C 238.097656 220.472656 238.703125 221.695312 239.53125 222.761719 C 240.328125 223.757812 241.347656 224.550781 242.507812 225.078125 C 243.820312 225.648438 245.242188 225.929688 246.675781 225.894531 C 248.214844 225.9375 249.75 225.742188 251.234375 225.320312 C 252.160156 225.046875 253.066406 224.703125 253.945312 224.292969 L 254.972656 227.578125 C 254.648438 227.78125 254.304688 227.953125 253.945312 228.089844 C 253.34375 228.328125 252.726562 228.527344 252.097656 228.683594 C 251.242188 228.894531 250.378906 229.058594 249.507812 229.171875 C 248.445312 229.3125 247.378906 229.378906 246.308594 229.375 Z M 246.296875 229.375 " fill-opacity="1" fill-rule="nonzero"/><path fill="#1d252c" d="M 259.507812 200.34375 L 263.492188 200.34375 L 263.492188 228.761719 L 259.507812 228.761719 Z M 259.507812 200.34375 " fill-opacity="1" fill-rule="nonzero"/><path fill="#1d252c" d="M 289.5625 228.757812 C 289.097656 227.527344 288.660156 226.316406 288.246094 225.125 C 287.835938 223.933594 287.410156 222.730469 286.972656 221.496094 L 274.085938 221.496094 L 271.496094 228.75 L 267.355469 228.75 C 268.449219 225.742188 269.476562 222.960938 270.433594 220.40625 C 271.386719 217.851562 272.328125 215.425781 273.242188 213.125 C 274.152344 210.828125 275.070312 208.636719 275.96875 206.542969 C 276.871094 204.445312 277.820312 202.378906 278.804688 200.332031 L 282.457031 200.332031 C 283.441406 202.378906 284.386719 204.449219 285.292969 206.542969 C 286.195312 208.632812 287.105469 210.828125 288.019531 213.125 C 288.9375 215.425781 289.875 217.851562 290.828125 220.40625 C 291.785156 222.960938 292.808594 225.742188 293.90625 228.75 L 289.554688 228.75 Z M 285.824219 218.222656 C 284.949219 215.847656 284.078125 213.542969 283.214844 211.316406 C 282.351562 209.089844 281.457031 206.949219 280.53125 204.898438 C 279.570312 206.945312 278.660156 209.085938 277.800781 211.316406 C 276.941406 213.546875 276.085938 215.851562 275.234375 218.222656 L 285.828125 218.222656 Z M 285.824219 218.222656 " fill-opacity="1" fill-rule="nonzero"/><g clip-path="url(#9a5c7ca04d)"><path fill="#1d252c" d="M 314.886719 225.316406 L 314.886719 228.757812 L 297.769531 228.757812 L 297.769531 200.335938 L 301.753906 200.335938 L 301.753906 225.308594 L 314.890625 225.308594 Z M 314.886719 225.316406 " fill-opacity="1" fill-rule="nonzero"/></g><g clip-path="url(#b53dfbb469)"><path fill="#1d252c" d="M 314.714844 147.910156 C 314.714844 149.511719 314.242188 151.078125 313.351562 152.410156 C 312.460938 153.742188 311.195312 154.78125 309.714844 155.394531 C 308.234375 156.007812 306.601562 156.167969 305.03125 155.855469 C 303.457031 155.542969 302.011719 154.773438 300.878906 153.640625 C 299.746094 152.507812 298.972656 151.066406 298.660156 149.496094 C 298.347656 147.925781 298.503906 146.296875 299.117188 144.820312 C 299.730469 143.339844 300.769531 142.074219 302.101562 141.183594 C 303.4375 140.292969 305.003906 139.816406 306.605469 139.816406 C 308.753906 139.820312 310.816406 140.671875 312.335938 142.1875 C 313.855469 143.707031 314.710938 145.765625 314.714844 147.910156 Z M 314.714844 147.910156 " fill-opacity="1" fill-rule="nonzero"/></g><g clip-path="url(#9a1c3310a3)"><path fill="#1d252c" d="M 93.160156 237.390625 C 97.15625 237.390625 100.226562 238.148438 102.375 239.664062 C 104.523438 241.179688 105.597656 243.441406 105.601562 246.449219 C 105.640625 247.898438 105.339844 249.339844 104.71875 250.65625 C 104.136719 251.804688 103.257812 252.785156 102.171875 253.484375 C 100.9375 254.261719 99.566406 254.796875 98.128906 255.0625 C 96.355469 255.40625 94.554688 255.570312 92.75 255.550781 L 89.585938 255.550781 L 89.585938 266.089844 L 85.601562 266.089844 L 85.601562 238.078125 C 86.835938 237.789062 88.09375 237.601562 89.359375 237.523438 C 90.742188 237.425781 92.007812 237.382812 93.160156 237.382812 Z M 93.488281 240.871094 C 91.792969 240.871094 90.492188 240.914062 89.589844 240.996094 L 89.589844 252.152344 L 92.589844 252.152344 C 93.828125 252.164062 95.0625 252.074219 96.285156 251.882812 C 97.257812 251.746094 98.195312 251.441406 99.058594 250.976562 C 99.792969 250.574219 100.398438 249.96875 100.800781 249.234375 C 101.246094 248.359375 101.457031 247.386719 101.421875 246.40625 C 101.464844 245.460938 101.242188 244.523438 100.785156 243.695312 C 100.367188 242.992188 99.769531 242.40625 99.058594 241.996094 C 98.277344 241.558594 97.421875 241.257812 96.539062 241.117188 C 95.535156 240.949219 94.519531 240.867188 93.5 240.871094 Z M 93.488281 240.871094 " fill-opacity="1" fill-rule="nonzero"/></g><g clip-path="url(#c1407032d5)"><path fill="#1d252c" d="M 124.488281 254.199219 C 124.921875 254.75 125.476562 255.464844 126.152344 256.351562 C 126.816406 257.238281 127.511719 258.222656 128.226562 259.304688 C 128.941406 260.386719 129.644531 261.511719 130.335938 262.683594 C 130.996094 263.785156 131.59375 264.921875 132.125 266.089844 L 127.773438 266.089844 C 127.222656 265.050781 126.625 263.996094 125.984375 262.929688 C 125.34375 261.863281 124.695312 260.84375 124.035156 259.871094 C 123.378906 258.902344 122.722656 257.996094 122.082031 257.144531 C 121.4375 256.296875 120.859375 255.5625 120.335938 254.933594 C 119.980469 254.957031 119.621094 254.976562 119.246094 254.976562 L 114.546875 254.976562 L 114.546875 266.089844 L 110.5625 266.089844 L 110.5625 238.078125 C 111.796875 237.789062 113.054688 237.601562 114.320312 237.523438 C 115.703125 237.425781 116.972656 237.382812 118.121094 237.382812 C 122.117188 237.382812 125.160156 238.132812 127.253906 239.636719 C 129.34375 241.140625 130.390625 243.382812 130.390625 246.363281 C 130.4375 248.097656 129.910156 249.796875 128.894531 251.203125 C 127.765625 252.628906 126.222656 253.675781 124.480469 254.199219 Z M 118.445312 240.871094 C 116.75 240.871094 115.449219 240.914062 114.546875 240.996094 L 114.546875 251.699219 L 117.382812 251.699219 C 118.617188 251.707031 119.851562 251.640625 121.078125 251.496094 C 122.039062 251.398438 122.976562 251.136719 123.851562 250.722656 C 124.578125 250.363281 125.183594 249.796875 125.59375 249.101562 C 126.042969 248.25 126.253906 247.292969 126.210938 246.332031 C 126.246094 245.40625 126.03125 244.484375 125.59375 243.667969 C 125.195312 242.96875 124.621094 242.390625 123.929688 241.984375 C 123.167969 241.550781 122.332031 241.261719 121.464844 241.125 C 120.464844 240.957031 119.457031 240.875 118.445312 240.878906 Z M 118.445312 240.871094 " fill-opacity="1" fill-rule="nonzero"/></g><g clip-path="url(#fbb2235dfb)"><path fill="#1d252c" d="M 134.785156 251.863281 C 134.742188 249.667969 135.113281 247.484375 135.875 245.425781 C 136.523438 243.6875 137.527344 242.101562 138.832031 240.777344 C 140.0625 239.539062 141.546875 238.582031 143.183594 237.96875 C 144.867188 237.335938 146.65625 237.015625 148.457031 237.027344 C 150.234375 237.015625 151.996094 237.332031 153.652344 237.96875 C 155.265625 238.589844 156.730469 239.546875 157.945312 240.777344 C 159.230469 242.109375 160.230469 243.691406 160.882812 245.425781 C 162.332031 249.59375 162.332031 254.132812 160.882812 258.300781 C 160.234375 260.039062 159.234375 261.621094 157.945312 262.953125 C 156.734375 264.1875 155.269531 265.144531 153.652344 265.761719 C 151.996094 266.394531 150.234375 266.710938 148.457031 266.703125 C 146.65625 266.710938 144.867188 266.390625 143.183594 265.761719 C 141.546875 265.144531 140.0625 264.1875 138.832031 262.953125 C 137.527344 261.628906 136.523438 260.042969 135.875 258.300781 C 135.113281 256.242188 134.742188 254.058594 134.785156 251.863281 Z M 138.972656 251.863281 C 138.953125 253.453125 139.175781 255.035156 139.625 256.558594 C 140.007812 257.867188 140.644531 259.082031 141.492188 260.148438 C 142.289062 261.121094 143.300781 261.902344 144.449219 262.421875 C 145.683594 262.96875 147.023438 263.242188 148.371094 263.222656 C 149.714844 263.242188 151.046875 262.96875 152.269531 262.421875 C 153.410156 261.898438 154.414062 261.121094 155.207031 260.148438 C 156.058594 259.082031 156.691406 257.867188 157.074219 256.558594 C 157.949219 253.492188 157.949219 250.238281 157.074219 247.167969 C 156.6875 245.863281 156.054688 244.648438 155.207031 243.582031 C 154.414062 242.609375 153.410156 241.832031 152.269531 241.308594 C 151.046875 240.757812 149.714844 240.484375 148.371094 240.507812 C 147.023438 240.488281 145.683594 240.757812 144.449219 241.308594 C 143.300781 241.828125 142.289062 242.605469 141.492188 243.582031 C 140.644531 244.644531 140.007812 245.863281 139.625 247.167969 C 139.171875 248.691406 138.949219 250.273438 138.972656 251.863281 Z M 138.972656 251.863281 " fill-opacity="1" fill-rule="nonzero"/></g><g clip-path="url(#84a3d65fef)"><path fill="#1d252c" d="M 190.164062 237.675781 C 189.125 240.683594 188.132812 243.464844 187.191406 246.019531 C 186.246094 248.574219 185.324219 251.003906 184.417969 253.300781 C 183.511719 255.601562 182.617188 257.789062 181.730469 259.886719 C 180.84375 261.980469 179.933594 264.046875 179 266.09375 L 175.269531 266.09375 C 174.339844 264.046875 173.429688 261.976562 172.539062 259.886719 C 171.648438 257.792969 170.746094 255.597656 169.828125 253.300781 C 168.910156 251.003906 167.972656 248.582031 167.019531 246.019531 C 166.066406 243.460938 165.074219 240.683594 164.0625 237.675781 L 168.457031 237.675781 C 169.933594 241.996094 171.382812 246.152344 172.808594 250.140625 C 174.234375 254.128906 175.699219 257.875 177.203125 261.375 C 178.707031 257.902344 180.171875 254.164062 181.597656 250.160156 C 183.019531 246.152344 184.457031 241.988281 185.90625 237.667969 L 190.175781 237.667969 Z M 190.164062 237.675781 " fill-opacity="1" fill-rule="nonzero"/></g><g clip-path="url(#1f61034ebf)"><path fill="#1d252c" d="M 194.105469 237.675781 L 198.089844 237.675781 L 198.089844 266.09375 L 194.105469 266.09375 Z M 194.105469 237.675781 " fill-opacity="1" fill-rule="nonzero"/></g><g clip-path="url(#5fd1e80892)"><path fill="#1d252c" d="M 224.648438 266.09375 C 224.050781 265.085938 223.359375 263.953125 222.574219 262.691406 C 221.796875 261.429688 220.953125 260.128906 220.046875 258.773438 C 219.140625 257.414062 218.207031 256.046875 217.238281 254.652344 C 216.269531 253.257812 215.304688 251.914062 214.34375 250.609375 C 213.382812 249.308594 212.453125 248.085938 211.554688 246.941406 C 210.652344 245.800781 209.816406 244.785156 209.050781 243.910156 L 209.050781 266.09375 L 205.152344 266.09375 L 205.152344 237.675781 L 208.316406 237.675781 C 209.601562 239.046875 210.976562 240.640625 212.441406 242.457031 C 213.90625 244.273438 215.355469 246.148438 216.792969 248.074219 C 218.230469 250 219.585938 251.894531 220.855469 253.753906 C 222.125 255.613281 223.199219 257.269531 224.078125 258.71875 L 224.078125 237.683594 L 227.980469 237.683594 L 227.980469 266.101562 L 224.65625 266.101562 Z M 224.648438 266.09375 " fill-opacity="1" fill-rule="nonzero"/></g><g clip-path="url(#17fe765d93)"><path fill="#1d252c" d="M 247.269531 266.707031 C 245.402344 266.730469 243.550781 266.394531 241.808594 265.722656 C 240.203125 265.089844 238.757812 264.109375 237.582031 262.851562 C 236.355469 261.507812 235.425781 259.921875 234.851562 258.199219 C 234.175781 256.15625 233.851562 254.015625 233.886719 251.863281 C 233.84375 249.703125 234.214844 247.554688 234.972656 245.53125 C 235.625 243.796875 236.625 242.214844 237.910156 240.878906 C 239.128906 239.628906 240.597656 238.652344 242.21875 238.003906 C 243.890625 237.34375 245.675781 237.011719 247.476562 237.023438 C 248.542969 237.011719 249.605469 237.09375 250.660156 237.265625 C 251.492188 237.40625 252.316406 237.597656 253.125 237.839844 C 253.707031 238.015625 254.277344 238.234375 254.828125 238.496094 C 255.261719 238.714844 255.566406 238.878906 255.730469 238.984375 L 254.582031 242.265625 C 254.246094 242.054688 253.886719 241.875 253.515625 241.734375 C 253.050781 241.546875 252.527344 241.347656 251.9375 241.160156 C 251.304688 240.960938 250.664062 240.800781 250.011719 240.6875 C 249.3125 240.566406 248.605469 240.507812 247.898438 240.507812 C 246.503906 240.488281 245.121094 240.75 243.835938 241.28125 C 242.648438 241.789062 241.59375 242.558594 240.757812 243.539062 C 239.871094 244.589844 239.207031 245.8125 238.804688 247.128906 C 238.332031 248.660156 238.105469 250.257812 238.125 251.863281 C 238.101562 253.429688 238.304688 254.988281 238.71875 256.5 C 239.070312 257.800781 239.675781 259.019531 240.507812 260.085938 C 241.300781 261.082031 242.320312 261.878906 243.480469 262.402344 C 244.792969 262.976562 246.214844 263.257812 247.648438 263.222656 C 249.1875 263.261719 250.726562 263.070312 252.207031 262.648438 C 253.132812 262.371094 254.039062 262.027344 254.917969 261.621094 L 255.945312 264.902344 C 255.621094 265.109375 255.277344 265.28125 254.917969 265.417969 C 254.316406 265.65625 253.699219 265.855469 253.070312 266.011719 C 252.21875 266.222656 251.351562 266.386719 250.480469 266.5 C 249.417969 266.640625 248.351562 266.707031 247.28125 266.703125 Z M 247.269531 266.707031 " fill-opacity="1" fill-rule="nonzero"/></g><g clip-path="url(#2bc7e59625)"><path fill="#1d252c" d="M 260.488281 237.675781 L 264.472656 237.675781 L 264.472656 266.09375 L 260.488281 266.09375 Z M 260.488281 237.675781 " fill-opacity="1" fill-rule="nonzero"/></g><g clip-path="url(#5890f06ba4)"><path fill="#1d252c" d="M 290.535156 266.09375 C 290.070312 264.867188 289.632812 263.65625 289.21875 262.464844 C 288.808594 261.273438 288.386719 260.070312 287.945312 258.832031 L 275.058594 258.832031 L 272.46875 266.089844 L 268.328125 266.089844 C 269.421875 263.082031 270.449219 260.300781 271.40625 257.746094 C 272.363281 255.191406 273.296875 252.761719 274.214844 250.464844 C 275.132812 248.164062 276.042969 245.976562 276.941406 243.878906 C 277.84375 241.785156 278.792969 239.71875 279.777344 237.667969 L 283.429688 237.667969 C 284.414062 239.71875 285.359375 241.789062 286.261719 243.878906 C 287.167969 245.972656 288.078125 248.167969 288.992188 250.464844 C 289.910156 252.761719 290.847656 255.191406 291.800781 257.746094 C 292.757812 260.300781 293.785156 263.082031 294.882812 266.089844 L 290.53125 266.089844 Z M 286.800781 255.558594 C 285.925781 253.179688 285.058594 250.875 284.195312 248.648438 C 283.332031 246.421875 282.4375 244.28125 281.507812 242.230469 C 280.546875 244.277344 279.636719 246.417969 278.78125 248.648438 C 277.921875 250.878906 277.066406 253.183594 276.214844 255.558594 L 286.808594 255.558594 Z M 286.800781 255.558594 " fill-opacity="1" fill-rule="nonzero"/></g></svg>