<svg width="345" height="405" viewBox="0 0 345 405" fill="none" xmlns="http://www.w3.org/2000/svg">
<path d="M0 80H345V365C345 387.091 327.091 405 305 405H40C17.9086 405 0 387.091 0 365V80Z" fill="url(#paint0_linear_100_40)"/>
<circle cx="173" cy="80" r="80" fill="#FF3131"/>
<path d="M57.6491 228.455H51.2401C51.1946 227.924 51.0734 227.443 50.8764 227.011C50.687 226.58 50.4219 226.208 50.081 225.898C49.7476 225.58 49.3423 225.337 48.8651 225.17C48.3878 224.996 47.8461 224.909 47.2401 224.909C46.1795 224.909 45.2817 225.167 44.5469 225.682C43.8196 226.197 43.2666 226.936 42.8878 227.898C42.5166 228.86 42.331 230.015 42.331 231.364C42.331 232.788 42.5204 233.981 42.8991 234.943C43.2855 235.898 43.8423 236.617 44.5696 237.102C45.2969 237.58 46.1719 237.818 47.1946 237.818C47.7779 237.818 48.3007 237.746 48.7628 237.602C49.2249 237.451 49.6264 237.235 49.9673 236.955C50.3082 236.674 50.5848 236.337 50.7969 235.943C51.0166 235.542 51.1643 235.091 51.2401 234.591L57.6491 234.636C57.5734 235.621 57.2969 236.625 56.8196 237.648C56.3423 238.663 55.6643 239.602 54.7855 240.466C53.9143 241.322 52.8348 242.011 51.5469 242.534C50.259 243.057 48.7628 243.318 47.0582 243.318C44.9219 243.318 43.0052 242.86 41.3082 241.943C39.6188 241.027 38.2817 239.678 37.2969 237.898C36.3196 236.117 35.831 233.939 35.831 231.364C35.831 228.773 36.331 226.591 37.331 224.818C38.331 223.038 39.6795 221.693 41.3764 220.784C43.0734 219.867 44.9673 219.409 47.0582 219.409C48.5279 219.409 49.8802 219.61 51.1151 220.011C52.3499 220.413 53.4332 221 54.3651 221.773C55.2969 222.538 56.0469 223.481 56.6151 224.602C57.1832 225.723 57.5279 227.008 57.6491 228.455ZM83.0611 231.364C83.0611 233.955 82.5573 236.14 81.5497 237.92C80.5421 239.693 79.1823 241.038 77.4702 241.955C75.758 242.864 73.849 243.318 71.7429 243.318C69.6217 243.318 67.705 242.86 65.9929 241.943C64.2884 241.019 62.9323 239.67 61.9247 237.898C60.9247 236.117 60.4247 233.939 60.4247 231.364C60.4247 228.773 60.9247 226.591 61.9247 224.818C62.9323 223.038 64.2884 221.693 65.9929 220.784C67.705 219.867 69.6217 219.409 71.7429 219.409C73.849 219.409 75.758 219.867 77.4702 220.784C79.1823 221.693 80.5421 223.038 81.5497 224.818C82.5573 226.591 83.0611 228.773 83.0611 231.364ZM76.5611 231.364C76.5611 229.97 76.3755 228.795 76.0043 227.841C75.6406 226.879 75.099 226.152 74.3793 225.659C73.6671 225.159 72.7884 224.909 71.7429 224.909C70.6974 224.909 69.8149 225.159 69.0952 225.659C68.383 226.152 67.8414 226.879 67.4702 227.841C67.1065 228.795 66.9247 229.97 66.9247 231.364C66.9247 232.758 67.1065 233.936 67.4702 234.898C67.8414 235.852 68.383 236.58 69.0952 237.08C69.8149 237.572 70.6974 237.818 71.7429 237.818C72.7884 237.818 73.6671 237.572 74.3793 237.08C75.099 236.58 75.6406 235.852 76.0043 234.898C76.3755 233.936 76.5611 232.758 76.5611 231.364ZM85.9844 243V219.727H96.0753C97.848 219.727 99.3366 219.966 100.541 220.443C101.753 220.92 102.666 221.595 103.28 222.466C103.901 223.337 104.212 224.364 104.212 225.545C104.212 226.402 104.022 227.182 103.643 227.886C103.272 228.591 102.75 229.182 102.075 229.659C101.401 230.129 100.613 230.455 99.7116 230.636V230.864C100.712 230.902 101.621 231.155 102.439 231.625C103.257 232.087 103.909 232.727 104.393 233.545C104.878 234.356 105.121 235.311 105.121 236.409C105.121 237.682 104.787 238.814 104.121 239.807C103.462 240.799 102.522 241.58 101.303 242.148C100.083 242.716 98.6283 243 96.9389 243H85.9844ZM92.3026 237.955H95.2571C96.3177 237.955 97.1132 237.758 97.6435 237.364C98.1738 236.962 98.4389 236.371 98.4389 235.591C98.4389 235.045 98.3139 234.583 98.0639 234.205C97.8139 233.826 97.4579 233.538 96.9957 233.341C96.5412 233.144 95.992 233.045 95.348 233.045H92.3026V237.955ZM92.3026 229.136H94.8935C95.4465 229.136 95.9351 229.049 96.3594 228.875C96.7836 228.701 97.1132 228.451 97.348 228.125C97.5904 227.792 97.7116 227.386 97.7116 226.909C97.7116 226.189 97.4541 225.64 96.9389 225.261C96.4238 224.875 95.7723 224.682 94.9844 224.682H92.3026V229.136ZM107.359 243V219.727H124.132V224.818H113.678V228.818H123.268V233.909H113.678V237.909H124.087V243H107.359ZM127.266 243V219.727H137.311C139.038 219.727 140.55 220.042 141.845 220.67C143.141 221.299 144.148 222.205 144.868 223.386C145.588 224.568 145.947 225.985 145.947 227.636C145.947 229.303 145.576 230.708 144.834 231.852C144.099 232.996 143.065 233.86 141.732 234.443C140.406 235.027 138.857 235.318 137.084 235.318H131.084V230.409H135.811C136.554 230.409 137.186 230.318 137.709 230.136C138.239 229.947 138.644 229.648 138.925 229.239C139.213 228.83 139.357 228.295 139.357 227.636C139.357 226.97 139.213 226.428 138.925 226.011C138.644 225.587 138.239 225.277 137.709 225.08C137.186 224.875 136.554 224.773 135.811 224.773H133.584V243H127.266ZM140.902 232.318L146.72 243H139.857L134.175 232.318H140.902ZM148.004 224.818V219.727H168.232V224.818H161.232V243H155.004V224.818H148.004ZM184.382 219.727H190.7V234.636C190.7 236.409 190.276 237.943 189.428 239.239C188.587 240.527 187.412 241.523 185.905 242.227C184.397 242.924 182.647 243.273 180.655 243.273C178.647 243.273 176.89 242.924 175.382 242.227C173.875 241.523 172.7 240.527 171.859 239.239C171.026 237.943 170.609 236.409 170.609 234.636V219.727H176.928V234.091C176.928 234.811 177.087 235.455 177.405 236.023C177.723 236.583 178.162 237.023 178.723 237.341C179.291 237.659 179.935 237.818 180.655 237.818C181.382 237.818 182.026 237.659 182.587 237.341C183.147 237.023 183.587 236.583 183.905 236.023C184.223 235.455 184.382 234.811 184.382 234.091V219.727ZM193.703 243V219.727H203.749C205.476 219.727 206.987 220.042 208.283 220.67C209.578 221.299 210.586 222.205 211.305 223.386C212.025 224.568 212.385 225.985 212.385 227.636C212.385 229.303 212.014 230.708 211.271 231.852C210.536 232.996 209.502 233.86 208.169 234.443C206.843 235.027 205.294 235.318 203.521 235.318H197.521V230.409H202.249C202.991 230.409 203.624 230.318 204.146 230.136C204.677 229.947 205.082 229.648 205.362 229.239C205.65 228.83 205.794 228.295 205.794 227.636C205.794 226.97 205.65 226.428 205.362 226.011C205.082 225.587 204.677 225.277 204.146 225.08C203.624 224.875 202.991 224.773 202.249 224.773H200.021V243H193.703ZM207.339 232.318L213.158 243H206.294L200.612 232.318H207.339ZM221.124 243H214.305L221.987 219.727H230.624L238.305 243H231.487L226.396 226.136H226.214L221.124 243ZM219.851 233.818H232.669V238.545H219.851V233.818ZM246.922 243V219.727H253.24V237.909H262.649V243H246.922ZM271.249 243H264.43L272.112 219.727H280.749L288.43 243H281.612L276.521 226.136H276.339L271.249 243ZM269.976 233.818H282.794V238.545H269.976V233.818ZM302.311 227C302.25 226.242 301.966 225.652 301.459 225.227C300.959 224.803 300.197 224.591 299.175 224.591C298.523 224.591 297.989 224.67 297.572 224.83C297.163 224.981 296.86 225.189 296.663 225.455C296.466 225.72 296.364 226.023 296.357 226.364C296.341 226.644 296.391 226.898 296.504 227.125C296.625 227.345 296.815 227.545 297.072 227.727C297.33 227.902 297.66 228.061 298.061 228.205C298.463 228.348 298.94 228.477 299.493 228.591L301.402 229C302.69 229.273 303.792 229.633 304.709 230.08C305.625 230.527 306.375 231.053 306.959 231.659C307.542 232.258 307.97 232.932 308.243 233.682C308.523 234.432 308.667 235.25 308.675 236.136C308.667 237.667 308.285 238.962 307.527 240.023C306.769 241.083 305.686 241.89 304.277 242.443C302.875 242.996 301.19 243.273 299.22 243.273C297.197 243.273 295.432 242.973 293.925 242.375C292.425 241.777 291.258 240.856 290.425 239.614C289.599 238.364 289.182 236.765 289.175 234.818H295.175C295.213 235.53 295.391 236.129 295.709 236.614C296.027 237.098 296.474 237.466 297.05 237.716C297.633 237.966 298.326 238.091 299.129 238.091C299.804 238.091 300.368 238.008 300.822 237.841C301.277 237.674 301.622 237.443 301.857 237.148C302.091 236.852 302.213 236.515 302.22 236.136C302.213 235.78 302.095 235.47 301.868 235.205C301.648 234.932 301.285 234.689 300.777 234.477C300.269 234.258 299.584 234.053 298.72 233.864L296.402 233.364C294.341 232.917 292.716 232.17 291.527 231.125C290.345 230.072 289.758 228.636 289.766 226.818C289.758 225.341 290.152 224.049 290.947 222.943C291.75 221.83 292.86 220.962 294.277 220.341C295.701 219.72 297.334 219.409 299.175 219.409C301.054 219.409 302.679 219.723 304.05 220.352C305.421 220.981 306.478 221.867 307.22 223.011C307.97 224.148 308.349 225.477 308.357 227H302.311ZM129.561 282V277.455L138.243 270.273C138.819 269.795 139.311 269.348 139.72 268.932C140.137 268.508 140.455 268.072 140.675 267.625C140.902 267.178 141.016 266.682 141.016 266.136C141.016 265.538 140.887 265.027 140.629 264.602C140.379 264.178 140.031 263.852 139.584 263.625C139.137 263.39 138.622 263.273 138.038 263.273C137.455 263.273 136.94 263.39 136.493 263.625C136.054 263.86 135.713 264.205 135.47 264.659C135.228 265.114 135.107 265.667 135.107 266.318H129.107C129.107 264.682 129.474 263.273 130.209 262.091C130.944 260.909 131.982 260 133.322 259.364C134.663 258.727 136.235 258.409 138.038 258.409C139.902 258.409 141.516 258.708 142.879 259.307C144.25 259.898 145.307 260.731 146.05 261.807C146.8 262.883 147.175 264.144 147.175 265.591C147.175 266.485 146.989 267.375 146.618 268.261C146.247 269.14 145.58 270.114 144.618 271.182C143.656 272.25 142.288 273.523 140.516 275L138.334 276.818V276.955H147.425V282H129.561ZM149.521 278.364V273.455L158.885 258.727H163.339V265.273H160.794L155.749 273.273V273.455H169.567V278.364H149.521ZM160.839 282V276.864L160.976 274.727V258.727H166.885V282H160.839ZM172.172 282V258.727H178.49V267.818H186.854V258.727H193.172V282H186.854V272.909H178.49V282H172.172ZM208.717 266C208.657 265.242 208.373 264.652 207.865 264.227C207.365 263.803 206.604 263.591 205.581 263.591C204.929 263.591 204.395 263.67 203.979 263.83C203.57 263.981 203.267 264.189 203.07 264.455C202.873 264.72 202.77 265.023 202.763 265.364C202.748 265.644 202.797 265.898 202.911 266.125C203.032 266.345 203.221 266.545 203.479 266.727C203.736 266.902 204.066 267.061 204.467 267.205C204.869 267.348 205.346 267.477 205.899 267.591L207.808 268C209.096 268.273 210.198 268.633 211.115 269.08C212.032 269.527 212.782 270.053 213.365 270.659C213.948 271.258 214.376 271.932 214.649 272.682C214.929 273.432 215.073 274.25 215.081 275.136C215.073 276.667 214.691 277.962 213.933 279.023C213.176 280.083 212.092 280.89 210.683 281.443C209.282 281.996 207.596 282.273 205.626 282.273C203.604 282.273 201.839 281.973 200.331 281.375C198.831 280.777 197.664 279.856 196.831 278.614C196.005 277.364 195.589 275.765 195.581 273.818H201.581C201.619 274.53 201.797 275.129 202.115 275.614C202.433 276.098 202.88 276.466 203.456 276.716C204.039 276.966 204.732 277.091 205.536 277.091C206.21 277.091 206.774 277.008 207.229 276.841C207.683 276.674 208.028 276.443 208.263 276.148C208.498 275.852 208.619 275.515 208.626 275.136C208.619 274.78 208.501 274.47 208.274 274.205C208.054 273.932 207.691 273.689 207.183 273.477C206.676 273.258 205.99 273.053 205.126 272.864L202.808 272.364C200.748 271.917 199.123 271.17 197.933 270.125C196.751 269.072 196.164 267.636 196.172 265.818C196.164 264.341 196.558 263.049 197.354 261.943C198.157 260.83 199.267 259.962 200.683 259.341C202.107 258.72 203.74 258.409 205.581 258.409C207.46 258.409 209.085 258.723 210.456 259.352C211.827 259.981 212.884 260.867 213.626 262.011C214.376 263.148 214.755 264.477 214.763 266H208.717Z" fill="white"/>
<path d="M204.237 83.0094C205.659 83.3659 206.881 84.273 207.634 85.5313C208.388 86.7895 208.611 88.2958 208.255 89.7188L204.442 104.968H208.421V99.4371C208.421 97.9701 209.003 96.5632 210.039 95.5259C211.076 94.4886 212.481 93.9059 213.947 93.9059C215.413 93.9059 216.819 94.4886 217.855 95.5259C218.891 96.5632 219.474 97.9701 219.474 99.4371V104.968C220.939 104.968 222.345 105.551 223.381 106.588C224.418 107.626 225 109.033 225 110.5C225 111.967 224.418 113.373 223.381 114.411C222.345 115.448 220.939 116.031 219.474 116.031V121.562C219.474 123.029 218.891 124.436 217.855 125.473C216.819 126.51 215.413 127.093 213.947 127.093C212.481 127.093 211.076 126.51 210.039 125.473C209.003 124.436 208.421 123.029 208.421 121.562V116.031H197.368C196.528 116.031 195.7 115.839 194.946 115.47C194.191 115.102 193.531 114.566 193.014 113.904C192.497 113.242 192.138 112.471 191.964 111.649C191.789 110.827 191.804 109.976 192.007 109.161L197.534 87.0361C197.889 85.6134 198.794 84.39 200.05 83.6349C201.306 82.8798 202.815 82.6548 204.237 83.0094ZM178.025 82.8434C181.533 82.8429 184.91 84.1778 187.47 86.5772C190.031 88.9767 191.584 92.2612 191.814 95.7644L191.841 96.6715V98.4692C191.841 101.788 190.791 105.002 188.852 107.668L188.078 108.636L181.756 116.031H186.315C187.724 116.032 189.078 116.572 190.103 117.54C191.127 118.508 191.743 119.83 191.826 121.238C191.908 122.645 191.451 124.031 190.547 125.112C189.643 126.193 188.36 126.888 186.962 127.055L186.315 127.093H169.736C168.739 127.094 167.761 126.824 166.904 126.314C166.048 125.803 165.346 125.07 164.871 124.193C164.397 123.315 164.169 122.326 164.211 121.329C164.253 120.332 164.564 119.365 165.11 118.531L165.541 117.961L179.689 101.439C180.251 100.78 180.615 99.9744 180.739 99.1163L180.789 98.4692V96.6715C180.789 95.938 180.497 95.2346 179.979 94.7159C179.461 94.1973 178.758 93.9059 178.025 93.9059C177.292 93.9059 176.59 94.1973 176.071 94.7159C175.553 95.2346 175.262 95.938 175.262 96.6715C175.262 98.1385 174.68 99.5454 173.643 100.583C172.607 101.62 171.201 102.203 169.736 102.203C168.27 102.203 166.864 101.62 165.828 100.583C164.792 99.5454 164.209 98.1385 164.209 96.6715C164.209 93.0041 165.665 89.4869 168.256 86.8936C170.847 84.3003 174.361 82.8434 178.025 82.8434ZM169.736 22C192.919 22 212.383 37.8746 217.904 59.3358C218.27 60.7565 218.058 62.2648 217.313 63.5287C216.569 64.7927 215.353 65.7088 213.933 66.0755C212.514 66.4423 211.007 66.2296 209.744 65.4843C208.481 64.739 207.566 63.5221 207.199 62.1014C205.603 55.9237 202.505 50.2368 198.183 45.5464C193.86 40.856 188.447 37.3076 182.423 35.2167C176.4 33.1258 169.953 32.5574 163.657 33.5618C157.361 34.5663 151.411 37.1126 146.336 40.9742C141.26 44.8359 137.217 49.8931 134.566 55.6961C131.915 61.4991 130.737 67.868 131.139 74.2363C131.54 80.6046 133.508 86.7749 136.867 92.1982C140.227 97.6216 144.873 102.13 150.393 105.322C151.596 106.088 152.457 107.289 152.796 108.674C153.135 110.06 152.926 111.523 152.213 112.758C151.5 113.993 150.337 114.905 148.968 115.302C147.599 115.7 146.13 115.553 144.867 114.891C135.385 109.412 127.975 100.954 123.786 90.8301C119.596 80.706 118.861 69.4813 121.695 58.8966C124.529 48.3119 130.773 38.9587 139.459 32.2877C148.145 25.6166 158.787 22.0005 169.736 22ZM169.736 44.1249C171.089 44.1251 172.396 44.6225 173.407 45.5227C174.419 46.423 175.065 47.6635 175.223 49.009L175.262 49.6561V71.781C175.262 73.1358 174.765 74.4434 173.866 75.4558C172.966 76.4682 171.727 77.115 170.382 77.2735L169.736 77.3122H158.683C157.274 77.3107 155.919 76.7708 154.895 75.803C153.871 74.8352 153.255 73.5125 153.172 72.1052C153.089 70.6978 153.547 69.312 154.451 68.2309C155.355 67.1498 156.638 66.455 158.036 66.2885L158.683 66.2498H164.209V49.6561C164.209 48.1891 164.792 46.7823 165.828 45.7449C166.864 44.7076 168.27 44.1249 169.736 44.1249Z" fill="white"/>
<defs>
<linearGradient id="paint0_linear_100_40" x1="172.5" y1="80" x2="172.5" y2="405" gradientUnits="userSpaceOnUse">
<stop stop-color="white"/>
<stop offset="0.663462" stop-color="#FF3131"/>
</linearGradient>
</defs>
</svg>
