<svg width="30" height="30" viewBox="0 0 30 30" fill="none" xmlns="http://www.w3.org/2000/svg">
<path d="M2.57764 15.435C2.47347 15.1543 2.47347 14.8456 2.57764 14.565C3.59227 12.1048 5.31454 10.0013 7.52611 8.52109C9.73768 7.04091 12.3389 6.25073 15.0001 6.25073C17.6613 6.25073 20.2626 7.04091 22.4742 8.52109C24.6857 10.0013 26.408 12.1048 27.4226 14.565C27.5268 14.8456 27.5268 15.1543 27.4226 15.435C26.408 17.8951 24.6857 19.9987 22.4742 21.4788C20.2626 22.959 17.6613 23.7492 15.0001 23.7492C12.3389 23.7492 9.73768 22.959 7.52611 21.4788C5.31454 19.9987 3.59227 17.8951 2.57764 15.435Z" stroke="black" stroke-width="2" stroke-linecap="round" stroke-linejoin="round"/>
<path d="M15 18.75C17.0711 18.75 18.75 17.0711 18.75 15C18.75 12.9289 17.0711 11.25 15 11.25C12.9289 11.25 11.25 12.9289 11.25 15C11.25 17.0711 12.9289 18.75 15 18.75Z" stroke="black" stroke-width="2" stroke-linecap="round" stroke-linejoin="round"/>
</svg>
