<svg width="30" height="30" viewBox="0 0 30 30" fill="none" xmlns="http://www.w3.org/2000/svg">
<path d="M15.0013 5.66121C16.4298 4.38328 18.2933 3.70074 20.2092 3.75374C22.1252 3.80674 23.9481 4.59126 25.3038 5.94621C26.658 7.30019 27.4429 9.12089 27.4978 11.0351C27.5526 12.9492 26.8732 14.8119 25.5988 16.2412L14.9988 26.8562L4.40128 16.2412C3.12535 14.8112 2.44528 12.9469 2.5007 11.0312C2.55611 9.11547 3.34281 7.29365 4.69927 5.93974C6.05573 4.58584 7.87904 3.80259 9.79486 3.75079C11.7107 3.69899 13.5736 4.38258 15.0013 5.66121ZM23.5338 7.71246C22.6305 6.81067 21.4165 6.28849 20.1405 6.25293C18.8646 6.21737 17.6234 6.67113 16.6713 7.52121L15.0025 9.01871L13.3325 7.52246C12.3846 6.67482 11.1494 6.2202 9.87811 6.25111C8.60686 6.28201 7.39516 6.79613 6.48956 7.68882C5.58396 8.58152 5.05251 9.78573 5.00337 11.0564C4.95423 12.3271 5.39108 13.5687 6.22503 14.5287L15 23.3175L23.775 14.53C24.6055 13.5742 25.0424 12.339 24.9976 11.0737C24.9528 9.80834 24.4297 8.60711 23.5338 7.71246Z" fill="black"/>
</svg>
