<svg width="345" height="405" viewBox="0 0 345 405" fill="none" xmlns="http://www.w3.org/2000/svg">
<path d="M0 80H345V365C345 387.091 327.091 405 305 405H40C17.9086 405 0 387.091 0 365V80Z" fill="url(#paint0_linear_100_41)"/>
<circle cx="173" cy="80" r="80" fill="#FF3131"/>
<path d="M105.342 227C105.282 226.242 104.998 225.652 104.49 225.227C103.99 224.803 103.229 224.591 102.206 224.591C101.554 224.591 101.02 224.67 100.604 224.83C100.195 224.981 99.8916 225.189 99.6946 225.455C99.4976 225.72 99.3954 226.023 99.3878 226.364C99.3726 226.644 99.4219 226.898 99.5355 227.125C99.6567 227.345 99.8461 227.545 100.104 227.727C100.361 227.902 100.691 228.061 101.092 228.205C101.494 228.348 101.971 228.477 102.524 228.591L104.433 229C105.721 229.273 106.823 229.633 107.74 230.08C108.657 230.527 109.407 231.053 109.99 231.659C110.573 232.258 111.001 232.932 111.274 233.682C111.554 234.432 111.698 235.25 111.706 236.136C111.698 237.667 111.316 238.962 110.558 240.023C109.801 241.083 108.717 241.89 107.308 242.443C105.907 242.996 104.221 243.273 102.251 243.273C100.229 243.273 98.4635 242.973 96.956 242.375C95.456 241.777 94.2893 240.856 93.456 239.614C92.6302 238.364 92.2135 236.765 92.206 234.818H98.206C98.2438 235.53 98.4219 236.129 98.7401 236.614C99.0582 237.098 99.5052 237.466 100.081 237.716C100.664 237.966 101.357 238.091 102.161 238.091C102.835 238.091 103.399 238.008 103.854 237.841C104.308 237.674 104.653 237.443 104.888 237.148C105.123 236.852 105.244 236.515 105.251 236.136C105.244 235.78 105.126 235.47 104.899 235.205C104.679 234.932 104.316 234.689 103.808 234.477C103.301 234.258 102.615 234.053 101.751 233.864L99.4332 233.364C97.3726 232.917 95.7476 232.17 94.5582 231.125C93.3764 230.072 92.7893 228.636 92.7969 226.818C92.7893 225.341 93.1832 224.049 93.9787 222.943C94.7817 221.83 95.8916 220.962 97.3082 220.341C98.7325 219.72 100.365 219.409 102.206 219.409C104.085 219.409 105.71 219.723 107.081 220.352C108.452 220.981 109.509 221.867 110.251 223.011C111.001 224.148 111.38 225.477 111.388 227H105.342ZM114.109 243V219.727H130.882V224.818H120.428V228.818H130.018V233.909H120.428V237.909H130.837V243H114.109ZM134.016 243V219.727H144.061C145.788 219.727 147.3 220.042 148.595 220.67C149.891 221.299 150.898 222.205 151.618 223.386C152.338 224.568 152.697 225.985 152.697 227.636C152.697 229.303 152.326 230.708 151.584 231.852C150.849 232.996 149.815 233.86 148.482 234.443C147.156 235.027 145.607 235.318 143.834 235.318H137.834V230.409H142.561C143.304 230.409 143.936 230.318 144.459 230.136C144.989 229.947 145.394 229.648 145.675 229.239C145.963 228.83 146.107 228.295 146.107 227.636C146.107 226.97 145.963 226.428 145.675 226.011C145.394 225.587 144.989 225.277 144.459 225.08C143.936 224.875 143.304 224.773 142.561 224.773H140.334V243H134.016ZM147.652 232.318L153.47 243H146.607L140.925 232.318H147.652ZM161.036 219.727L165.808 236.136H165.99L170.763 219.727H177.899L170.217 243H161.581L153.899 219.727H161.036ZM186.459 219.727V243H180.141V219.727H186.459ZM211.18 228.455H204.771C204.726 227.924 204.605 227.443 204.408 227.011C204.218 226.58 203.953 226.208 203.612 225.898C203.279 225.58 202.874 225.337 202.396 225.17C201.919 224.996 201.377 224.909 200.771 224.909C199.711 224.909 198.813 225.167 198.078 225.682C197.351 226.197 196.798 226.936 196.419 227.898C196.048 228.86 195.862 230.015 195.862 231.364C195.862 232.788 196.052 233.981 196.43 234.943C196.817 235.898 197.374 236.617 198.101 237.102C198.828 237.58 199.703 237.818 200.726 237.818C201.309 237.818 201.832 237.746 202.294 237.602C202.756 237.451 203.158 237.235 203.499 236.955C203.839 236.674 204.116 236.337 204.328 235.943C204.548 235.542 204.696 235.091 204.771 234.591L211.18 234.636C211.105 235.621 210.828 236.625 210.351 237.648C209.874 238.663 209.196 239.602 208.317 240.466C207.446 241.322 206.366 242.011 205.078 242.534C203.79 243.057 202.294 243.318 200.589 243.318C198.453 243.318 196.536 242.86 194.839 241.943C193.15 241.027 191.813 239.678 190.828 237.898C189.851 236.117 189.362 233.939 189.362 231.364C189.362 228.773 189.862 226.591 190.862 224.818C191.862 223.038 193.211 221.693 194.908 220.784C196.605 219.867 198.499 219.409 200.589 219.409C202.059 219.409 203.411 219.61 204.646 220.011C205.881 220.413 206.964 221 207.896 221.773C208.828 222.538 209.578 223.481 210.146 224.602C210.714 225.723 211.059 227.008 211.18 228.455ZM220.365 219.727V243H214.047V219.727H220.365ZM245.905 231.364C245.905 233.955 245.401 236.14 244.393 237.92C243.386 239.693 242.026 241.038 240.314 241.955C238.602 242.864 236.693 243.318 234.587 243.318C232.465 243.318 230.549 242.86 228.837 241.943C227.132 241.019 225.776 239.67 224.768 237.898C223.768 236.117 223.268 233.939 223.268 231.364C223.268 228.773 223.768 226.591 224.768 224.818C225.776 223.038 227.132 221.693 228.837 220.784C230.549 219.867 232.465 219.409 234.587 219.409C236.693 219.409 238.602 219.867 240.314 220.784C242.026 221.693 243.386 223.038 244.393 224.818C245.401 226.591 245.905 228.773 245.905 231.364ZM239.405 231.364C239.405 229.97 239.219 228.795 238.848 227.841C238.484 226.879 237.943 226.152 237.223 225.659C236.511 225.159 235.632 224.909 234.587 224.909C233.541 224.909 232.659 225.159 231.939 225.659C231.227 226.152 230.685 226.879 230.314 227.841C229.95 228.795 229.768 229.97 229.768 231.364C229.768 232.758 229.95 233.936 230.314 234.898C230.685 235.852 231.227 236.58 231.939 237.08C232.659 237.572 233.541 237.818 234.587 237.818C235.632 237.818 236.511 237.572 237.223 237.08C237.943 236.58 238.484 235.852 238.848 234.898C239.219 233.936 239.405 232.758 239.405 231.364ZM95.9688 282V258.727H112.741V263.818H102.287V267.818H111.878V272.909H102.287V276.909H112.696V282H95.9688ZM122.239 258.727L127.011 275.136H127.193L131.966 258.727H139.102L131.42 282H122.784L115.102 258.727H122.239ZM141.344 282V258.727H158.116V263.818H147.662V267.818H157.253V272.909H147.662V276.909H158.071V282H141.344ZM181.386 258.727V282H176.114L167.705 269.773H167.568V282H161.25V258.727H166.614L174.886 270.909H175.068V258.727H181.386ZM183.739 263.818V258.727H203.966V263.818H196.966V282H190.739V263.818H183.739ZM227.795 270.364C227.795 272.955 227.292 275.14 226.284 276.92C225.277 278.693 223.917 280.038 222.205 280.955C220.492 281.864 218.583 282.318 216.477 282.318C214.356 282.318 212.439 281.86 210.727 280.943C209.023 280.019 207.667 278.67 206.659 276.898C205.659 275.117 205.159 272.939 205.159 270.364C205.159 267.773 205.659 265.591 206.659 263.818C207.667 262.038 209.023 260.693 210.727 259.784C212.439 258.867 214.356 258.409 216.477 258.409C218.583 258.409 220.492 258.867 222.205 259.784C223.917 260.693 225.277 262.038 226.284 263.818C227.292 265.591 227.795 267.773 227.795 270.364ZM221.295 270.364C221.295 268.97 221.11 267.795 220.739 266.841C220.375 265.879 219.833 265.152 219.114 264.659C218.402 264.159 217.523 263.909 216.477 263.909C215.432 263.909 214.549 264.159 213.83 264.659C213.117 265.152 212.576 265.879 212.205 266.841C211.841 267.795 211.659 268.97 211.659 270.364C211.659 271.758 211.841 272.936 212.205 273.898C212.576 274.852 213.117 275.58 213.83 276.08C214.549 276.572 215.432 276.818 216.477 276.818C217.523 276.818 218.402 276.572 219.114 276.08C219.833 275.58 220.375 274.852 220.739 273.898C221.11 272.936 221.295 271.758 221.295 270.364ZM243.264 266C243.204 265.242 242.92 264.652 242.412 264.227C241.912 263.803 241.151 263.591 240.128 263.591C239.476 263.591 238.942 263.67 238.526 263.83C238.116 263.981 237.813 264.189 237.616 264.455C237.42 264.72 237.317 265.023 237.31 265.364C237.295 265.644 237.344 265.898 237.457 266.125C237.579 266.345 237.768 266.545 238.026 266.727C238.283 266.902 238.613 267.061 239.014 267.205C239.416 267.348 239.893 267.477 240.446 267.591L242.355 268C243.643 268.273 244.745 268.633 245.662 269.08C246.579 269.527 247.329 270.053 247.912 270.659C248.495 271.258 248.923 271.932 249.196 272.682C249.476 273.432 249.62 274.25 249.628 275.136C249.62 276.667 249.238 277.962 248.48 279.023C247.723 280.083 246.639 280.89 245.23 281.443C243.829 281.996 242.143 282.273 240.173 282.273C238.151 282.273 236.385 281.973 234.878 281.375C233.378 280.777 232.211 279.856 231.378 278.614C230.552 277.364 230.135 275.765 230.128 273.818H236.128C236.166 274.53 236.344 275.129 236.662 275.614C236.98 276.098 237.427 276.466 238.003 276.716C238.586 276.966 239.279 277.091 240.082 277.091C240.757 277.091 241.321 277.008 241.776 276.841C242.23 276.674 242.575 276.443 242.81 276.148C243.045 275.852 243.166 275.515 243.173 275.136C243.166 274.78 243.048 274.47 242.821 274.205C242.601 273.932 242.238 273.689 241.73 273.477C241.223 273.258 240.537 273.053 239.673 272.864L237.355 272.364C235.295 271.917 233.67 271.17 232.48 270.125C231.298 269.072 230.711 267.636 230.719 265.818C230.711 264.341 231.105 263.049 231.901 261.943C232.704 260.83 233.813 259.962 235.23 259.341C236.654 258.72 238.287 258.409 240.128 258.409C242.007 258.409 243.632 258.723 245.003 259.352C246.374 259.981 247.431 260.867 248.173 262.011C248.923 263.148 249.302 264.477 249.31 266H243.264Z" fill="white"/>
<path d="M151.03 57.8018C151.766 57.8018 152.473 57.5089 152.994 56.9875C153.515 56.4661 153.808 55.759 153.808 55.0216V38.3405C153.808 37.6031 153.515 36.896 152.994 36.3746C152.473 35.8532 151.766 35.5603 151.03 35.5603C150.293 35.5603 149.586 35.8532 149.066 36.3746C148.545 36.896 148.252 37.6031 148.252 38.3405V55.0216C148.252 55.759 148.545 56.4661 149.066 56.9875C149.586 57.5089 150.293 57.8018 151.03 57.8018Z" fill="white"/>
<path d="M195.475 57.8018C196.212 57.8018 196.918 57.5089 197.439 56.9875C197.96 56.4661 198.253 55.759 198.253 55.0216V38.3405C198.253 37.6031 197.96 36.896 197.439 36.3746C196.918 35.8532 196.212 35.5603 195.475 35.5603C194.738 35.5603 194.032 35.8532 193.511 36.3746C192.99 36.896 192.697 37.6031 192.697 38.3405V55.0216C192.697 55.759 192.99 56.4661 193.511 56.9875C194.032 57.5089 194.738 57.8018 195.475 57.8018Z" fill="white"/>
<path d="M212.583 46.6815H201.472V55.022C201.472 56.6442 200.828 58.1999 199.682 59.3469C198.536 60.494 196.982 61.1384 195.361 61.1384C193.74 61.1384 192.186 60.494 191.04 59.3469C189.894 58.1999 189.25 56.6442 189.25 55.022V46.6815H156.889V55.022C156.889 56.6442 156.245 58.1999 155.099 59.3469C153.953 60.494 152.399 61.1384 150.778 61.1384C149.158 61.1384 147.603 60.494 146.457 59.3469C145.311 58.1999 144.667 56.6442 144.667 55.022V46.6815H133.556C132.895 46.6739 132.239 46.7992 131.628 47.0497C131.016 47.3003 130.46 47.6711 129.994 48.1403C129.528 48.6095 129.161 49.1674 128.914 49.7812C128.667 50.3949 128.545 51.052 128.556 51.7136V113.934C128.545 114.584 128.662 115.229 128.901 115.834C129.139 116.439 129.494 116.99 129.945 117.458C130.397 117.925 130.936 118.299 131.532 118.558C132.127 118.816 132.768 118.955 133.417 118.966H212.583C213.232 118.955 213.873 118.816 214.469 118.558C215.064 118.299 215.603 117.925 216.055 117.458C216.506 116.99 216.861 116.439 217.1 115.834C217.338 115.229 217.455 114.584 217.444 113.934V51.7136C217.455 51.0637 217.338 50.418 217.1 49.8133C216.861 49.2087 216.506 48.657 216.055 48.1897C215.603 47.7224 215.064 47.3487 214.469 47.0899C213.873 46.8311 213.232 46.6923 212.583 46.6815ZM195.055 76.0957L168.195 102.98L153.556 88.2173C152.907 87.5034 152.556 86.5683 152.574 85.6035C152.592 84.6388 152.978 83.7174 153.652 83.0281C154.327 82.3387 155.239 81.9336 156.202 81.8956C157.166 81.8576 158.107 82.1896 158.834 82.8237L168.222 92.2207L189.667 70.7578C190.019 70.4055 190.436 70.126 190.896 69.9353C191.356 69.7446 191.849 69.6465 192.347 69.6465C192.845 69.6465 193.338 69.7446 193.798 69.9353C194.258 70.126 194.676 70.4055 195.028 70.7578C195.38 71.1101 195.659 71.5284 195.849 71.9887C196.04 72.449 196.138 72.9424 196.138 73.4406C196.138 73.9389 196.04 74.4323 195.849 74.8926C195.659 75.3529 195.38 75.7712 195.028 76.1235L195.055 76.0957Z" fill="white"/>
<defs>
<linearGradient id="paint0_linear_100_41" x1="172.5" y1="80" x2="172.5" y2="405" gradientUnits="userSpaceOnUse">
<stop stop-color="white"/>
<stop offset="0.663462" stop-color="#FF3131"/>
</linearGradient>
</defs>
</svg>
