<svg width="345" height="405" viewBox="0 0 345 405" fill="none" xmlns="http://www.w3.org/2000/svg">
<path d="M0 80H345V365C345 387.091 327.091 405 305 405H40C17.9086 405 0 387.091 0 365V80Z" fill="url(#paint0_linear_100_39)"/>
<circle cx="173" cy="80" r="80" fill="#FF3131"/>
<path d="M68.5668 224.818V219.727H88.794V224.818H81.794V243H75.5668V224.818H68.5668ZM91.1719 243V219.727H101.217C102.945 219.727 104.456 220.042 105.751 220.67C107.047 221.299 108.054 222.205 108.774 223.386C109.494 224.568 109.854 225.985 109.854 227.636C109.854 229.303 109.482 230.708 108.74 231.852C108.005 232.996 106.971 233.86 105.638 234.443C104.312 235.027 102.763 235.318 100.99 235.318H94.9901V230.409H99.7173C100.46 230.409 101.092 230.318 101.615 230.136C102.145 229.947 102.551 229.648 102.831 229.239C103.119 228.83 103.263 228.295 103.263 227.636C103.263 226.97 103.119 226.428 102.831 226.011C102.551 225.587 102.145 225.277 101.615 225.08C101.092 224.875 100.46 224.773 99.7173 224.773H97.4901V243H91.1719ZM104.808 232.318L110.626 243H103.763L98.081 232.318H104.808ZM118.592 243H111.774L119.456 219.727H128.092L135.774 243H128.956L123.865 226.136H123.683L118.592 243ZM117.32 233.818H130.138V238.545H117.32V233.818ZM149.655 227C149.594 226.242 149.31 225.652 148.803 225.227C148.303 224.803 147.541 224.591 146.518 224.591C145.867 224.591 145.333 224.67 144.916 224.83C144.507 224.981 144.204 225.189 144.007 225.455C143.81 225.72 143.708 226.023 143.7 226.364C143.685 226.644 143.734 226.898 143.848 227.125C143.969 227.345 144.159 227.545 144.416 227.727C144.674 227.902 145.003 228.061 145.405 228.205C145.806 228.348 146.284 228.477 146.837 228.591L148.746 229C150.034 229.273 151.136 229.633 152.053 230.08C152.969 230.527 153.719 231.053 154.303 231.659C154.886 232.258 155.314 232.932 155.587 233.682C155.867 234.432 156.011 235.25 156.018 236.136C156.011 237.667 155.628 238.962 154.871 240.023C154.113 241.083 153.03 241.89 151.621 242.443C150.219 242.996 148.534 243.273 146.564 243.273C144.541 243.273 142.776 242.973 141.268 242.375C139.768 241.777 138.602 240.856 137.768 239.614C136.943 238.364 136.526 236.765 136.518 234.818H142.518C142.556 235.53 142.734 236.129 143.053 236.614C143.371 237.098 143.818 237.466 144.393 237.716C144.977 237.966 145.67 238.091 146.473 238.091C147.147 238.091 147.712 238.008 148.166 237.841C148.621 237.674 148.965 237.443 149.2 237.148C149.435 236.852 149.556 236.515 149.564 236.136C149.556 235.78 149.439 235.47 149.212 235.205C148.992 234.932 148.628 234.689 148.121 234.477C147.613 234.258 146.928 234.053 146.064 233.864L143.746 233.364C141.685 232.917 140.06 232.17 138.871 231.125C137.689 230.072 137.102 228.636 137.109 226.818C137.102 225.341 137.496 224.049 138.291 222.943C139.094 221.83 140.204 220.962 141.621 220.341C143.045 219.72 144.678 219.409 146.518 219.409C148.397 219.409 150.022 219.723 151.393 220.352C152.765 220.981 153.821 221.867 154.564 223.011C155.314 224.148 155.693 225.477 155.7 227H149.655ZM158.422 243V219.727H164.74V237.909H174.149V243H158.422ZM182.749 243H175.93L183.612 219.727H192.249L199.93 243H193.112L188.021 226.136H187.839L182.749 243ZM181.476 233.818H194.294V238.545H181.476V233.818ZM211.126 243H202.172V219.727H211.036C213.429 219.727 215.498 220.193 217.24 221.125C218.99 222.049 220.339 223.383 221.286 225.125C222.24 226.86 222.717 228.939 222.717 231.364C222.717 233.788 222.244 235.871 221.297 237.614C220.35 239.348 219.009 240.682 217.274 241.614C215.539 242.538 213.49 243 211.126 243ZM208.49 237.636H210.899C212.051 237.636 213.032 237.451 213.842 237.08C214.661 236.708 215.282 236.068 215.706 235.159C216.138 234.25 216.354 232.985 216.354 231.364C216.354 229.742 216.134 228.477 215.695 227.568C215.263 226.659 214.626 226.019 213.786 225.648C212.952 225.277 211.929 225.091 210.717 225.091H208.49V237.636ZM248.186 231.364C248.186 233.955 247.682 236.14 246.675 237.92C245.667 239.693 244.307 241.038 242.595 241.955C240.883 242.864 238.974 243.318 236.868 243.318C234.747 243.318 232.83 242.86 231.118 241.943C229.413 241.019 228.057 239.67 227.05 237.898C226.05 236.117 225.55 233.939 225.55 231.364C225.55 228.773 226.05 226.591 227.05 224.818C228.057 223.038 229.413 221.693 231.118 220.784C232.83 219.867 234.747 219.409 236.868 219.409C238.974 219.409 240.883 219.867 242.595 220.784C244.307 221.693 245.667 223.038 246.675 224.818C247.682 226.591 248.186 228.773 248.186 231.364ZM241.686 231.364C241.686 229.97 241.5 228.795 241.129 227.841C240.766 226.879 240.224 226.152 239.504 225.659C238.792 225.159 237.913 224.909 236.868 224.909C235.822 224.909 234.94 225.159 234.22 225.659C233.508 226.152 232.966 226.879 232.595 227.841C232.232 228.795 232.05 229.97 232.05 231.364C232.05 232.758 232.232 233.936 232.595 234.898C232.966 235.852 233.508 236.58 234.22 237.08C234.94 237.572 235.822 237.818 236.868 237.818C237.913 237.818 238.792 237.572 239.504 237.08C240.224 236.58 240.766 235.852 241.129 234.898C241.5 233.936 241.686 232.758 241.686 231.364ZM263.655 227C263.594 226.242 263.31 225.652 262.803 225.227C262.303 224.803 261.541 224.591 260.518 224.591C259.867 224.591 259.333 224.67 258.916 224.83C258.507 224.981 258.204 225.189 258.007 225.455C257.81 225.72 257.708 226.023 257.7 226.364C257.685 226.644 257.734 226.898 257.848 227.125C257.969 227.345 258.159 227.545 258.416 227.727C258.674 227.902 259.003 228.061 259.405 228.205C259.806 228.348 260.284 228.477 260.837 228.591L262.746 229C264.034 229.273 265.136 229.633 266.053 230.08C266.969 230.527 267.719 231.053 268.303 231.659C268.886 232.258 269.314 232.932 269.587 233.682C269.867 234.432 270.011 235.25 270.018 236.136C270.011 237.667 269.628 238.962 268.871 240.023C268.113 241.083 267.03 241.89 265.621 242.443C264.219 242.996 262.534 243.273 260.564 243.273C258.541 243.273 256.776 242.973 255.268 242.375C253.768 241.777 252.602 240.856 251.768 239.614C250.943 238.364 250.526 236.765 250.518 234.818H256.518C256.556 235.53 256.734 236.129 257.053 236.614C257.371 237.098 257.818 237.466 258.393 237.716C258.977 237.966 259.67 238.091 260.473 238.091C261.147 238.091 261.712 238.008 262.166 237.841C262.621 237.674 262.965 237.443 263.2 237.148C263.435 236.852 263.556 236.515 263.564 236.136C263.556 235.78 263.439 235.47 263.212 235.205C262.992 234.932 262.628 234.689 262.121 234.477C261.613 234.258 260.928 234.053 260.064 233.864L257.746 233.364C255.685 232.917 254.06 232.17 252.871 231.125C251.689 230.072 251.102 228.636 251.109 226.818C251.102 225.341 251.496 224.049 252.291 222.943C253.094 221.83 254.204 220.962 255.621 220.341C257.045 219.72 258.678 219.409 260.518 219.409C262.397 219.409 264.022 219.723 265.393 220.352C266.765 220.981 267.821 221.867 268.564 223.011C269.314 224.148 269.693 225.477 269.7 227H263.655ZM41.5312 282V258.727H51.5767C53.304 258.727 54.8153 259.068 56.1108 259.75C57.4063 260.432 58.4138 261.39 59.1335 262.625C59.8532 263.86 60.2131 265.303 60.2131 266.955C60.2131 268.621 59.8419 270.064 59.0994 271.284C58.3646 272.504 57.3305 273.443 55.9972 274.102C54.6714 274.761 53.1222 275.091 51.3494 275.091H45.3494V270.182H50.0767C50.8191 270.182 51.4517 270.053 51.9744 269.795C52.5047 269.53 52.91 269.155 53.1903 268.67C53.4782 268.186 53.6222 267.614 53.6222 266.955C53.6222 266.288 53.4782 265.72 53.1903 265.25C52.91 264.773 52.5047 264.409 51.9744 264.159C51.4517 263.902 50.8191 263.773 50.0767 263.773H47.8494V282H41.5312ZM62.5312 282V258.727H72.5767C74.304 258.727 75.8153 259.042 77.1108 259.67C78.4063 260.299 79.4138 261.205 80.1335 262.386C80.8532 263.568 81.2131 264.985 81.2131 266.636C81.2131 268.303 80.8419 269.708 80.0994 270.852C79.3646 271.996 78.3305 272.86 76.9972 273.443C75.6714 274.027 74.1222 274.318 72.3494 274.318H66.3494V269.409H71.0767C71.8191 269.409 72.4517 269.318 72.9744 269.136C73.5047 268.947 73.91 268.648 74.1903 268.239C74.4782 267.83 74.6222 267.295 74.6222 266.636C74.6222 265.97 74.4782 265.428 74.1903 265.011C73.91 264.587 73.5047 264.277 72.9744 264.08C72.4517 263.875 71.8191 263.773 71.0767 263.773H68.8494V282H62.5312ZM76.1676 271.318L81.9858 282H75.1222L69.4403 271.318H76.1676ZM106.452 270.364C106.452 272.955 105.948 275.14 104.94 276.92C103.933 278.693 102.573 280.038 100.861 280.955C99.1487 281.864 97.2396 282.318 95.1335 282.318C93.0123 282.318 91.0956 281.86 89.3835 280.943C87.679 280.019 86.3229 278.67 85.3153 276.898C84.3153 275.117 83.8153 272.939 83.8153 270.364C83.8153 267.773 84.3153 265.591 85.3153 263.818C86.3229 262.038 87.679 260.693 89.3835 259.784C91.0956 258.867 93.0123 258.409 95.1335 258.409C97.2396 258.409 99.1487 258.867 100.861 259.784C102.573 260.693 103.933 262.038 104.94 263.818C105.948 265.591 106.452 267.773 106.452 270.364ZM99.9517 270.364C99.9517 268.97 99.7661 267.795 99.3949 266.841C99.0312 265.879 98.4896 265.152 97.7699 264.659C97.0578 264.159 96.179 263.909 95.1335 263.909C94.0881 263.909 93.2055 264.159 92.4858 264.659C91.7737 265.152 91.232 265.879 90.8608 266.841C90.4972 267.795 90.3153 268.97 90.3153 270.364C90.3153 271.758 90.4972 272.936 90.8608 273.898C91.232 274.852 91.7737 275.58 92.4858 276.08C93.2055 276.572 94.0881 276.818 95.1335 276.818C96.179 276.818 97.0578 276.572 97.7699 276.08C98.4896 275.58 99.0312 274.852 99.3949 273.898C99.7661 272.936 99.9517 271.758 99.9517 270.364ZM124.489 266.409C124.39 266.008 124.235 265.655 124.023 265.352C123.811 265.042 123.545 264.78 123.227 264.568C122.917 264.348 122.553 264.186 122.136 264.08C121.727 263.966 121.277 263.909 120.784 263.909C119.723 263.909 118.818 264.163 118.068 264.67C117.326 265.178 116.758 265.909 116.364 266.864C115.977 267.818 115.784 268.97 115.784 270.318C115.784 271.682 115.97 272.848 116.341 273.818C116.712 274.788 117.265 275.53 118 276.045C118.735 276.561 119.648 276.818 120.739 276.818C121.701 276.818 122.5 276.678 123.136 276.398C123.78 276.117 124.261 275.72 124.58 275.205C124.898 274.689 125.057 274.083 125.057 273.386L126.148 273.5H120.83V269H131.148V272.227C131.148 274.348 130.697 276.163 129.795 277.67C128.902 279.17 127.667 280.322 126.091 281.125C124.523 281.92 122.723 282.318 120.693 282.318C118.428 282.318 116.439 281.837 114.727 280.875C113.015 279.913 111.678 278.542 110.716 276.761C109.761 274.981 109.284 272.864 109.284 270.409C109.284 268.485 109.576 266.78 110.159 265.295C110.75 263.811 111.568 262.557 112.614 261.534C113.659 260.504 114.867 259.727 116.239 259.205C117.61 258.674 119.08 258.409 120.648 258.409C122.027 258.409 123.307 258.606 124.489 259C125.678 259.386 126.727 259.939 127.636 260.659C128.553 261.371 129.292 262.216 129.852 263.193C130.413 264.17 130.754 265.242 130.875 266.409H124.489ZM134.094 282V258.727H144.139C145.866 258.727 147.378 259.042 148.673 259.67C149.969 260.299 150.976 261.205 151.696 262.386C152.416 263.568 152.776 264.985 152.776 266.636C152.776 268.303 152.404 269.708 151.662 270.852C150.927 271.996 149.893 272.86 148.56 273.443C147.234 274.027 145.685 274.318 143.912 274.318H137.912V269.409H142.639C143.382 269.409 144.014 269.318 144.537 269.136C145.067 268.947 145.473 268.648 145.753 268.239C146.041 267.83 146.185 267.295 146.185 266.636C146.185 265.97 146.041 265.428 145.753 265.011C145.473 264.587 145.067 264.277 144.537 264.08C144.014 263.875 143.382 263.773 142.639 263.773H140.412V282H134.094ZM147.73 271.318L153.548 282H146.685L141.003 271.318H147.73ZM161.514 282H154.696L162.378 258.727H171.014L178.696 282H171.878L166.787 265.136H166.605L161.514 282ZM160.241 272.818H173.06V277.545H160.241V272.818ZM180.938 258.727H188.801L194.21 271.909H194.483L199.892 258.727H207.756V282H201.574V268.545H201.392L196.21 281.818H192.483L187.301 268.455H187.119V282H180.938V258.727ZM216.795 282H209.977L217.659 258.727H226.295L233.977 282H227.159L222.068 265.136H221.886L216.795 282ZM215.523 272.818H228.341V277.545H215.523V272.818ZM245.173 282H236.219V258.727H245.082C247.476 258.727 249.545 259.193 251.287 260.125C253.037 261.049 254.385 262.383 255.332 264.125C256.287 265.86 256.764 267.939 256.764 270.364C256.764 272.788 256.291 274.871 255.344 276.614C254.397 278.348 253.056 279.682 251.321 280.614C249.586 281.538 247.537 282 245.173 282ZM242.537 276.636H244.946C246.098 276.636 247.079 276.451 247.889 276.08C248.707 275.708 249.329 275.068 249.753 274.159C250.185 273.25 250.401 271.985 250.401 270.364C250.401 268.742 250.181 267.477 249.741 266.568C249.31 265.659 248.673 265.019 247.832 264.648C246.999 264.277 245.976 264.091 244.764 264.091H242.537V276.636ZM282.233 270.364C282.233 272.955 281.729 275.14 280.722 276.92C279.714 278.693 278.354 280.038 276.642 280.955C274.93 281.864 273.021 282.318 270.915 282.318C268.794 282.318 266.877 281.86 265.165 280.943C263.46 280.019 262.104 278.67 261.097 276.898C260.097 275.117 259.597 272.939 259.597 270.364C259.597 267.773 260.097 265.591 261.097 263.818C262.104 262.038 263.46 260.693 265.165 259.784C266.877 258.867 268.794 258.409 270.915 258.409C273.021 258.409 274.93 258.867 276.642 259.784C278.354 260.693 279.714 262.038 280.722 263.818C281.729 265.591 282.233 267.773 282.233 270.364ZM275.733 270.364C275.733 268.97 275.547 267.795 275.176 266.841C274.812 265.879 274.271 265.152 273.551 264.659C272.839 264.159 271.96 263.909 270.915 263.909C269.869 263.909 268.987 264.159 268.267 264.659C267.555 265.152 267.013 265.879 266.642 266.841C266.278 267.795 266.097 268.97 266.097 270.364C266.097 271.758 266.278 272.936 266.642 273.898C267.013 274.852 267.555 275.58 268.267 276.08C268.987 276.572 269.869 276.818 270.915 276.818C271.96 276.818 272.839 276.572 273.551 276.08C274.271 275.58 274.812 274.852 275.176 273.898C275.547 272.936 275.733 271.758 275.733 270.364ZM297.702 266C297.641 265.242 297.357 264.652 296.849 264.227C296.349 263.803 295.588 263.591 294.565 263.591C293.914 263.591 293.38 263.67 292.963 263.83C292.554 263.981 292.251 264.189 292.054 264.455C291.857 264.72 291.755 265.023 291.747 265.364C291.732 265.644 291.781 265.898 291.895 266.125C292.016 266.345 292.205 266.545 292.463 266.727C292.721 266.902 293.05 267.061 293.452 267.205C293.853 267.348 294.33 267.477 294.884 267.591L296.793 268C298.08 268.273 299.183 268.633 300.099 269.08C301.016 269.527 301.766 270.053 302.349 270.659C302.933 271.258 303.361 271.932 303.634 272.682C303.914 273.432 304.058 274.25 304.065 275.136C304.058 276.667 303.675 277.962 302.918 279.023C302.16 280.083 301.077 280.89 299.668 281.443C298.266 281.996 296.58 282.273 294.611 282.273C292.588 282.273 290.823 281.973 289.315 281.375C287.815 280.777 286.649 279.856 285.815 278.614C284.99 277.364 284.573 275.765 284.565 273.818H290.565C290.603 274.53 290.781 275.129 291.099 275.614C291.418 276.098 291.865 276.466 292.44 276.716C293.024 276.966 293.717 277.091 294.52 277.091C295.194 277.091 295.759 277.008 296.213 276.841C296.668 276.674 297.012 276.443 297.247 276.148C297.482 275.852 297.603 275.515 297.611 275.136C297.603 274.78 297.486 274.47 297.259 274.205C297.039 273.932 296.675 273.689 296.168 273.477C295.66 273.258 294.974 273.053 294.111 272.864L291.793 272.364C289.732 271.917 288.107 271.17 286.918 270.125C285.736 269.072 285.149 267.636 285.156 265.818C285.149 264.341 285.543 263.049 286.338 261.943C287.141 260.83 288.251 259.962 289.668 259.341C291.092 258.72 292.724 258.409 294.565 258.409C296.444 258.409 298.069 258.723 299.44 259.352C300.812 259.981 301.868 260.867 302.611 262.011C303.361 263.148 303.74 264.477 303.747 266H297.702Z" fill="white"/>
<path fill-rule="evenodd" clip-rule="evenodd" d="M147.812 48.9392C143.269 53.4552 139.795 58.9486 137.652 65.0089C135.509 71.0692 134.751 77.5397 135.435 83.9371C135.498 84.7964 135.228 85.647 134.681 86.3085C134.133 86.9701 133.352 87.3907 132.502 87.4813C131.653 87.5718 130.802 87.3251 130.13 86.7935C129.457 86.2619 129.017 85.4871 128.901 84.6333C128.112 77.2445 128.988 69.7713 131.464 62.7719C133.939 55.7725 137.95 49.4277 143.198 44.2114C162.503 25.0017 193.648 25.3134 212.756 44.8612C231.865 64.4091 231.74 95.8196 212.427 115.029C203.486 123.935 191.487 129.022 178.923 129.233C174.173 129.321 169.435 128.715 164.857 127.436C164.016 127.202 163.303 126.641 162.872 125.876C162.442 125.111 162.331 124.205 162.563 123.358C162.794 122.51 163.351 121.79 164.109 121.356C164.867 120.922 165.765 120.81 166.605 121.044C170.576 122.154 174.685 122.679 178.805 122.602C189.684 122.429 200.076 118.025 207.813 110.308C224.516 93.6911 224.654 66.4779 208.076 49.5161C191.498 32.5543 164.515 32.3222 147.812 48.9392Z" fill="white"/>
<path fill-rule="evenodd" clip-rule="evenodd" d="M133.996 88.5812C133.712 88.9092 133.368 89.1764 132.983 89.3674C132.598 89.5584 132.181 89.6695 131.754 89.6944C131.328 89.7193 130.901 89.6574 130.498 89.5124C130.094 89.3673 129.723 89.1419 129.404 88.8491L118.216 78.6025C117.872 78.3183 117.588 77.965 117.381 77.5641C117.174 77.1632 117.048 76.7231 117.011 76.2707C116.975 75.8182 117.028 75.3627 117.167 74.9319C117.307 74.5012 117.53 74.1041 117.823 73.7649C118.116 73.4257 118.473 73.1515 118.873 72.9589C119.272 72.7663 119.705 72.6593 120.146 72.6445C120.587 72.6297 121.026 72.7073 121.437 72.8727C121.848 73.0381 122.221 73.2877 122.535 73.6065L133.723 83.853C134.043 84.145 134.303 84.4989 134.49 84.8945C134.677 85.2901 134.786 85.7198 134.811 86.1588C134.837 86.5979 134.778 87.0378 134.638 87.4535C134.498 87.8691 134.28 88.2523 133.996 88.5812Z" fill="white"/>
<path fill-rule="evenodd" clip-rule="evenodd" d="M129.277 87.6218C129.536 87.9639 129.86 88.2521 130.231 88.47C130.603 88.6878 131.014 88.8311 131.441 88.8916C131.868 88.9521 132.303 88.9286 132.721 88.8224C133.139 88.7163 133.532 88.5296 133.877 88.273L147.02 78.504C147.717 77.9858 148.178 77.2144 148.301 76.3594C148.425 75.5045 148.2 74.636 147.677 73.9451C147.154 73.2542 146.376 72.7974 145.513 72.6753C144.651 72.5532 143.774 72.7757 143.077 73.2938L129.934 83.0629C129.237 83.5811 128.776 84.3525 128.653 85.2074C128.529 86.0624 128.754 86.9309 129.277 87.6218ZM176.461 56.3608C177.332 56.3608 178.168 56.7039 178.784 57.3146C179.4 57.9253 179.746 58.7535 179.746 59.6172V82.4116C179.746 83.2752 179.4 84.1035 178.784 84.7142C178.168 85.3249 177.332 85.668 176.461 85.668C175.589 85.668 174.753 85.3249 174.137 84.7142C173.521 84.1035 173.175 83.2752 173.175 82.4116V59.6172C173.175 58.7535 173.521 57.9253 174.137 57.3146C174.753 56.7039 175.589 56.3608 176.461 56.3608Z" fill="white"/>
<path fill-rule="evenodd" clip-rule="evenodd" d="M199.887 82.7218C199.887 83.5443 199.541 84.3331 198.923 84.9147C198.306 85.4963 197.468 85.823 196.595 85.823H176.842C175.968 85.823 175.131 85.4963 174.514 84.9147C173.896 84.3331 173.549 83.5443 173.549 82.7218C173.549 81.8993 173.896 81.1104 174.514 80.5288C175.131 79.9472 175.968 79.6205 176.842 79.6205H196.595C197.468 79.6205 198.306 79.9472 198.923 80.5288C199.541 81.1104 199.887 81.8993 199.887 82.7218Z" fill="white"/>
<defs>
<linearGradient id="paint0_linear_100_39" x1="172.5" y1="80" x2="172.5" y2="405" gradientUnits="userSpaceOnUse">
<stop stop-color="white"/>
<stop offset="0.663462" stop-color="#FF3131"/>
</linearGradient>
</defs>
</svg>
